STARTFONT 2.1
COMMENT
COMMENT Converted from OpenType font "Vollda-Bold.otf" by "otf2bdf 3.0".
COMMENT
FONT -FreeType-Vollda-Bold-R-Normal--33-240-100-100-P-185-ISO10646-1
SIZE 24 100 100
FONTBOUNDINGBOX 106 46 -6 -10
STARTPROPERTIES 19
FOUNDRY "FreeType"
FAMILY_NAME "Vollda"
WEIGHT_NAME "Bold"
SLANT "R"
SETWIDTH_NAME "Normal"
ADD_STYLE_NAME ""
PIXEL_SIZE 33
POINT_SIZE 240
RESOLUTION_X 100
RESOLUTION_Y 100
SPACING "P"
AVERAGE_WIDTH 185
CHARSET_REGISTRY "ISO10646"
CHARSET_ENCODING "1"
FONT_ASCENT 31
FONT_DESCENT 14
COPYRIGHT "Copyright 2023 Vollda (https://github.com/alexburba/vollda)"
_OTF_FONTFILE "Vollda-Bold.otf"
_OTF_PSNAME "Vollda-Bold"
ENDPROPERTIES
CHARS 1220
STARTCHAR 0000
ENCODING 0
SWIDTH 0 0
DWIDTH 0 0
BBX 0 0 0 0
BITMAP
ENDCHAR
STARTCHAR 000D
ENCODING 13
SWIDTH 180 0
DWIDTH 6 0
BBX 0 0 0 0
BITMAP
ENDCHAR
STARTCHAR 0020
ENCODING 32
SWIDTH 180 0
DWIDTH 6 0
BBX 0 0 0 0
BITMAP
ENDCHAR
STARTCHAR 0021
ENCODING 33
SWIDTH 390 0
DWIDTH 13 0
BBX 6 24 4 0
BITMAP
08
F8
F8
F8
F8
78
78
78
78
78
78
70
70
70
30
30
00
00
00
78
F8
FC
F8
78
ENDCHAR
STARTCHAR 0022
ENCODING 34
SWIDTH 360 0
DWIDTH 12 0
BBX 9 9 2 15
BITMAP
2100
F780
E700
E300
E300
6300
6300
6300
6300
ENDCHAR
STARTCHAR 0023
ENCODING 35
SWIDTH 600 0
DWIDTH 20 0
BBX 18 24 1 0
BITMAP
010300
018300
038300
030700
030700
030600
030600
3FFFC0
3FFFC0
460E00
060C00
060C00
0E0C00
0E1C00
0C1C00
FFFF80
FFFF80
9C1800
1C1800
183800
183000
183000
383000
383000
ENDCHAR
STARTCHAR 0024
ENCODING 36
SWIDTH 540 0
DWIDTH 18 0
BBX 15 28 2 -3
BITMAP
0380
0380
07E0
3FFC
7FFC
73BC
F3BC
F39C
FB9C
FF80
FF80
7F80
7FE0
3FF8
1FFC
07FE
03FE
037E
E33E
E31E
E31E
F31E
FB3C
FFF8
3FF0
0300
0300
0300
ENDCHAR
STARTCHAR 0025
ENCODING 37
SWIDTH 840 0
DWIDTH 28 0
BBX 23 23 3 0
BITMAP
040018
3F8038
7BC038
F1C070
E1C0E0
E1E1C0
E1C380
E1C700
73C700
7F8E00
1F1C00
003800
007000
00E1F8
00E3FC
01C71C
038F1E
070F0E
0E0F0E
1C0F1E
1C071C
3807FC
3001F0
ENDCHAR
STARTCHAR 0026
ENCODING 38
SWIDTH 750 0
DWIDTH 25 0
BBX 22 24 2 0
BITMAP
01F800
07FF00
0F9E00
1F0E00
1F0E00
1F0E00
1F0000
1F0000
0F8000
0FC3F8
0FC1F8
1FE070
3FF060
79F860
F8FCC0
F07EC0
F07FC0
F83F80
F81F80
F80FC0
FC0FE0
7F3FFC
3FF9FC
1FF1FC
ENDCHAR
STARTCHAR 0027
ENCODING 39
SWIDTH 210 0
DWIDTH 7 0
BBX 4 9 2 15
BITMAP
20
F0
E0
E0
E0
60
60
60
60
ENDCHAR
STARTCHAR 0028
ENCODING 40
SWIDTH 300 0
DWIDTH 10 0
BBX 8 34 1 -9
BITMAP
03
03
06
0E
0C
1C
18
38
38
78
78
70
70
F0
F0
F0
F0
F0
F0
F0
F0
70
78
78
78
38
38
3C
1C
0C
0E
06
07
03
ENDCHAR
STARTCHAR 0029
ENCODING 41
SWIDTH 300 0
DWIDTH 10 0
BBX 9 34 1 -9
BITMAP
4000
6000
3000
3000
3800
1C00
1C00
0E00
0E00
0E00
0F00
0F00
0F00
0F00
0780
0780
0780
0780
0780
0700
0F00
0F00
0F00
0F00
0E00
0E00
0E00
1C00
1C00
1800
3800
3000
6000
E000
ENDCHAR
STARTCHAR 002A
ENCODING 42
SWIDTH 450 0
DWIDTH 15 0
BBX 12 12 2 14
BITMAP
0400
0780
4700
6700
F630
3FF0
07F0
1E30
7B00
7380
6380
0380
ENDCHAR
STARTCHAR 002B
ENCODING 43
SWIDTH 540 0
DWIDTH 18 0
BBX 16 17 1 0
BITMAP
0080
0180
0180
0180
0180
0180
0180
7FFF
FFFF
FFFF
0180
0180
0180
0180
0180
0180
0180
ENDCHAR
STARTCHAR 002C
ENCODING 44
SWIDTH 270 0
DWIDTH 9 0
BBX 6 10 2 -6
BITMAP
38
FC
FC
FC
38
38
38
30
60
E0
ENDCHAR
STARTCHAR 002D
ENCODING 45
SWIDTH 390 0
DWIDTH 13 0
BBX 10 3 2 7
BITMAP
FFC0
FFC0
FFC0
ENDCHAR
STARTCHAR 002E
ENCODING 46
SWIDTH 270 0
DWIDTH 9 0
BBX 6 5 2 0
BITMAP
78
F8
FC
F8
78
ENDCHAR
STARTCHAR 002F
ENCODING 47
SWIDTH 360 0
DWIDTH 12 0
BBX 11 24 1 0
BITMAP
0040
00E0
00C0
00C0
01C0
0180
0380
0300
0300
0700
0600
0600
0E00
0C00
1C00
1800
1800
3800
3000
3000
7000
6000
E000
E000
ENDCHAR
STARTCHAR 0030
ENCODING 48
SWIDTH 600 0
DWIDTH 20 0
BBX 18 17 1 0
BITMAP
01F000
0FFE00
1F3F00
3C1F80
7C0F80
7807C0
F807C0
F807C0
F807C0
F803C0
F807C0
7C07C0
7C07C0
3E0780
3F0F00
0FFE00
07F800
ENDCHAR
STARTCHAR 0031
ENCODING 49
SWIDTH 390 0
DWIDTH 13 0
BBX 10 17 2 0
BITMAP
FFC0
FF80
7F00
3E00
3E00
3E00
3E00
3E00
3E00
3E00
3E00
3E00
3E00
3E00
3F00
FF80
FFC0
ENDCHAR
STARTCHAR 0032
ENCODING 50
SWIDTH 510 0
DWIDTH 17 0
BBX 14 17 2 0
BITMAP
1FC0
7FF0
F9F8
F0F8
E0F8
E0F8
00F0
01F0
03E0
0780
0F00
1E1C
3C3C
7FFC
FFFC
FFFC
FFFC
ENDCHAR
STARTCHAR 0033
ENCODING 51
SWIDTH 510 0
DWIDTH 17 0
BBX 15 23 1 -6
BITMAP
7FFC
7FFC
7FFC
7FF8
7C70
60F0
60E0
01C0
0380
0780
07F0
0FF8
07FC
007C
007E
003E
003E
007C
007C
00F8
FFF0
7FE0
0F00
ENDCHAR
STARTCHAR 0034
ENCODING 52
SWIDTH 600 0
DWIDTH 20 0
BBX 18 23 1 -6
BITMAP
001C00
003C00
007C00
007C00
00FC00
01BC00
03BC00
073C00
063C00
0E3C00
1C3C00
383C00
703C00
7FFFC0
FFFFC0
FFFFC0
FFFF80
003C00
003C00
003C00
003C00
003C00
002000
ENDCHAR
STARTCHAR 0035
ENCODING 53
SWIDTH 480 0
DWIDTH 16 0
BBX 14 25 1 -6
BITMAP
0018
0018
1FF8
1FF8
3FF8
3FF8
3FF0
3000
7000
7800
7F80
7FE0
7FF0
0FF8
03F8
00F8
00FC
007C
0078
0078
00F8
01F0
7FE0
FFC0
1C00
ENDCHAR
STARTCHAR 0036
ENCODING 54
SWIDTH 540 0
DWIDTH 18 0
BBX 16 21 1 0
BITMAP
007C
01FC
07E0
0F80
1F00
3E00
3C00
7C00
7BF8
7FFC
FC7E
F83F
F81F
F81F
F81F
F81F
7C1F
7C1E
3E3E
1FFC
0FF0
ENDCHAR
STARTCHAR 0037
ENCODING 55
SWIDTH 450 0
DWIDTH 15 0
BBX 14 23 1 -6
BITMAP
7FF8
7FFC
7FFC
7FF8
FFF0
E070
E060
00E0
01C0
01C0
0380
0380
0780
0700
0F00
0F00
1F00
1F00
1F00
1F00
1F00
1C00
1000
ENDCHAR
STARTCHAR 0038
ENCODING 56
SWIDTH 540 0
DWIDTH 18 0
BBX 15 21 2 0
BITMAP
1FE0
3FF8
7878
F87C
F87C
F87C
FC78
7F78
3FE0
1FE0
1FF0
3FF8
78FC
F07C
F07E
F03E
F03E
F83C
F87C
7FF8
1FE0
ENDCHAR
STARTCHAR 0039
ENCODING 57
SWIDTH 540 0
DWIDTH 18 0
BBX 16 23 1 -6
BITMAP
03E0
1FF8
3E7C
7C3E
781F
F81F
F81F
F81F
F80F
FC0F
7C1F
7FFF
3FFF
0FDE
003E
003C
007C
00F8
01F0
07E0
1F80
3E00
3000
ENDCHAR
STARTCHAR 003A
ENCODING 58
SWIDTH 270 0
DWIDTH 9 0
BBX 5 15 2 0
BITMAP
70
F8
F8
F8
78
00
00
00
00
00
78
F8
F8
F8
70
ENDCHAR
STARTCHAR 003B
ENCODING 59
SWIDTH 270 0
DWIDTH 9 0
BBX 6 21 2 -6
BITMAP
30
7C
FC
FC
78
00
00
00
00
00
00
38
7C
FC
FC
3C
38
38
30
70
E0
ENDCHAR
STARTCHAR 003C
ENCODING 60
SWIDTH 540 0
DWIDTH 18 0
BBX 14 16 2 0
BITMAP
0008
003C
00F8
03E0
0780
1F00
7C00
F000
E000
F800
3E00
0F80
07E0
01F0
007C
001C
ENDCHAR
STARTCHAR 003D
ENCODING 61
SWIDTH 540 0
DWIDTH 18 0
BBX 15 9 2 4
BITMAP
FFFE
FFFE
FFFC
0000
0000
0000
FFFE
FFFE
FFFC
ENDCHAR
STARTCHAR 003E
ENCODING 62
SWIDTH 540 0
DWIDTH 18 0
BBX 13 16 3 0
BITMAP
4000
F000
7800
3E00
0F80
03C0
01F0
0078
0038
0078
01E0
07C0
1F00
7C00
F000
E000
ENDCHAR
STARTCHAR 003F
ENCODING 63
SWIDTH 510 0
DWIDTH 17 0
BBX 12 24 4 0
BITMAP
1F80
FFC0
F3E0
E1F0
E1F0
E1F0
01E0
03E0
07C0
0F80
1F00
1E00
1E00
1E00
1E00
0E00
0E00
0000
0000
0F00
1F00
1F80
1F00
1F00
ENDCHAR
STARTCHAR 0040
ENCODING 64
SWIDTH 990 0
DWIDTH 33 0
BBX 27 29 3 -7
BITMAP
001FE000
00FFFC00
03E01E00
07000700
0E000380
1C0001C0
380C10C0
303FF0E0
707FF8E0
70F0F8E0
61E0F860
61E0F860
E1E0F860
E3E0F8E0
E3E0F8C0
E3E1F8C0
E3E1F8C0
63E1F980
71F3F980
71FEFF00
71FEFE00
38FC7C00
3C000000
1C000080
0F000380
07800700
03F87E00
00FFF800
000F8000
ENDCHAR
STARTCHAR 0041
ENCODING 65
SWIDTH 690 0
DWIDTH 23 0
BBX 22 23 1 0
BITMAP
007000
007000
007000
00F800
00F800
01FC00
01FC00
01FE00
033E00
033F00
071F00
061F00
061F80
0C0F80
0C0FC0
1FFFC0
1FFFE0
1803E0
3003F0
3003F0
7803F8
FC07FC
FC07FC
ENDCHAR
STARTCHAR 0042
ENCODING 66
SWIDTH 660 0
DWIDTH 22 0
BBX 20 23 1 0
BITMAP
FFE000
FFFF00
7FBFC0
1F0FC0
1F07C0
1F07C0
1F07C0
1F07C0
1F07C0
1F0F80
1FFE00
1FFF80
1F1FC0
1F07E0
1F03F0
1F03F0
1F03F0
1F03F0
1F03F0
1F03E0
3F87E0
7FFF80
FFFE00
ENDCHAR
STARTCHAR 0043
ENCODING 67
SWIDTH 630 0
DWIDTH 21 0
BBX 19 23 1 0
BITMAP
007C00
03FFC0
0FC7E0
1F01E0
3E01E0
3C00C0
7C00C0
7C0000
FC0000
F80000
F80000
FC0000
F80000
FC0000
FC0000
7C0000
7E0000
7E0000
3F0000
1F8020
0FE3E0
07FFC0
01FF00
ENDCHAR
STARTCHAR 0044
ENCODING 68
SWIDTH 720 0
DWIDTH 24 0
BBX 22 23 1 0
BITMAP
FFE000
FFFF80
7F9FE0
1F03F0
1F01F8
1F00F8
1F00FC
1F007C
1F007C
1F007C
1F007C
1F007C
1F007C
1F007C
1F007C
1F007C
1F0078
1F00F8
1F00F0
1F01F0
3F87C0
7FFF80
FFFC00
ENDCHAR
STARTCHAR 0045
ENCODING 69
SWIDTH 600 0
DWIDTH 20 0
BBX 19 23 1 0
BITMAP
FFFF80
FFFF80
7F1F80
1F0380
1F0180
1F01C0
1F0100
1F0000
1F0C00
1F0C00
1F1C00
1FFC00
1FFC00
1F0C00
1F0C00
1F0000
1F0000
1F00E0
1F00E0
1F01C0
3F83C0
7FFFC0
FFFFC0
ENDCHAR
STARTCHAR 0046
ENCODING 70
SWIDTH 570 0
DWIDTH 19 0
BBX 18 23 1 0
BITMAP
FFFF80
FFFF80
7F1F80
1F0380
1F0180
1F01C0
1F0100
1F0000
1F0000
1F0600
1F0E00
1F1E00
1FFE00
1FFE00
1F0E00
1F0600
1F0200
1F0000
1F0000
1F0000
3F8000
FFE000
FFE000
ENDCHAR
STARTCHAR 0047
ENCODING 71
SWIDTH 690 0
DWIDTH 23 0
BBX 21 23 1 0
BITMAP
007E00
03FFE0
0FC3F0
1F00F0
3E00F0
3E0060
7C0060
7C0000
FC0000
F80000
F80000
F80000
F807F8
FC07F8
FC01F0
7C01F0
7C01F0
7E01F0
3E01F0
1F01F0
0F81F0
07FFE0
01FF80
ENDCHAR
STARTCHAR 0048
ENCODING 72
SWIDTH 750 0
DWIDTH 25 0
BBX 24 23 1 0
BITMAP
FFC3FF
FFC3FE
7FC3FE
1F00F8
1F00F8
1F00F8
1F00F8
1F00F8
1F00F8
1F00F8
1FFFF8
1FFFF8
1FFCF8
1F00F8
1F00F8
1F00F8
1F00F8
1F00F8
1F00F8
1F00F8
3F01FC
7FC3FE
FFC3FF
ENDCHAR
STARTCHAR 0049
ENCODING 73
SWIDTH 360 0
DWIDTH 12 0
BBX 10 23 1 0
BITMAP
FFC0
FFC0
7FC0
1F00
1F00
1F00
1F00
1F00
1F00
1F00
1F00
1F00
1F00
1F00
1F00
1F00
1F00
1F00
1F00
1F00
3F00
7FC0
FFC0
ENDCHAR
STARTCHAR 004A
ENCODING 74
SWIDTH 360 0
DWIDTH 12 0
BBX 11 31 0 -8
BITMAP
7FE0
7FE0
3FC0
1F80
1F00
1F00
1F00
1F00
1F00
1F00
1F00
1F00
1F00
1F00
1F00
1F00
1F00
1F00
1F00
1F00
1F00
1F00
1F00
1F00
1F00
1E00
1E00
3C00
7800
F000
C000
ENDCHAR
STARTCHAR 004B
ENCODING 75
SWIDTH 720 0
DWIDTH 24 0
BBX 23 23 1 0
BITMAP
FFC7F8
FFC7F8
7FC3F0
1F01C0
1F0380
1F0700
1F0E00
1F1C00
1F3800
1F7000
1FF000
1FF800
1FFC00
1F7E00
1F3F00
1F3F00
1F1F80
1F0FC0
1F0FE0
1F07E0
3F03F8
7FC3FE
FFC1FC
ENDCHAR
STARTCHAR 004C
ENCODING 76
SWIDTH 600 0
DWIDTH 20 0
BBX 19 23 1 0
BITMAP
FFC000
FFC000
7FC000
1F0000
1F0000
1F0000
1F0000
1F0000
1F0000
1F0000
1F0000
1F0000
1F0000
1F0000
1F0000
1F0000
1F0000
1F00E0
1F01C0
1F01C0
3F87C0
7FFFC0
FFFFC0
ENDCHAR
STARTCHAR 004D
ENCODING 77
SWIDTH 960 0
DWIDTH 32 0
BBX 30 23 1 0
BITMAP
7F8003F8
7F8007F8
3F8007F0
0FC007E0
0FC00FE0
0FE00FE0
0FE01FE0
1FF01BE0
1DF01BE0
1DF03BE0
19F833E0
18F833E0
18FC63E0
187C63E0
187EE3F0
183EC1F0
183FC1F0
181F81F0
381F81F0
381F81F0
780F03F8
FE0F07FC
FE0607FC
ENDCHAR
STARTCHAR 004E
ENCODING 78
SWIDTH 720 0
DWIDTH 24 0
BBX 22 23 1 0
BITMAP
FE01FC
FF01FC
7F00F8
1F8070
1FC070
1FC030
1FE030
1BF030
1BF830
19F830
18FC30
187E30
187F30
183F30
181FB0
180FF0
180FF0
1807F0
1803F0
3801F0
3C01F0
FF00F0
FF0070
ENDCHAR
STARTCHAR 004F
ENCODING 79
SWIDTH 720 0
DWIDTH 24 0
BBX 23 23 1 0
BITMAP
007C00
03FF80
0F8FE0
1F03F0
3E01F8
3C00F8
7C00FC
7C007C
FC007C
F8007E
F8007E
F8007E
F8007E
FC007E
FC007C
7C007C
7C007C
7E0078
3E00F8
1F01F0
0F83E0
07FFC0
01FF00
ENDCHAR
STARTCHAR 0050
ENCODING 80
SWIDTH 630 0
DWIDTH 21 0
BBX 19 23 1 0
BITMAP
FFF800
FFFF00
7FBF80
1F0FC0
1F07E0
1F03E0
1F03E0
1F03E0
1F03E0
1F03E0
1F03E0
1F07C0
1F0F80
1F7F00
1F7E00
1F0000
1F0000
1F0000
1F0000
1F0000
3F8000
FFE000
FFE000
ENDCHAR
STARTCHAR 0051
ENCODING 81
SWIDTH 720 0
DWIDTH 24 0
BBX 25 30 1 -7
BITMAP
007C0000
03FF8000
0F8FE000
1F03F000
3E01F800
3C00F800
7C00FC00
7C007C00
FC007C00
F8007E00
F8007E00
F8007E00
F8007E00
FC007E00
FC007C00
7C007C00
7C007C00
7E007800
3E00F800
1F01F000
0F83E000
07FFC000
01FF0000
000FC000
0003F000
0001F800
0000FF80
00007F80
00007E00
00001000
ENDCHAR
STARTCHAR 0052
ENCODING 82
SWIDTH 690 0
DWIDTH 23 0
BBX 22 23 1 0
BITMAP
FFF800
FFFF80
7F9FC0
1F07E0
1F03E0
1F03E0
1F03E0
1F03E0
1F03E0
1F07E0
1F0FC0
1FFF80
1FFE00
1FFE00
1F3F00
1F1F80
1F0F80
1F0FC0
1F07C0
1F07E0
3F03F0
7FC3FC
FFC1FC
ENDCHAR
STARTCHAR 0053
ENCODING 83
SWIDTH 540 0
DWIDTH 18 0
BBX 15 23 2 0
BITMAP
07E0
3FFC
7C7C
703C
F03C
F01C
F81C
FC00
FE00
7F80
7FE0
3FF8
1FFC
07FE
01FE
007E
E03E
E01E
E01E
F01E
F83C
FFF8
3FF0
ENDCHAR
STARTCHAR 0054
ENCODING 84
SWIDTH 630 0
DWIDTH 21 0
BBX 20 23 1 0
BITMAP
7FFFE0
FFFFE0
FDF3F0
F1F0F0
E1F070
E1F070
C1F040
01F000
01F000
01F000
01F000
01F000
01F000
01F000
01F000
01F000
01F000
01F000
01F000
01F800
01F800
0FFE00
0FFF00
ENDCHAR
STARTCHAR 0055
ENCODING 85
SWIDTH 660 0
DWIDTH 22 0
BBX 21 23 1 0
BITMAP
FFC3F8
FFC3F8
7F83F0
3F00E0
3E00E0
3E00C0
3E00C0
3E00C0
3E00C0
3E00C0
3E00C0
3E00C0
3E00C0
3E00C0
3E00C0
3E00C0
3E00C0
3F00C0
1F00C0
1F01C0
1FC380
0FFF00
03FE00
ENDCHAR
STARTCHAR 0056
ENCODING 86
SWIDTH 690 0
DWIDTH 23 0
BBX 22 23 1 0
BITMAP
FF81FC
FF81FC
FF80F8
7E0070
3E0060
3F00E0
1F00C0
1F80C0
0F81C0
0F8180
0FC180
07C300
07E300
03E700
03E600
03F600
01FC00
01FC00
00FC00
00F800
00F800
007000
007000
ENDCHAR
STARTCHAR 0057
ENCODING 87
SWIDTH 990 0
DWIDTH 33 0
BBX 32 23 1 0
BITMAP
FF80C0FF
FF81C07E
FF81E07E
7E01E01C
3E03F018
3E03F018
3F03F018
1F07F830
1F06F830
1F86F830
0F8CFC60
0F8C7C60
0FCC7E60
07D87EE0
07D83EC0
07F83FC0
03F01FC0
03F01F80
03F01F80
03E00F80
01E00F00
01E00F00
01C00700
ENDCHAR
STARTCHAR 0058
ENCODING 88
SWIDTH 690 0
DWIDTH 23 0
BBX 21 23 1 0
BITMAP
FFC3F8
FFC3F8
7FC3F0
3F81E0
1F81C0
0FC380
07E300
07E700
03FE00
03FC00
01FC00
00FC00
00FC00
01FE00
01BF00
03BF00
071F80
061F80
0E0FC0
1C0FE0
7C07F0
FF1FF8
FF1FF8
ENDCHAR
STARTCHAR 0059
ENCODING 89
SWIDTH 630 0
DWIDTH 21 0
BBX 19 23 1 0
BITMAP
FF87E0
FF87E0
FF03E0
3F01C0
3F0180
1F0300
1F8300
0F8700
0FC600
07CE00
07EC00
03EC00
03F800
01F800
01F000
01F000
01F000
01F000
01F000
01F000
03F800
0FFE00
0FFE00
ENDCHAR
STARTCHAR 005A
ENCODING 90
SWIDTH 600 0
DWIDTH 20 0
BBX 18 23 1 0
BITMAP
3FFF80
3FFF80
3E1F80
381F80
783F00
703E00
707E00
00FC00
00FC00
01F800
01F800
03F000
03F000
07E000
0FC000
0FC000
1F8000
1F81C0
3F0380
3E0380
7E0780
FFFF80
7FFF80
ENDCHAR
STARTCHAR 005B
ENCODING 91
SWIDTH 270 0
DWIDTH 9 0
BBX 7 34 1 -9
BITMAP
FE
FE
FC
F0
F0
F0
F0
F0
F0
F0
F0
F0
F0
F0
F0
F0
F0
F0
F0
F0
F0
F0
F0
F0
F0
F0
F0
F0
F0
F0
F0
F8
FE
FE
ENDCHAR
STARTCHAR 005C
ENCODING 92
SWIDTH 390 0
DWIDTH 13 0
BBX 11 24 1 0
BITMAP
C000
E000
6000
6000
7000
3000
3800
1800
1800
1C00
0C00
0C00
0E00
0600
0700
0300
0300
0380
0180
0180
01C0
00C0
00E0
00E0
ENDCHAR
STARTCHAR 005D
ENCODING 93
SWIDTH 270 0
DWIDTH 9 0
BBX 8 34 1 -9
BITMAP
7F
FF
3F
0F
0F
0F
0F
0F
0F
0F
0F
0F
0F
0F
0F
0F
0F
0F
0F
0F
0F
0F
0F
0F
0F
0F
0F
0F
0F
0F
0F
1F
FF
FF
ENDCHAR
STARTCHAR 005E
ENCODING 94
SWIDTH 540 0
DWIDTH 18 0
BBX 16 10 1 12
BITMAP
01C0
03C0
07E0
0E70
1C30
1818
381C
700E
E006
4007
ENDCHAR
STARTCHAR 005F
ENCODING 95
SWIDTH 540 0
DWIDTH 18 0
BBX 16 2 1 -5
BITMAP
FFFF
FFFF
ENDCHAR
STARTCHAR 0060
ENCODING 96
SWIDTH 300 0
DWIDTH 10 0
BBX 6 6 2 18
BITMAP
70
F0
78
38
1C
1C
ENDCHAR
STARTCHAR 0061
ENCODING 97
SWIDTH 480 0
DWIDTH 16 0
BBX 16 16 1 0
BITMAP
0180
0FF0
1FF8
78F8
F8F8
F8F8
F8F8
03F8
0FF8
3CF8
78F8
F8F8
F8FC
F8FF
FFFF
7E7C
ENDCHAR
STARTCHAR 0062
ENCODING 98
SWIDTH 600 0
DWIDTH 20 0
BBX 19 24 0 0
BITMAP
060000
FE0000
FE0000
3E0000
3E0000
1E0000
1E0000
1E0000
1E1800
1E7F00
1EFF80
1F8FC0
1E07C0
1E07E0
1E03E0
1E03E0
1E03E0
1E03E0
1E03C0
1E07C0
3E0780
3F0F80
3FFF00
0FFC00
ENDCHAR
STARTCHAR 0063
ENCODING 99
SWIDTH 450 0
DWIDTH 15 0
BBX 14 16 1 0
BITMAP
0100
0FF8
1FF8
3C38
7838
7838
F800
F800
F800
F800
F800
7C00
7C00
3F1C
1FF8
0FF0
ENDCHAR
STARTCHAR 0064
ENCODING 100
SWIDTH 600 0
DWIDTH 20 0
BBX 18 24 1 0
BITMAP
000300
007F00
007F00
001F00
000F00
000F00
000F00
000F00
00CF00
07FF00
1FBF00
3E0F00
7C0F00
780F00
780F00
F80F00
F80F00
F80F00
F80F00
FC0F00
7E0F80
7F1FC0
3FFFC0
1FCE00
ENDCHAR
STARTCHAR 0065
ENCODING 101
SWIDTH 510 0
DWIDTH 17 0
BBX 15 16 1 0
BITMAP
0180
0FF0
3FF8
3C3C
783C
783E
F83E
FFFE
FFFC
F800
F800
7C00
7C00
3F1E
1FFC
0FF0
ENDCHAR
STARTCHAR 0066
ENCODING 102
SWIDTH 390 0
DWIDTH 13 0
BBX 14 24 1 0
BITMAP
00F8
03FC
0FBC
0F1C
1E1C
1E1C
1E00
1E00
1E00
FFE0
FFE0
1F80
1E00
1E00
1E00
1E00
1E00
1E00
1E00
1E00
3F00
3F80
FFE0
FFE0
ENDCHAR
STARTCHAR 0067
ENCODING 103
SWIDTH 540 0
DWIDTH 18 0
BBX 16 24 1 -8
BITMAP
0100
1FFF
3CFF
7C7C
783C
F83E
F83E
7C3C
7C7C
3FF8
1FF0
3800
7800
7FF0
7FFE
7FFF
3FFF
7FFF
F00F
F00F
F01E
F83C
7FF8
3FE0
ENDCHAR
STARTCHAR 0068
ENCODING 104
SWIDTH 630 0
DWIDTH 21 0
BBX 20 24 1 0
BITMAP
060000
FE0000
FE0000
3E0000
3E0000
3E0000
3E0000
3E0000
3E0000
3E7F00
3EFF80
3FFF80
3E0F80
3E07C0
3E07C0
3E07C0
3E07C0
3E07C0
3E07C0
3E07C0
3E07C0
3F0FC0
FF9FE0
FF9FF0
ENDCHAR
STARTCHAR 0069
ENCODING 105
SWIDTH 330 0
DWIDTH 11 0
BBX 10 23 1 0
BITMAP
1E00
3E00
3F00
3E00
1C00
0000
0000
0200
7E00
FE00
7E00
3E00
1E00
1E00
1E00
1E00
1E00
1E00
1E00
3E00
3F00
FFC0
FFC0
ENDCHAR
STARTCHAR 006A
ENCODING 106
SWIDTH 300 0
DWIDTH 10 0
BBX 7 31 1 -8
BITMAP
1E
3E
3E
3E
1C
00
00
00
7E
FE
FE
3E
1E
1E
1E
1E
1E
1E
1E
1E
1E
1E
1E
3E
3E
3C
3C
78
F0
E0
C0
ENDCHAR
STARTCHAR 006B
ENCODING 107
SWIDTH 600 0
DWIDTH 20 0
BBX 19 24 1 0
BITMAP
060000
FE0000
FE0000
3E0000
3E0000
3E0000
3E0000
3E0000
3E0000
3E1FE0
3E1FC0
3E0F00
3E1C00
3E3800
3E7000
3EF800
3EF800
3E7C00
3E7E00
3E3F00
3E1F80
3F0FC0
FF87E0
FF87E0
ENDCHAR
STARTCHAR 006C
ENCODING 108
SWIDTH 330 0
DWIDTH 11 0
BBX 9 24 1 0
BITMAP
0600
FE00
FE00
3E00
3E00
3E00
3E00
3E00
3E00
3E00
3E00
3E00
3E00
3E00
3E00
3E00
3E00
3E00
3E00
3E00
3E00
3F00
FF80
FF80
ENDCHAR
STARTCHAR 006D
ENCODING 109
SWIDTH 960 0
DWIDTH 32 0
BBX 30 16 1 0
BITMAP
00080000
7E7F0FC0
FEFF9FE0
7FFFFFF0
3E07C1F0
1E07C1F0
1E07C1F0
1E07C1F0
1E07C1F0
1E07C1F0
1E07C1F0
1E07C1F0
3E07C1F0
3F0FC1F8
FF9FF7FC
FFDFF7FC
ENDCHAR
STARTCHAR 006E
ENCODING 110
SWIDTH 630 0
DWIDTH 21 0
BBX 20 16 1 0
BITMAP
020000
7E7F00
FEFF80
7FFF80
3E07C0
1E07C0
1E07C0
1E07C0
1E07C0
1E07C0
1E07C0
1E07C0
3E07C0
3F07C0
FF9FF0
FFDFF0
ENDCHAR
STARTCHAR 006F
ENCODING 111
SWIDTH 570 0
DWIDTH 19 0
BBX 17 16 1 0
BITMAP
018000
0FF800
1FFE00
3C3E00
7C1F00
781F00
F80F80
F80F80
F80F80
F80F80
F80F80
7C0F00
7C1F00
3E1E00
1FFC00
0FF800
ENDCHAR
STARTCHAR 0070
ENCODING 112
SWIDTH 630 0
DWIDTH 21 0
BBX 19 24 1 -8
BITMAP
020800
7E7F00
FEFF80
7F8FC0
3E07C0
1E03E0
1E03E0
1E03E0
1E03E0
1E03E0
1E03C0
1E07C0
1E0780
1F0F80
1FFF00
1FFC00
1E0000
1E0000
1E0000
1E0000
3F0000
3F0000
FFE000
FFE000
ENDCHAR
STARTCHAR 0071
ENCODING 113
SWIDTH 570 0
DWIDTH 19 0
BBX 19 24 1 -8
BITMAP
00C000
07FE00
1FBF80
3E0F80
7C0F80
780F00
F80F00
F80F00
F80F00
F80F00
F80F00
F80F00
7C0F00
7F7F00
3FEF00
0F8F00
000F00
000F00
000F00
000F00
001F80
001F80
00FFE0
00FFE0
ENDCHAR
STARTCHAR 0072
ENCODING 114
SWIDTH 450 0
DWIDTH 15 0
BBX 14 16 1 0
BITMAP
0200
7E7C
FEFC
7EFC
3FBC
1E1C
1E18
1E00
1E00
1E00
1E00
1E00
3F00
3F80
FFE0
FFE0
ENDCHAR
STARTCHAR 0073
ENCODING 115
SWIDTH 450 0
DWIDTH 15 0
BBX 13 16 1 0
BITMAP
0600
3FF0
7DF0
7870
F870
FC20
7F00
7FC0
3FF0
0FF8
21F8
E0F8
E0F8
F0F8
FFF0
7FE0
ENDCHAR
STARTCHAR 0074
ENCODING 116
SWIDTH 360 0
DWIDTH 12 0
BBX 12 20 0 1
BITMAP
0700
1F00
1F00
1F00
1F00
7FF0
FFF0
3F00
1F00
1F00
1F00
1F00
1F00
1F00
1F00
1F00
1F00
1F00
0FF0
0FE0
ENDCHAR
STARTCHAR 0075
ENCODING 117
SWIDTH 600 0
DWIDTH 20 0
BBX 18 16 1 0
BITMAP
040100
FC3F00
FC7F80
FC1F80
7C0F80
3C0F80
3C0F80
3C0F80
3C0F80
3C0F80
3C0F80
3E0F80
3E0F80
3F8FC0
3FFFC0
1FCE00
ENDCHAR
STARTCHAR 0076
ENCODING 118
SWIDTH 540 0
DWIDTH 18 0
BBX 18 15 0 0
BITMAP
FFCFC0
7F8FC0
3F0700
1F0700
1F0600
0F8600
0F8C00
07CC00
07DC00
07D800
03F800
03F000
01F000
01E000
00E000
ENDCHAR
STARTCHAR 0077
ENCODING 119
SWIDTH 780 0
DWIDTH 26 0
BBX 26 15 0 0
BITMAP
FF870FC0
7F870FC0
3F0F8700
1F0F8700
1F0FC600
1F1FC600
0F9BC600
0FBBEC00
0FB3EC00
07F1FC00
07E1F800
07E0F800
03E0F800
03C0F000
03C07000
ENDCHAR
STARTCHAR 0078
ENCODING 120
SWIDTH 540 0
DWIDTH 18 0
BBX 17 15 1 0
BITMAP
FF9F80
FF9F00
3F0E00
1F9C00
0F9800
0FF800
07F000
07F000
07F800
0FF800
1CFC00
1C7E00
387F00
FCFF80
FCFF80
ENDCHAR
STARTCHAR 0079
ENCODING 121
SWIDTH 540 0
DWIDTH 18 0
BBX 18 23 0 -8
BITMAP
FFCFC0
7FCFC0
3F0780
1F0300
1F0700
0F8600
0F8E00
07CC00
07CC00
03F800
03F800
01F800
01F000
01F000
00E000
00E000
00C000
00C000
01C000
7F8000
7F8000
7F0000
3E0000
ENDCHAR
STARTCHAR 007A
ENCODING 122
SWIDTH 510 0
DWIDTH 17 0
BBX 15 15 1 0
BITMAP
7FFC
7FFC
70FC
71F8
71F0
03F0
07E0
07C0
0FC0
1F8E
3F0E
3E0E
7E1E
FFFE
7FFE
ENDCHAR
STARTCHAR 007B
ENCODING 123
SWIDTH 360 0
DWIDTH 12 0
BBX 10 34 1 -9
BITMAP
00C0
03C0
0700
0F00
1E00
1E00
1E00
1E00
1E00
1F00
1F00
0F00
1F00
1F00
1E00
3E00
F800
FC00
3E00
1E00
1F00
1F00
1F00
1F00
1F00
1E00
1E00
1E00
1E00
0E00
0F00
0700
03C0
01C0
ENDCHAR
STARTCHAR 007C
ENCODING 124
SWIDTH 180 0
DWIDTH 6 0
BBX 2 32 2 -8
BITMAP
40
C0
C0
C0
C0
C0
C0
C0
C0
C0
C0
C0
C0
C0
C0
C0
C0
C0
C0
C0
C0
C0
C0
C0
C0
C0
C0
C0
C0
C0
C0
C0
ENDCHAR
STARTCHAR 007D
ENCODING 125
SWIDTH 360 0
DWIDTH 12 0
BBX 10 34 1 -9
BITMAP
6000
7800
3C00
1E00
1E00
1E00
1E00
1E00
1E00
1E00
1E00
1E00
1E00
1E00
1F00
0F80
03C0
07C0
0F80
1F00
1E00
1E00
1E00
1E00
1E00
1E00
1E00
1E00
1E00
1E00
1E00
3C00
F800
E000
ENDCHAR
STARTCHAR 007E
ENCODING 126
SWIDTH 540 0
DWIDTH 18 0
BBX 15 5 2 6
BITMAP
3E04
7F8E
FFFC
C1F8
8070
ENDCHAR
STARTCHAR 00A0
ENCODING 160
SWIDTH 180 0
DWIDTH 6 0
BBX 0 0 0 0
BITMAP
ENDCHAR
STARTCHAR 00A1
ENCODING 161
SWIDTH 390 0
DWIDTH 13 0
BBX 6 24 4 -9
BITMAP
20
78
F8
F8
F8
30
00
00
00
70
70
70
70
70
78
78
78
78
78
78
78
F8
FC
F8
ENDCHAR
STARTCHAR 00A2
ENCODING 162
SWIDTH 450 0
DWIDTH 15 0
BBX 14 25 1 -5
BITMAP
0180
0180
0180
0180
0180
0FF8
1FF8
3DB8
79B8
79B8
F980
F980
F980
F980
F980
7D80
7D80
3F9C
1FF8
0FF0
0180
0180
0180
0180
0180
ENDCHAR
STARTCHAR 00A3
ENCODING 163
SWIDTH 570 0
DWIDTH 19 0
BBX 16 23 2 0
BITMAP
03F0
1FFC
3E7C
3C1C
7C1C
7C1C
7C00
7C00
7E00
7E00
3F00
FFF0
FFF0
1F00
1F00
1E00
1E00
1CE2
3FFF
3FFF
7FFE
FBFC
C03C
ENDCHAR
STARTCHAR 00A4
ENCODING 164
SWIDTH 540 0
DWIDTH 18 0
BBX 14 13 2 2
BITMAP
C00C
6FF8
3CF0
3030
7038
6018
6018
7018
3018
3830
3EF8
7FDC
E00C
ENDCHAR
STARTCHAR 00A5
ENCODING 165
SWIDTH 630 0
DWIDTH 21 0
BBX 19 23 1 0
BITMAP
FF87E0
FF87E0
FF03E0
3F01C0
3F0180
1F0300
1F8300
0F8700
0FC600
07CE00
1FEF80
3FEF80
03F800
01F800
01F000
3FFF80
3FFF80
01F000
01F000
01F000
03F800
0FFE00
0FFE00
ENDCHAR
STARTCHAR 00A6
ENCODING 166
SWIDTH 180 0
DWIDTH 6 0
BBX 2 32 2 -8
BITMAP
40
C0
C0
C0
C0
C0
C0
C0
C0
C0
C0
C0
C0
00
00
00
00
00
C0
C0
C0
C0
C0
C0
C0
C0
C0
C0
C0
C0
C0
C0
ENDCHAR
STARTCHAR 00A7
ENCODING 167
SWIDTH 570 0
DWIDTH 19 0
BBX 16 32 1 -8
BITMAP
03E0
0FF8
1E78
1C38
3C18
3C18
3E00
3F00
1FC0
1FF0
0FFC
1FFE
3DFE
787F
701F
700F
F80F
7C0F
7E0E
7F9E
3FFC
1FF0
0FF8
03F8
00FC
007C
183C
181C
1C1C
1E38
1FF8
0FE0
ENDCHAR
STARTCHAR 00A8
ENCODING 168
SWIDTH 300 0
DWIDTH 10 0
BBX 12 5 -1 17
BITMAP
70E0
F9F0
F9F0
F9F0
6060
ENDCHAR
STARTCHAR 00A9
ENCODING 169
SWIDTH 780 0
DWIDTH 26 0
BBX 23 23 2 -4
BITMAP
00FE00
07FF80
0F01E0
1C0070
387E38
31FF98
63C70C
67830C
C78306
C78006
C78006
C78006
C78006
C78006
C7C004
63C10C
63F78C
31FF18
383830
1C0070
0F83C0
03FF80
007C00
ENDCHAR
STARTCHAR 00AA
ENCODING 170
SWIDTH 420 0
DWIDTH 14 0
BBX 12 12 1 12
BITMAP
1F80
7FC0
71C0
71E0
01E0
1FE0
79E0
71E0
F1E0
F3F0
7FF0
3DC0
ENDCHAR
STARTCHAR 00AB
ENCODING 171
SWIDTH 480 0
DWIDTH 16 0
BBX 13 12 2 2
BITMAP
0410
0C38
1C70
38E0
F1E0
F1C0
F1E0
79E0
3CF0
1C78
0E30
0400
ENDCHAR
STARTCHAR 00AC
ENCODING 172
SWIDTH 540 0
DWIDTH 18 0
BBX 15 8 2 4
BITMAP
FFFE
FFFE
0006
0006
0006
0006
0006
0006
ENDCHAR
STARTCHAR 00AD
ENCODING 173
SWIDTH 390 0
DWIDTH 13 0
BBX 10 3 2 7
BITMAP
FFC0
FFC0
FFC0
ENDCHAR
STARTCHAR 00AE
ENCODING 174
SWIDTH 510 0
DWIDTH 17 0
BBX 14 13 2 13
BITMAP
1FC0
3870
6038
4798
C4CC
C4CC
C58C
C70C
C48C
44D8
6038
3870
1FC0
ENDCHAR
STARTCHAR 00AF
ENCODING 175
SWIDTH 300 0
DWIDTH 10 0
BBX 12 2 -1 19
BITMAP
FFF0
FFF0
ENDCHAR
STARTCHAR 00B0
ENCODING 176
SWIDTH 390 0
DWIDTH 13 0
BBX 10 8 2 14
BITMAP
3F00
7780
E380
E1C0
E1C0
E180
7380
7F00
ENDCHAR
STARTCHAR 00B1
ENCODING 177
SWIDTH 540 0
DWIDTH 18 0
BBX 14 16 2 1
BITMAP
0100
0300
0300
0300
0300
7FF8
7FF8
7FF8
0300
0300
0300
0300
0000
FFFC
FFFC
FFFC
ENDCHAR
STARTCHAR 00B2
ENCODING 178
SWIDTH 360 0
DWIDTH 12 0
BBX 10 12 1 14
BITMAP
0C00
7F80
77C0
63C0
63C0
0380
0700
0E00
1CC0
3FC0
7FC0
FFC0
ENDCHAR
STARTCHAR 00B3
ENCODING 179
SWIDTH 360 0
DWIDTH 12 0
BBX 10 15 1 10
BITMAP
7FC0
7F80
7F80
6700
0600
0C00
1F80
1FC0
03C0
01C0
01C0
01C0
03C0
7F80
FF00
ENDCHAR
STARTCHAR 00B4
ENCODING 180
SWIDTH 300 0
DWIDTH 10 0
BBX 6 6 2 18
BITMAP
3C
78
70
70
E0
C0
ENDCHAR
STARTCHAR 00B5
ENCODING 181
SWIDTH 630 0
DWIDTH 21 0
BBX 19 23 1 -7
BITMAP
7E3F80
FE3F80
FE1F80
3E0F80
3E0F80
3E0F80
3E0F80
3E0F80
3E0F80
3E0F80
3E0F80
3E1F80
3FBFE0
3FF7E0
3FC780
3C0000
3C0000
3C0000
3C0000
3C0000
3E0000
3C0000
300000
ENDCHAR
STARTCHAR 00B6
ENCODING 182
SWIDTH 570 0
DWIDTH 19 0
BBX 18 31 1 -8
BITMAP
00FFC0
1FFFC0
3F6780
7C6700
786600
F86600
F86600
F86600
F86600
7C6600
7E6600
3FE600
0FE600
006600
006600
006600
006600
006600
006600
006600
006600
006600
006600
006600
006600
006600
006600
006600
006600
006600
006600
ENDCHAR
STARTCHAR 00B7
ENCODING 183
SWIDTH 270 0
DWIDTH 9 0
BBX 5 5 2 6
BITMAP
78
F8
F8
F8
70
ENDCHAR
STARTCHAR 00B8
ENCODING 184
SWIDTH 300 0
DWIDTH 10 0
BBX 6 9 2 -8
BITMAP
30
70
60
F8
78
1C
1C
78
F0
ENDCHAR
STARTCHAR 00B9
ENCODING 185
SWIDTH 330 0
DWIDTH 11 0
BBX 7 11 2 14
BITMAP
FE
FE
7C
38
38
38
38
38
7C
FE
FE
ENDCHAR
STARTCHAR 00BA
ENCODING 186
SWIDTH 420 0
DWIDTH 14 0
BBX 12 12 1 12
BITMAP
0F80
3FE0
79E0
70F0
F0F0
F0F0
F0F0
F0F0
F8F0
78E0
3FE0
1F80
ENDCHAR
STARTCHAR 00BB
ENCODING 187
SWIDTH 510 0
DWIDTH 17 0
BBX 13 11 2 2
BITMAP
4100
E180
71E0
78F0
3CF8
1C78
3C78
38F0
70E0
71C0
6180
ENDCHAR
STARTCHAR 00BC
ENCODING 188
SWIDTH 870 0
DWIDTH 29 0
BBX 27 24 1 0
BITMAP
0F000200
FF000700
FF000E00
1F000C00
0F001C00
0F003800
0F007000
0F006000
0F00E000
0F01C380
0F038780
1F038F80
1F071F80
7FCE1F80
7FCC3780
001C6780
0038C780
0071FFE0
0061FFE0
00E1FFE0
01C00780
03800780
03001FC0
07003FC0
ENDCHAR
STARTCHAR 00BD
ENCODING 189
SWIDTH 960 0
DWIDTH 32 0
BBX 31 24 1 0
BITMAP
0F000200
FF000700
FF000E00
1F000C00
0F001C00
0F003800
0F007000
0F006000
0F00E000
0F01C7F0
0F038FFC
1F038E7C
1F070C3C
7FCE0C3C
7FCC047C
001C0078
003800F0
007001E0
006003CE
00E0078E
01C00FFE
03801FFE
03001FFE
07000FFE
ENDCHAR
STARTCHAR 00BE
ENCODING 190
SWIDTH 840 0
DWIDTH 28 0
BBX 26 24 1 0
BITMAP
FFC00600
FFC00600
FF800E00
F3001C00
C7003800
0E003000
1F007000
1FC0E000
1FC1C000
03E1C700
03E38F00
03C70F00
87C61F00
FF8E3F00
7E1C6F00
0038EF00
0030CF00
0071FFC0
00E3FFC0
01C1FFC0
01800F00
03800F00
07003FC0
06003FC0
ENDCHAR
STARTCHAR 00BF
ENCODING 191
SWIDTH 510 0
DWIDTH 17 0
BBX 12 25 2 -9
BITMAP
0200
0F80
1F80
1F80
0F80
0F00
0000
0000
0700
0700
0780
0780
0780
0F80
0F00
1F00
3E00
7C00
7860
F870
F870
F870
7FF0
3FE0
0E00
ENDCHAR
STARTCHAR 00C0
ENCODING 192
SWIDTH 690 0
DWIDTH 23 0
BBX 22 29 1 0
BITMAP
03C000
01E000
00E000
007000
000000
000000
007000
007000
007000
00F800
00F800
01FC00
01FC00
01FE00
033E00
033F00
071F00
061F00
061F80
0C0F80
0C0FC0
1FFFC0
1FFFE0
1803E0
3003F0
3003F0
7803F8
FC07FC
FC07FC
ENDCHAR
STARTCHAR 00C1
ENCODING 193
SWIDTH 690 0
DWIDTH 23 0
BBX 22 29 1 0
BITMAP
003E00
003C00
003800
007000
000000
000000
007000
007000
007000
00F800
00F800
01FC00
01FC00
01FE00
033E00
033F00
071F00
061F00
061F80
0C0F80
0C0FC0
1FFFC0
1FFFE0
1803E0
3003F0
3003F0
7803F8
FC07FC
FC07FC
ENDCHAR
STARTCHAR 00C2
ENCODING 194
SWIDTH 690 0
DWIDTH 23 0
BBX 22 30 1 0
BITMAP
001000
007800
01FC00
03FE00
070F00
020200
000000
007000
007000
007000
00F800
00F800
01FC00
01FC00
01FE00
033E00
033F00
071F00
061F00
061F80
0C0F80
0C0FC0
1FFFC0
1FFFE0
1803E0
3003F0
3003F0
7803F8
FC07FC
FC07FC
ENDCHAR
STARTCHAR 00C3
ENCODING 195
SWIDTH 690 0
DWIDTH 23 0
BBX 22 29 1 0
BITMAP
01E100
07FF00
0FFF00
043E00
000000
000000
007000
007000
007000
00F800
00F800
01FC00
01FC00
01FE00
033E00
033F00
071F00
061F00
061F80
0C0F80
0C0FC0
1FFFC0
1FFFE0
1803E0
3003F0
3003F0
7803F8
FC07FC
FC07FC
ENDCHAR
STARTCHAR 00C4
ENCODING 196
SWIDTH 690 0
DWIDTH 23 0
BBX 22 29 1 0
BITMAP
070700
0F8F80
0F8F80
0F8F80
070700
000000
007000
007000
007000
00F800
00F800
01FC00
01FC00
01FE00
033E00
033F00
071F00
061F00
061F80
0C0F80
0C0FC0
1FFFC0
1FFFE0
1803E0
3003F0
3003F0
7803F8
FC07FC
FC07FC
ENDCHAR
STARTCHAR 00C5
ENCODING 197
SWIDTH 690 0
DWIDTH 23 0
BBX 22 30 1 0
BITMAP
002000
01FC00
018C00
018C00
01DC00
00F800
000000
007000
007000
007000
00F800
00F800
01FC00
01FC00
01FE00
033E00
033F00
071F00
061F00
061F80
0C0F80
0C0FC0
1FFFC0
1FFFE0
1803E0
3003F0
3003F0
7803F8
FC07FC
FC07FC
ENDCHAR
STARTCHAR 00C6
ENCODING 198
SWIDTH 930 0
DWIDTH 31 0
BBX 30 23 1 0
BITMAP
007FFFF0
007FFFF0
003FE3F0
001FE070
001BE030
001BE038
0033E020
0073E000
0063E000
00E3E180
00C3E180
01FFFF80
03FFFF80
03E3E380
0703E180
0603E180
0E03E000
0C03E01C
1C03E01C
3803F038
7C03F078
FE0FFFF8
FE0FFFF8
ENDCHAR
STARTCHAR 00C7
ENCODING 199
SWIDTH 630 0
DWIDTH 21 0
BBX 19 31 1 -8
BITMAP
007C00
03FFC0
0FC7E0
1F01E0
3E01E0
3C00C0
7C00C0
7C0000
FC0000
F80000
F80000
FC0000
F80000
FC0000
FC0000
7C0000
7E0000
7E0000
3F0000
1F8020
0FE3E0
07FFC0
01FF00
003000
006000
007800
007C00
001C00
001C00
007800
007000
ENDCHAR
STARTCHAR 00C8
ENCODING 200
SWIDTH 600 0
DWIDTH 20 0
BBX 19 29 1 0
BITMAP
078000
038000
01C000
01C000
008000
000000
FFFF80
FFFF80
7F1F80
1F0380
1F0180
1F01C0
1F0100
1F0000
1F0C00
1F0C00
1F1C00
1FFC00
1FFC00
1F0C00
1F0C00
1F0000
1F0000
1F00E0
1F00E0
1F01C0
3F83C0
7FFFC0
FFFFC0
ENDCHAR
STARTCHAR 00C9
ENCODING 201
SWIDTH 600 0
DWIDTH 20 0
BBX 19 29 1 0
BITMAP
007800
007000
00E000
00C000
004000
000000
FFFF80
FFFF80
7F1F80
1F0380
1F0180
1F01C0
1F0100
1F0000
1F0C00
1F0C00
1F1C00
1FFC00
1FFC00
1F0C00
1F0C00
1F0000
1F0000
1F00E0
1F00E0
1F01C0
3F83C0
7FFFC0
FFFFC0
ENDCHAR
STARTCHAR 00CA
ENCODING 202
SWIDTH 600 0
DWIDTH 20 0
BBX 19 30 1 0
BITMAP
004000
01E000
03F000
0FFC00
1E3E00
080800
000000
FFFF80
FFFF80
7F1F80
1F0380
1F0180
1F01C0
1F0100
1F0000
1F0C00
1F0C00
1F1C00
1FFC00
1FFC00
1F0C00
1F0C00
1F0000
1F0000
1F00E0
1F00E0
1F01C0
3F83C0
7FFFC0
FFFFC0
ENDCHAR
STARTCHAR 00CB
ENCODING 203
SWIDTH 600 0
DWIDTH 20 0
BBX 19 29 1 0
BITMAP
0E1C00
1F3E00
1F3E00
1F3E00
0E1C00
000000
FFFF80
FFFF80
7F1F80
1F0380
1F0180
1F01C0
1F0100
1F0000
1F0C00
1F0C00
1F1C00
1FFC00
1FFC00
1F0C00
1F0C00
1F0000
1F0000
1F00E0
1F00E0
1F01C0
3F83C0
7FFFC0
FFFFC0
ENDCHAR
STARTCHAR 00CC
ENCODING 204
SWIDTH 360 0
DWIDTH 12 0
BBX 10 29 1 0
BITMAP
7800
3C00
1C00
0E00
0000
0000
FFC0
FFC0
7FC0
1F00
1F00
1F00
1F00
1F00
1F00
1F00
1F00
1F00
1F00
1F00
1F00
1F00
1F00
1F00
1F00
1F00
3F00
7FC0
FFC0
ENDCHAR
STARTCHAR 00CD
ENCODING 205
SWIDTH 360 0
DWIDTH 12 0
BBX 10 29 1 0
BITMAP
0780
0700
0F00
0E00
0000
0000
FFC0
FFC0
7FC0
1F00
1F00
1F00
1F00
1F00
1F00
1F00
1F00
1F00
1F00
1F00
1F00
1F00
1F00
1F00
1F00
1F00
3F00
7FC0
FFC0
ENDCHAR
STARTCHAR 00CE
ENCODING 206
SWIDTH 360 0
DWIDTH 12 0
BBX 10 29 1 0
BITMAP
0E00
1F00
3F80
77C0
61C0
0000
FFC0
FFC0
7FC0
1F00
1F00
1F00
1F00
1F00
1F00
1F00
1F00
1F00
1F00
1F00
1F00
1F00
1F00
1F00
1F00
1F00
3F00
7FC0
FFC0
ENDCHAR
STARTCHAR 00CF
ENCODING 207
SWIDTH 360 0
DWIDTH 12 0
BBX 11 29 1 0
BITMAP
2080
F3E0
FBE0
FBE0
71C0
0000
FFC0
FFC0
7FC0
1F00
1F00
1F00
1F00
1F00
1F00
1F00
1F00
1F00
1F00
1F00
1F00
1F00
1F00
1F00
1F00
1F00
3F00
7FC0
FFC0
ENDCHAR
STARTCHAR 00D0
ENCODING 208
SWIDTH 720 0
DWIDTH 24 0
BBX 22 23 1 0
BITMAP
FFE000
FFFF80
7F9FE0
1F03F0
1F01F8
1F00F8
1F00FC
1F007C
1F007C
1F007C
1F007C
FFF07C
FFF07C
1F007C
1F007C
1F007C
1F0078
1F00F8
1F00F0
1F01F0
3F87C0
7FFF80
FFFC00
ENDCHAR
STARTCHAR 00D1
ENCODING 209
SWIDTH 720 0
DWIDTH 24 0
BBX 22 29 1 0
BITMAP
01E080
03FF80
07FF80
063F00
000000
000000
FE01FC
FF01FC
7F00F8
1F8070
1FC070
1FC030
1FE030
1BF030
1BF830
19F830
18FC30
187E30
187F30
183F30
181FB0
180FF0
180FF0
1807F0
1803F0
3801F0
3C01F0
FF00F0
FF0070
ENDCHAR
STARTCHAR 00D2
ENCODING 210
SWIDTH 720 0
DWIDTH 24 0
BBX 23 29 1 0
BITMAP
01E000
00F000
007000
003800
000000
000000
007C00
03FF80
0F8FE0
1F03F0
3E01F8
3C00F8
7C00FC
7C007C
FC007C
F8007E
F8007E
F8007E
F8007E
FC007E
FC007C
7C007C
7C007C
7E0078
3E00F8
1F01F0
0F83E0
07FFC0
01FF00
ENDCHAR
STARTCHAR 00D3
ENCODING 211
SWIDTH 720 0
DWIDTH 24 0
BBX 23 29 1 0
BITMAP
001E00
001E00
003C00
003800
000000
000000
007C00
03FF80
0F8FE0
1F03F0
3E01F8
3C00F8
7C00FC
7C007C
FC007C
F8007E
F8007E
F8007E
F8007E
FC007E
FC007C
7C007C
7C007C
7E0078
3E00F8
1F01F0
0F83E0
07FFC0
01FF00
ENDCHAR
STARTCHAR 00D4
ENCODING 212
SWIDTH 720 0
DWIDTH 24 0
BBX 23 30 1 0
BITMAP
000800
003C00
00FE00
01FF00
038780
030100
000000
007C00
03FF80
0F8FE0
1F03F0
3E01F8
3C00F8
7C00FC
7C007C
FC007C
F8007E
F8007E
F8007E
F8007E
FC007E
FC007C
7C007C
7C007C
7E0078
3E00F8
1F01F0
0F83E0
07FFC0
01FF00
ENDCHAR
STARTCHAR 00D5
ENCODING 213
SWIDTH 720 0
DWIDTH 24 0
BBX 23 29 1 0
BITMAP
00E080
03FF80
07FF80
021F00
000000
000000
007C00
03FF80
0F8FE0
1F03F0
3E01F8
3C00F8
7C00FC
7C007C
FC007C
F8007E
F8007E
F8007E
F8007E
FC007E
FC007C
7C007C
7C007C
7E0078
3E00F8
1F01F0
0F83E0
07FFC0
01FF00
ENDCHAR
STARTCHAR 00D6
ENCODING 214
SWIDTH 720 0
DWIDTH 24 0
BBX 23 29 1 0
BITMAP
038380
07C7C0
07C7C0
07C7C0
038380
000000
007C00
03FF80
0F8FE0
1F03F0
3E01F8
3C00F8
7C00FC
7C007C
FC007C
F8007E
F8007E
F8007E
F8007E
FC007E
FC007C
7C007C
7C007C
7E0078
3E00F8
1F01F0
0F83E0
07FFC0
01FF00
ENDCHAR
STARTCHAR 00D7
ENCODING 215
SWIDTH 540 0
DWIDTH 18 0
BBX 16 15 1 2
BITMAP
E007
700E
381C
1C38
0E70
07E0
03C0
01C0
03E0
0770
0E78
1C38
381C
700E
E007
ENDCHAR
STARTCHAR 00D8
ENCODING 216
SWIDTH 720 0
DWIDTH 24 0
BBX 23 24 1 -1
BITMAP
007C1C
03FFB8
0F8FF0
1F03F0
3E01F8
3C01F8
7C03FC
7C077C
FC0F7C
F80E7E
F81C7E
F8387E
F8787E
FC707E
FCE07C
7DC07C
7F807C
7F8078
3F00F8
1F01F0
1F83E0
3FFFC0
79FF00
700000
ENDCHAR
STARTCHAR 00D9
ENCODING 217
SWIDTH 660 0
DWIDTH 22 0
BBX 21 29 1 0
BITMAP
00F000
007000
007800
003800
000000
000000
FFC3F8
FFC3F8
7F83F0
3F00E0
3E00E0
3E00C0
3E00C0
3E00C0
3E00C0
3E00C0
3E00C0
3E00C0
3E00C0
3E00C0
3E00C0
3E00C0
3E00C0
3F00C0
1F00C0
1F01C0
1FC380
0FFF00
03FE00
ENDCHAR
STARTCHAR 00DA
ENCODING 218
SWIDTH 660 0
DWIDTH 22 0
BBX 21 29 1 0
BITMAP
000F00
001E00
001C00
003800
001000
000000
FFC3F8
FFC3F8
7F83F0
3F00E0
3E00E0
3E00C0
3E00C0
3E00C0
3E00C0
3E00C0
3E00C0
3E00C0
3E00C0
3E00C0
3E00C0
3E00C0
3E00C0
3F00C0
1F00C0
1F01C0
1FC380
0FFF00
03FE00
ENDCHAR
STARTCHAR 00DB
ENCODING 219
SWIDTH 660 0
DWIDTH 22 0
BBX 21 29 1 1
BITMAP
003C00
007E00
01FF00
03C780
010100
000000
FFC3F8
FFC3F8
7F83F0
3F00E0
3E00E0
3E00C0
3E00C0
3E00C0
3E00C0
3E00C0
3E00C0
3E00C0
3E00C0
3E00C0
3E00C0
3E00C0
3E00C0
3F00C0
1F00C0
1F01C0
1FC380
0FFF00
03FE00
ENDCHAR
STARTCHAR 00DC
ENCODING 220
SWIDTH 660 0
DWIDTH 22 0
BBX 21 29 1 0
BITMAP
018380
03C7C0
07E7C0
03C7C0
018380
000000
FFC3F8
FFC3F8
7F83F0
3F00E0
3E00E0
3E00C0
3E00C0
3E00C0
3E00C0
3E00C0
3E00C0
3E00C0
3E00C0
3E00C0
3E00C0
3E00C0
3E00C0
3F00C0
1F00C0
1F01C0
1FC380
0FFF00
03FE00
ENDCHAR
STARTCHAR 00DD
ENCODING 221
SWIDTH 630 0
DWIDTH 21 0
BBX 19 29 1 0
BITMAP
001E00
001C00
003800
003000
001000
000000
FF87E0
FF87E0
FF03E0
3F01C0
3F0180
1F0300
1F8300
0F8700
0FC600
07CE00
07EC00
03EC00
03F800
01F800
01F000
01F000
01F000
01F000
01F000
01F000
03F800
0FFE00
0FFE00
ENDCHAR
STARTCHAR 00DE
ENCODING 222
SWIDTH 630 0
DWIDTH 21 0
BBX 19 23 1 0
BITMAP
FFC000
FFC000
7FC000
1F0000
1F0000
1FFE00
1FFF80
1F0FC0
1F07E0
1F03E0
1F03E0
1F03E0
1F03E0
1F03E0
1F03C0
1F0FC0
1F7F00
1F7C00
1F0000
1F0000
3F8000
7FE000
FFE000
ENDCHAR
STARTCHAR 00DF
ENCODING 223
SWIDTH 660 0
DWIDTH 22 0
BBX 21 24 1 0
BITMAP
00FC00
03FF00
079F80
0F0780
1F07C0
1E0380
1E0380
1E0700
1E0E00
FE3C00
FE3C00
3E7C00
1E7E00
1E7F80
1E3FE0
1E1FF0
1E0FF0
1E03F8
1E01F8
1E70F8
1E70F0
3E70F0
FE7FE0
FE3F80
ENDCHAR
STARTCHAR 00E0
ENCODING 224
SWIDTH 540 0
DWIDTH 18 0
BBX 16 24 2 0
BITMAP
1C00
3C00
1E00
0E00
0700
0700
0000
0000
0180
0FF0
1FF8
38F8
78F8
F8FC
787C
01F8
0F78
3C78
7878
F878
F87C
FC7F
7FFF
3E7E
ENDCHAR
STARTCHAR 00E1
ENCODING 225
SWIDTH 540 0
DWIDTH 18 0
BBX 16 24 2 0
BITMAP
01E0
01E0
01C0
0380
0380
0700
0000
0000
0180
0FF0
1FF8
38F8
78F8
F8FC
787C
01F8
0F78
3C78
7878
F878
F87C
FC7F
7FFF
3E7E
ENDCHAR
STARTCHAR 00E2
ENCODING 226
SWIDTH 540 0
DWIDTH 18 0
BBX 16 24 2 0
BITMAP
0300
0780
0FC0
1FE0
78F0
7078
4010
0000
0180
0FF0
1FF8
38F8
78F8
F8FC
787C
01F8
0F78
3C78
7878
F878
F87C
FC7F
7FFF
3E7E
ENDCHAR
STARTCHAR 00E3
ENCODING 227
SWIDTH 540 0
DWIDTH 18 0
BBX 16 23 2 0
BITMAP
0800
3F38
7FF0
E7E0
01C0
0000
0000
0180
0FF0
1FF8
38F8
78F8
F8FC
787C
01F8
0F78
3C78
7878
F878
F87C
FC7F
7FFF
3E7E
ENDCHAR
STARTCHAR 00E4
ENCODING 228
SWIDTH 540 0
DWIDTH 18 0
BBX 16 22 2 0
BITMAP
7070
F8F8
F8F8
F8F8
3070
0000
0180
0FF0
1FF8
38F8
78F8
F8FC
787C
01F8
0F78
3C78
7878
F878
F87C
FC7F
7FFF
3E7E
ENDCHAR
STARTCHAR 00E5
ENCODING 229
SWIDTH 540 0
DWIDTH 18 0
BBX 16 24 2 0
BITMAP
0F80
1FC0
18E0
18E0
1CC0
1FC0
0600
0000
0180
0FF0
1FF8
38F8
78F8
F8FC
787C
01F8
0F78
3C78
7878
F878
F87C
FC7F
7FFF
3E7E
ENDCHAR
STARTCHAR 00E6
ENCODING 230
SWIDTH 720 0
DWIDTH 24 0
BBX 22 16 1 0
BITMAP
010080
3FEFF0
7DFEF8
78FC78
707C3C
70783C
00783C
07FFFC
1FFFF8
7C7800
787C00
F0FC00
F8FE00
FDFF3C
7F9FF8
3F07F0
ENDCHAR
STARTCHAR 00E7
ENCODING 231
SWIDTH 450 0
DWIDTH 15 0
BBX 14 24 1 -8
BITMAP
0100
0FF8
1FF8
3C38
7838
7838
F800
F800
F800
F800
F800
7C00
7C00
3F1C
1FF8
0FF0
0180
0300
03C0
03E0
00E0
00E0
03C0
0380
ENDCHAR
STARTCHAR 00E8
ENCODING 232
SWIDTH 510 0
DWIDTH 17 0
BBX 15 24 1 0
BITMAP
0E00
1F00
0F00
0780
0380
0180
0000
0000
0180
0FF0
3FF8
3C3C
783C
783E
F83E
FFFE
FFFC
F800
F800
7C00
7C00
3F1E
1FFC
0FF0
ENDCHAR
STARTCHAR 00E9
ENCODING 233
SWIDTH 510 0
DWIDTH 17 0
BBX 15 24 1 0
BITMAP
00F8
00F0
00E0
01C0
01C0
0180
0000
0000
0180
0FF0
3FF8
3C3C
783C
783E
F83E
FFFE
FFFC
F800
F800
7C00
7C00
3F1E
1FFC
0FF0
ENDCHAR
STARTCHAR 00EA
ENCODING 234
SWIDTH 510 0
DWIDTH 17 0
BBX 15 24 1 0
BITMAP
01C0
03C0
07E0
0FF0
1E78
381C
1008
0000
0180
0FF0
3FF8
3C3C
783C
783E
F83E
FFFE
FFFC
F800
F800
7C00
7C00
3F1E
1FFC
0FF0
ENDCHAR
STARTCHAR 00EB
ENCODING 235
SWIDTH 510 0
DWIDTH 17 0
BBX 15 22 1 0
BITMAP
3C38
3C7C
7E7C
3C7C
1838
0000
0180
0FF0
3FF8
3C3C
783C
783E
F83E
FFFE
FFFC
F800
F800
7C00
7C00
3F1E
1FFC
0FF0
ENDCHAR
STARTCHAR 00EC
ENCODING 236
SWIDTH 330 0
DWIDTH 11 0
BBX 10 24 1 0
BITMAP
7000
F800
7800
3800
1C00
0C00
0000
0000
0200
7E00
FE00
7E00
3E00
1E00
1E00
1E00
1E00
1E00
1E00
1E00
3E00
3F00
FFC0
FFC0
ENDCHAR
STARTCHAR 00ED
ENCODING 237
SWIDTH 330 0
DWIDTH 11 0
BBX 10 24 1 0
BITMAP
07C0
0780
0700
0E00
0E00
1C00
0000
0000
0200
7E00
FE00
7E00
3E00
1E00
1E00
1E00
1E00
1E00
1E00
1E00
3E00
3F00
FFC0
FFC0
ENDCHAR
STARTCHAR 00EE
ENCODING 238
SWIDTH 330 0
DWIDTH 11 0
BBX 10 24 1 0
BITMAP
0C00
1E00
3E00
7F00
E780
C3C0
4100
0000
0200
7E00
FE00
7E00
3E00
1E00
1E00
1E00
1E00
1E00
1E00
1E00
3E00
3F00
FFC0
FFC0
ENDCHAR
STARTCHAR 00EF
ENCODING 239
SWIDTH 330 0
DWIDTH 11 0
BBX 11 22 0 0
BITMAP
71C0
FBE0
FBE0
F9E0
70C0
0000
0100
3F00
7F00
3F00
1F00
0F00
0F00
0F00
0F00
0F00
0F00
0F00
1F00
1F80
7FE0
7FE0
ENDCHAR
STARTCHAR 00F0
ENCODING 240
SWIDTH 540 0
DWIDTH 18 0
BBX 17 24 1 0
BITMAP
038000
1FC000
1FEE00
07FF00
01F800
03FC00
07FE00
063E00
003F00
0FFF00
1FFF00
3C1F00
7C0F80
780F80
F80F80
F80F80
F80F80
F80F00
F80F00
781F00
7C1E00
7E3E00
3FFC00
0FF000
ENDCHAR
STARTCHAR 00F1
ENCODING 241
SWIDTH 630 0
DWIDTH 21 0
BBX 20 23 1 0
BITMAP
018000
07E300
0FFF00
0C7E00
081C00
000000
000000
020000
7E7F00
FEFF80
7FFF80
3E07C0
1E07C0
1E07C0
1E07C0
1E07C0
1E07C0
1E07C0
1E07C0
3E07C0
3F07C0
FF9FF0
FFDFF0
ENDCHAR
STARTCHAR 00F2
ENCODING 242
SWIDTH 570 0
DWIDTH 19 0
BBX 17 24 1 0
BITMAP
070000
0F0000
078000
038000
01C000
01C000
000000
000000
018000
0FF800
1FFE00
3C3E00
7C1F00
781F00
F80F80
F80F80
F80F80
F80F80
F80F80
7C0F00
7C1F00
3E1E00
1FFC00
0FF800
ENDCHAR
STARTCHAR 00F3
ENCODING 243
SWIDTH 570 0
DWIDTH 19 0
BBX 17 24 1 0
BITMAP
007800
007800
00F000
00E000
00C000
01C000
000000
000000
018000
0FF800
1FFE00
3C3E00
7C1F00
781F00
F80F80
F80F80
F80F80
F80F80
F80F80
7C0F00
7C1F00
3E1E00
1FFC00
0FF800
ENDCHAR
STARTCHAR 00F4
ENCODING 244
SWIDTH 570 0
DWIDTH 19 0
BBX 17 24 1 0
BITMAP
00C000
01E000
03F000
07F800
1E3C00
3C1E00
100000
000000
018000
0FF800
1FFE00
3C3E00
7C1F00
781F00
F80F80
F80F80
F80F80
F80F80
F80F80
7C0F00
7C1F00
3E1E00
1FFC00
0FF800
ENDCHAR
STARTCHAR 00F5
ENCODING 245
SWIDTH 570 0
DWIDTH 19 0
BBX 17 23 1 0
BITMAP
020000
1F8E00
3FFC00
39F800
007000
000000
000000
018000
0FF800
1FFE00
3C3E00
7C1F00
781F00
F80F80
F80F80
F80F80
F80F80
F80F80
7C0F00
7C1F00
3E1E00
1FFC00
0FF800
ENDCHAR
STARTCHAR 00F6
ENCODING 246
SWIDTH 570 0
DWIDTH 19 0
BBX 17 22 1 0
BITMAP
1C3C00
3E3E00
3E3E00
3E3C00
1C1800
000000
018000
0FF800
1FFE00
3C3E00
7C1F00
781F00
F80F80
F80F80
F80F80
F80F80
F80F80
7C0F00
7C1F00
3E1E00
1FFC00
0FF800
ENDCHAR
STARTCHAR 00F7
ENCODING 247
SWIDTH 540 0
DWIDTH 18 0
BBX 16 16 1 1
BITMAP
0080
03C0
03C0
03C0
01C0
0000
0000
FFFF
FFFF
0000
0000
0000
03C0
03C0
03C0
01C0
ENDCHAR
STARTCHAR 00F8
ENCODING 248
SWIDTH 570 0
DWIDTH 19 0
BBX 17 17 1 -1
BITMAP
01C380
0FFF00
1FFE00
3C3F00
7C3F00
787F80
F8FF80
F8EF80
F9CF80
FB8F80
FF0F80
7E0F00
7C1F00
3E1E00
7FFC00
7FF800
E00000
ENDCHAR
STARTCHAR 00F9
ENCODING 249
SWIDTH 600 0
DWIDTH 20 0
BBX 18 24 1 0
BITMAP
078000
078000
038000
03C000
01C000
00E000
000000
000000
040100
FC3F00
FC7F80
FC1F80
7C0F80
3C0F80
3C0F80
3C0F80
3C0F80
3C0F80
3C0F80
3E0F80
3E0F80
3F8FC0
3FFFC0
1FCE00
ENDCHAR
STARTCHAR 00FA
ENCODING 250
SWIDTH 600 0
DWIDTH 20 0
BBX 18 24 1 0
BITMAP
003C00
007800
007000
007000
00E000
00C000
000000
000000
040100
FC3F00
FC7F80
FC1F80
7C0F80
3C0F80
3C0F80
3C0F80
3C0F80
3C0F80
3C0F80
3E0F80
3E0F80
3F8FC0
3FFFC0
1FCE00
ENDCHAR
STARTCHAR 00FB
ENCODING 251
SWIDTH 600 0
DWIDTH 20 0
BBX 18 24 1 0
BITMAP
00E000
01F000
03F000
07F800
0F3C00
1C0F00
080400
000000
040100
FC3F00
FC7F80
FC1F80
7C0F80
3C0F80
3C0F80
3C0F80
3C0F80
3C0F80
3C0F80
3E0F80
3E0F80
3F8FC0
3FFFC0
1FCE00
ENDCHAR
STARTCHAR 00FC
ENCODING 252
SWIDTH 600 0
DWIDTH 20 0
BBX 18 22 1 0
BITMAP
0E1C00
1F3E00
1F3E00
1E3E00
0C0C00
000000
040100
FC3F00
FC7F80
FC1F80
7C0F80
3C0F80
3C0F80
3C0F80
3C0F80
3C0F80
3C0F80
3E0F80
3E0F80
3F8FC0
3FFFC0
1FCE00
ENDCHAR
STARTCHAR 00FD
ENCODING 253
SWIDTH 540 0
DWIDTH 18 0
BBX 18 32 0 -8
BITMAP
001F00
001E00
001C00
003800
003800
007000
000000
000000
000000
FFCFC0
7FCFC0
3F0780
1F0300
1F0700
0F8600
0F8E00
07CC00
07CC00
03F800
03F800
01F800
01F000
01F000
00E000
00E000
00C000
00C000
01C000
7F8000
7F8000
7F0000
3E0000
ENDCHAR
STARTCHAR 00FE
ENCODING 254
SWIDTH 600 0
DWIDTH 20 0
BBX 19 32 1 -8
BITMAP
060000
FE0000
FE0000
3E0000
3E0000
3E0000
3E0000
3E0000
3E0800
3E7F00
3FFF80
3F8FC0
3F07C0
3F07E0
3E03E0
3E03E0
3E03E0
3E03C0
3E03C0
3E07C0
3E0780
3E0F00
3FFE00
3FFC00
3E0000
3E0000
3E0000
3E0000
3E0000
3F0000
FFE000
FFE000
ENDCHAR
STARTCHAR 00FF
ENCODING 255
SWIDTH 540 0
DWIDTH 18 0
BBX 18 30 0 -8
BITMAP
070700
078F80
0F8F80
078F80
030700
000000
000000
FFCFC0
7FCFC0
3F0780
1F0300
1F0700
0F8600
0F8E00
07CC00
07CC00
03F800
03F800
01F800
01F000
01F000
00E000
00E000
00C000
00C000
01C000
7F8000
7F8000
7F0000
3E0000
ENDCHAR
STARTCHAR 0100
ENCODING 256
SWIDTH 690 0
DWIDTH 23 0
BBX 22 27 1 0
BITMAP
0FFF80
0FFF80
000000
000000
007000
007000
007000
00F800
00F800
01FC00
01FC00
01FE00
033E00
033F00
071F00
061F00
061F80
0C0F80
0C0FC0
1FFFC0
1FFFE0
1803E0
3003F0
3003F0
7803F8
FC07FC
FC07FC
ENDCHAR
STARTCHAR 0101
ENCODING 257
SWIDTH 540 0
DWIDTH 18 0
BBX 16 21 2 0
BITMAP
FFF8
FFF8
0000
0000
0000
0180
0FF0
1FF8
38F8
78F8
F8FC
787C
01F8
0F78
3C78
7878
F878
F87C
FC7F
7FFF
3E7E
ENDCHAR
STARTCHAR 0102
ENCODING 258
SWIDTH 690 0
DWIDTH 23 0
BBX 22 29 1 0
BITMAP
070300
078700
07FF00
03FE00
00F800
000000
007000
007000
007000
00F800
00F800
01FC00
01FC00
01FE00
033E00
033F00
071F00
061F00
061F80
0C0F80
0C0FC0
1FFFC0
1FFFE0
1803E0
3003F0
3003F0
7803F8
FC07FC
FC07FC
ENDCHAR
STARTCHAR 0103
ENCODING 259
SWIDTH 540 0
DWIDTH 18 0
BBX 16 24 2 0
BITMAP
2010
E038
F038
7FF0
7FF0
3FE0
0200
0000
0180
0FF0
1FF8
38F8
78F8
F8FC
787C
01F8
0F78
3C78
7878
F878
F87C
FC7F
7FFF
3E7E
ENDCHAR
STARTCHAR 0104
ENCODING 260
SWIDTH 690 0
DWIDTH 23 0
BBX 22 31 1 -8
BITMAP
007000
007000
007000
00F800
00F800
01FC00
01FC00
01FE00
033E00
033F00
071F00
061F00
061F80
0C0F80
0C0FC0
1FFFC0
1FFFE0
1803E0
3003F0
3003F0
7803F8
FC07FC
FC07FC
0001C0
000380
000700
000F00
000F80
000FF0
000FF0
0007C0
ENDCHAR
STARTCHAR 0105
ENCODING 261
SWIDTH 540 0
DWIDTH 18 0
BBX 16 24 2 -8
BITMAP
0180
0FF0
1FF8
38F8
78F8
F8FC
787C
01F8
0F78
3C78
7878
F878
F87C
FC7F
7FFF
3E7E
0030
00F0
00E0
01E0
01F0
01FE
00FE
00F8
ENDCHAR
STARTCHAR 0106
ENCODING 262
SWIDTH 630 0
DWIDTH 21 0
BBX 19 29 1 0
BITMAP
001F00
001E00
001C00
003800
000000
000000
007C00
03FFC0
0FC7E0
1F01E0
3E01E0
3C00C0
7C00C0
7C0000
FC0000
F80000
F80000
FC0000
F80000
FC0000
FC0000
7C0000
7E0000
7E0000
3F0000
1F8020
0FE3E0
07FFC0
01FF00
ENDCHAR
STARTCHAR 0107
ENCODING 263
SWIDTH 450 0
DWIDTH 15 0
BBX 14 24 1 0
BITMAP
00F8
00F0
00E0
01C0
01C0
0380
0000
0000
0100
0FF8
1FF8
3C38
7838
7838
F800
F800
F800
F800
F800
7C00
7C00
3F1C
1FF8
0FF0
ENDCHAR
STARTCHAR 0108
ENCODING 264
SWIDTH 630 0
DWIDTH 21 0
BBX 19 30 1 0
BITMAP
000800
003C00
00FE00
01FF00
038780
010100
000000
007C00
03FFC0
0FC7E0
1F01E0
3E01E0
3C00C0
7C00C0
7C0000
FC0000
F80000
F80000
FC0000
F80000
FC0000
FC0000
7C0000
7E0000
7E0000
3F0000
1F8020
0FE3E0
07FFC0
01FF00
ENDCHAR
STARTCHAR 0109
ENCODING 265
SWIDTH 450 0
DWIDTH 15 0
BBX 14 24 1 0
BITMAP
01C0
03C0
07E0
0FF0
1C78
381C
0008
0000
0100
0FF8
1FF8
3C38
7838
7838
F800
F800
F800
F800
F800
7C00
7C00
3F1C
1FF8
0FF0
ENDCHAR
STARTCHAR 010A
ENCODING 266
SWIDTH 630 0
DWIDTH 21 0
BBX 19 29 1 0
BITMAP
003800
007C00
007C00
007C00
007800
000000
007C00
03FFC0
0FC7E0
1F01E0
3E01E0
3C00C0
7C00C0
7C0000
FC0000
F80000
F80000
FC0000
F80000
FC0000
FC0000
7C0000
7E0000
7E0000
3F0000
1F8020
0FE3E0
07FFC0
01FF00
ENDCHAR
STARTCHAR 010B
ENCODING 267
SWIDTH 450 0
DWIDTH 15 0
BBX 14 22 1 0
BITMAP
03C0
07E0
07E0
07C0
0100
0000
0100
0FF8
1FF8
3C38
7838
7838
F800
F800
F800
F800
F800
7C00
7C00
3F1C
1FF8
0FF0
ENDCHAR
STARTCHAR 010C
ENCODING 268
SWIDTH 630 0
DWIDTH 21 0
BBX 19 30 1 0
BITMAP
010000
038380
03FF00
00FE00
007800
003000
000000
007C00
03FFC0
0FC7E0
1F01E0
3E01E0
3C00C0
7C00C0
7C0000
FC0000
F80000
F80000
FC0000
F80000
FC0000
FC0000
7C0000
7E0000
7E0000
3F0000
1F8020
0FE3E0
07FFC0
01FF00
ENDCHAR
STARTCHAR 010D
ENCODING 269
SWIDTH 450 0
DWIDTH 15 0
BBX 14 24 1 0
BITMAP
1008
381C
1E78
0FF0
07E0
07C0
0380
0000
0100
0FF8
1FF8
3C38
7838
7838
F800
F800
F800
F800
F800
7C00
7C00
3F1C
1FF8
0FF0
ENDCHAR
STARTCHAR 010E
ENCODING 270
SWIDTH 720 0
DWIDTH 24 0
BBX 22 29 1 1
BITMAP
078700
03FE00
01FC00
00F800
006000
000000
FFE000
FFFF80
7F9FE0
1F03F0
1F01F8
1F00F8
1F00FC
1F007C
1F007C
1F007C
1F007C
1F007C
1F007C
1F007C
1F007C
1F007C
1F0078
1F00F8
1F00F0
1F01F0
3F87C0
7FFF80
FFFC00
ENDCHAR
STARTCHAR 010F
ENCODING 271
SWIDTH 720 0
DWIDTH 24 0
BBX 23 24 1 0
BITMAP
00030E
007F3E
007F3E
001F3E
000F1E
000F0E
000F0C
000F1C
00CF18
07FF00
1FBF00
3E0F00
7C0F00
780F00
780F00
F80F00
F80F00
F80F00
F81F00
FC1F00
7C3F80
7F7FC0
3FEFC0
1FCF00
ENDCHAR
STARTCHAR 0110
ENCODING 272
SWIDTH 720 0
DWIDTH 24 0
BBX 22 23 1 0
BITMAP
FFE000
FFFF80
7F9FE0
1F03F0
1F01F8
1F00F8
1F00FC
1F007C
1F007C
1F007C
1F007C
FFF07C
FFF07C
1F007C
1F007C
1F007C
1F0078
1F00F8
1F00F0
1F01F0
3F87C0
7FFF80
FFFC00
ENDCHAR
STARTCHAR 0111
ENCODING 273
SWIDTH 600 0
DWIDTH 20 0
BBX 18 24 1 0
BITMAP
000300
007F00
007F00
001F00
000F00
00FFC0
00FFC0
000F00
00CF00
07FF00
1FBF00
3E0F00
7C0F00
780F00
780F00
F80F00
F80F00
F80F00
F80F00
FC0F00
7E0F80
7F1FC0
3FFFC0
1FCE00
ENDCHAR
STARTCHAR 0112
ENCODING 274
SWIDTH 600 0
DWIDTH 20 0
BBX 19 27 1 0
BITMAP
1FFE00
1FFE00
000000
000000
FFFF80
FFFF80
7F1F80
1F0380
1F0180
1F01C0
1F0100
1F0000
1F0C00
1F0C00
1F1C00
1FFC00
1FFC00
1F0C00
1F0C00
1F0000
1F0000
1F00E0
1F00E0
1F01C0
3F83C0
7FFFC0
FFFFC0
ENDCHAR
STARTCHAR 0113
ENCODING 275
SWIDTH 510 0
DWIDTH 17 0
BBX 15 21 1 0
BITMAP
3FFC
3FFC
0000
0000
0000
0180
0FF0
3FF8
3C3C
783C
783E
F83E
FFFE
FFFC
F800
F800
7C00
7C00
3F1E
1FFC
0FF0
ENDCHAR
STARTCHAR 0114
ENCODING 276
SWIDTH 600 0
DWIDTH 20 0
BBX 19 29 1 0
BITMAP
1C0E00
0E1C00
0FFC00
07F800
03F000
000000
FFFF80
FFFF80
7F1F80
1F0380
1F0180
1F01C0
1F0100
1F0000
1F0C00
1F0C00
1F1C00
1FFC00
1FFC00
1F0C00
1F0C00
1F0000
1F0000
1F00E0
1F00E0
1F01C0
3F83C0
7FFFC0
FFFFC0
ENDCHAR
STARTCHAR 0115
ENCODING 277
SWIDTH 510 0
DWIDTH 17 0
BBX 15 24 1 0
BITMAP
100C
300C
381C
3FFC
1FF8
0FF0
0180
0000
0180
0FF0
3FF8
3C3C
783C
783E
F83E
FFFE
FFFC
F800
F800
7C00
7C00
3F1E
1FFC
0FF0
ENDCHAR
STARTCHAR 0116
ENCODING 278
SWIDTH 600 0
DWIDTH 20 0
BBX 19 29 1 0
BITMAP
00C000
01F000
03F000
03F000
01E000
000000
FFFF80
FFFF80
7F1F80
1F0380
1F0180
1F01C0
1F0100
1F0000
1F0C00
1F0C00
1F1C00
1FFC00
1FFC00
1F0C00
1F0C00
1F0000
1F0000
1F00E0
1F00E0
1F01C0
3F83C0
7FFFC0
FFFFC0
ENDCHAR
STARTCHAR 0117
ENCODING 279
SWIDTH 510 0
DWIDTH 17 0
BBX 15 22 1 0
BITMAP
03C0
07E0
07E0
07C0
0100
0000
0180
0FF0
3FF8
3C3C
783C
783E
F83E
FFFE
FFFC
F800
F800
7C00
7C00
3F1E
1FFC
0FF0
ENDCHAR
STARTCHAR 0118
ENCODING 280
SWIDTH 600 0
DWIDTH 20 0
BBX 19 31 1 -8
BITMAP
FFFF80
FFFF80
7F1F80
1F0380
1F0180
1F01C0
1F0100
1F0000
1F0C00
1F0C00
1F1C00
1FFC00
1FFC00
1F0C00
1F0C00
1F0000
1F0000
1F00E0
1F00E0
1F01C0
3F83C0
7FFFC0
FFFFC0
000E00
003C00
007800
007800
007C00
007F80
007F80
003E00
ENDCHAR
STARTCHAR 0119
ENCODING 281
SWIDTH 510 0
DWIDTH 17 0
BBX 15 24 1 -8
BITMAP
0180
0FF0
3FF8
3C3C
783C
783E
F83E
FFFE
FFFC
F800
F800
7C00
7C00
3F1E
1FFC
0FF8
0060
00E0
01C0
03C0
03E0
03FC
01FC
00F0
ENDCHAR
STARTCHAR 011A
ENCODING 282
SWIDTH 600 0
DWIDTH 20 0
BBX 19 29 1 1
BITMAP
1E1C00
0FFC00
07F000
03E000
018000
000000
FFFF80
FFFF80
7F1F80
1F0380
1F0180
1F01C0
1F0100
1F0000
1F0C00
1F0C00
1F1C00
1FFC00
1FFC00
1F0C00
1F0C00
1F0000
1F0000
1F00E0
1F00E0
1F01C0
3F83C0
7FFFC0
FFFFC0
ENDCHAR
STARTCHAR 011B
ENCODING 283
SWIDTH 510 0
DWIDTH 17 0
BBX 15 24 1 0
BITMAP
1008
381C
1E78
0FF0
07E0
03C0
0380
0000
0180
0FF0
3FF8
3C3C
783C
783E
F83E
FFFE
FFFC
F800
F800
7C00
7C00
3F1E
1FFC
0FF0
ENDCHAR
STARTCHAR 011C
ENCODING 284
SWIDTH 690 0
DWIDTH 23 0
BBX 21 29 1 1
BITMAP
003C00
007E00
01FF00
03C780
010100
000000
007E00
03FFE0
0FC3F0
1F00F0
3E00F0
3E0060
7C0060
7C0000
FC0000
F80000
F80000
F80000
F807F8
FC07F8
FC01F0
7C01F0
7C01F0
7E01F0
3E01F0
1F01F0
0F81F0
07FFE0
01FF80
ENDCHAR
STARTCHAR 011D
ENCODING 285
SWIDTH 540 0
DWIDTH 18 0
BBX 16 32 1 -8
BITMAP
0180
03C0
07E0
0FF0
3C78
383C
2000
0000
0100
1FFF
3CFF
7C7C
783C
F83E
F83E
7C3C
7C7C
3FF8
1FF0
3800
7800
7FF0
7FFE
7FFF
3FFF
7FFF
F00F
F00F
F01E
F83C
7FF8
3FE0
ENDCHAR
STARTCHAR 011E
ENCODING 286
SWIDTH 690 0
DWIDTH 23 0
BBX 21 29 1 0
BITMAP
038180
03C380
01FF80
01FF00
007C00
000000
007E00
03FFE0
0FC3F0
1F00F0
3E00F0
3E0060
7C0060
7C0000
FC0000
F80000
F80000
F80000
F807F8
FC07F8
FC01F0
7C01F0
7C01F0
7E01F0
3E01F0
1F01F0
0F81F0
07FFE0
01FF80
ENDCHAR
STARTCHAR 011F
ENCODING 287
SWIDTH 540 0
DWIDTH 18 0
BBX 16 32 1 -8
BITMAP
3008
701C
7818
3FF8
3FF8
1FF0
0100
0000
0100
1FFF
3CFF
7C7C
783C
F83E
F83E
7C3C
7C7C
3FF8
1FF0
3800
7800
7FF0
7FFE
7FFF
3FFF
7FFF
F00F
F00F
F01E
F83C
7FF8
3FE0
ENDCHAR
STARTCHAR 0120
ENCODING 288
SWIDTH 690 0
DWIDTH 23 0
BBX 21 29 1 0
BITMAP
003800
007C00
007E00
007C00
003C00
000000
007E00
03FFE0
0FC3F0
1F00F0
3E00F0
3E0060
7C0060
7C0000
FC0000
F80000
F80000
F80000
F807F8
FC07F8
FC01F0
7C01F0
7C01F0
7E01F0
3E01F0
1F01F0
0F81F0
07FFE0
01FF80
ENDCHAR
STARTCHAR 0121
ENCODING 289
SWIDTH 540 0
DWIDTH 18 0
BBX 16 30 1 -8
BITMAP
07C0
07C0
07C0
07C0
0100
0000
0100
1FFF
3CFF
7C7C
783C
F83E
F83E
7C3C
7C7C
3FF8
1FF0
3800
7800
7FF0
7FFE
7FFF
3FFF
7FFF
F00F
F00F
F01E
F83C
7FF8
3FE0
ENDCHAR
STARTCHAR 0122
ENCODING 290
SWIDTH 690 0
DWIDTH 23 0
BBX 21 33 1 -10
BITMAP
007E00
03FFE0
0FC3F0
1F00F0
3E00F0
3E0060
7C0060
7C0000
FC0000
F80000
F80000
F80000
F807F8
FC07F8
FC01F0
7C01F0
7C01F0
7E01F0
3E01F0
1F01F0
0F81F0
07FFE0
01FF80
000000
000000
007C00
007C00
007C00
003C00
001C00
003800
003000
006000
ENDCHAR
STARTCHAR 0123
ENCODING 291
SWIDTH 540 0
DWIDTH 18 0
BBX 16 32 1 -8
BITMAP
0180
0380
0700
0780
07C0
07C0
0700
0000
0100
1FFF
3CFF
7C7C
783C
F83E
F83E
7C3C
7C7C
3FF8
1FF0
3800
7800
7FF0
7FFE
7FFF
3FFF
7FFF
F00F
F00F
F01E
F83C
7FF8
3FE0
ENDCHAR
STARTCHAR 0124
ENCODING 292
SWIDTH 750 0
DWIDTH 25 0
BBX 24 30 1 0
BITMAP
000800
003C00
007E00
01FF80
03C7C0
010100
000000
FFC3FF
FFC3FE
7FC3FE
1F00F8
1F00F8
1F00F8
1F00F8
1F00F8
1F00F8
1F00F8
1FFFF8
1FFFF8
1FFCF8
1F00F8
1F00F8
1F00F8
1F00F8
1F00F8
1F00F8
1F00F8
3F01FC
7FC3FE
FFC3FF
ENDCHAR
STARTCHAR 0125
ENCODING 293
SWIDTH 630 0
DWIDTH 21 0
BBX 20 30 1 0
BITMAP
004000
01E000
03F000
0FFC00
1E1E00
080800
060000
FE0000
FE0000
3E0000
3E0000
3E0000
3E0000
3E0000
3E0000
3E7F00
3EFF80
3FFF80
3E0F80
3E07C0
3E07C0
3E07C0
3E07C0
3E07C0
3E07C0
3E07C0
3E07C0
3F0FC0
FF9FE0
FF9FF0
ENDCHAR
STARTCHAR 0126
ENCODING 294
SWIDTH 750 0
DWIDTH 25 0
BBX 24 23 1 0
BITMAP
FFC3FF
FFC3FE
7FC3FE
1F00F8
1F00F8
1F00F8
7FFFFE
7FFFFE
1F00F8
1F00F8
1FFFF8
1FFFF8
1FFCF8
1F00F8
1F00F8
1F00F8
1F00F8
1F00F8
1F00F8
1F00F8
3F01FC
7FC3FE
FFC3FF
ENDCHAR
STARTCHAR 0127
ENCODING 295
SWIDTH 630 0
DWIDTH 21 0
BBX 21 24 0 0
BITMAP
030000
7F0000
7F0000
1F0000
1F0000
1F0000
FFE000
FFE000
1F0000
1F3F80
1F7FC0
1FFFC0
1F07C0
1F03E0
1F03E0
1F03E0
1F03E0
1F03E0
1F03E0
1F03E0
1F03E0
1F87E0
7FCFF0
7FCFF8
ENDCHAR
STARTCHAR 0128
ENCODING 296
SWIDTH 360 0
DWIDTH 12 0
BBX 11 29 1 0
BITMAP
1840
7FE0
FFC0
EFC0
0300
0000
FFC0
FFC0
7FC0
1F00
1F00
1F00
1F00
1F00
1F00
1F00
1F00
1F00
1F00
1F00
1F00
1F00
1F00
1F00
1F00
1F00
3F00
7FC0
FFC0
ENDCHAR
STARTCHAR 0129
ENCODING 297
SWIDTH 330 0
DWIDTH 11 0
BBX 11 22 0 0
BITMAP
3E20
7FE0
FFE0
E7C0
0180
0000
0100
3F00
7F00
3F00
1F00
0F00
0F00
0F00
0F00
0F00
0F00
0F00
1F00
1F80
7FE0
7FE0
ENDCHAR
STARTCHAR 012A
ENCODING 298
SWIDTH 360 0
DWIDTH 12 0
BBX 11 27 1 0
BITMAP
FFE0
FFC0
0000
0000
FFC0
FFC0
7FC0
1F00
1F00
1F00
1F00
1F00
1F00
1F00
1F00
1F00
1F00
1F00
1F00
1F00
1F00
1F00
1F00
1F00
3F00
7FC0
FFC0
ENDCHAR
STARTCHAR 012B
ENCODING 299
SWIDTH 330 0
DWIDTH 11 0
BBX 10 21 1 0
BITMAP
FF80
FF80
0000
0000
0000
0200
7E00
FE00
7E00
3E00
1E00
1E00
1E00
1E00
1E00
1E00
1E00
3E00
3F00
FFC0
FFC0
ENDCHAR
STARTCHAR 012C
ENCODING 300
SWIDTH 360 0
DWIDTH 12 0
BBX 10 29 1 0
BITMAP
C040
E0C0
7FC0
7FC0
3F00
0000
FFC0
FFC0
7FC0
1F00
1F00
1F00
1F00
1F00
1F00
1F00
1F00
1F00
1F00
1F00
1F00
1F00
1F00
1F00
1F00
1F00
3F00
7FC0
FFC0
ENDCHAR
STARTCHAR 012D
ENCODING 301
SWIDTH 330 0
DWIDTH 11 0
BBX 11 24 0 0
BITMAP
2060
E060
F0E0
7FE0
7FC0
3F80
0400
0000
0100
3F00
7F00
3F00
1F00
0F00
0F00
0F00
0F00
0F00
0F00
0F00
1F00
1F80
7FE0
7FE0
ENDCHAR
STARTCHAR 012E
ENCODING 302
SWIDTH 360 0
DWIDTH 12 0
BBX 10 31 1 -8
BITMAP
FFC0
FFC0
7FC0
1F00
1F00
1F00
1F00
1F00
1F00
1F00
1F00
1F00
1F00
1F00
1F00
1F00
1F00
1F00
1F00
1F00
3F00
7FC0
FFC0
0E00
3C00
3800
7800
7C00
7F80
7F80
3E00
ENDCHAR
STARTCHAR 012F
ENCODING 303
SWIDTH 330 0
DWIDTH 11 0
BBX 10 31 1 -8
BITMAP
1E00
3E00
3F00
3E00
1C00
0000
0000
0200
7E00
FE00
7E00
3E00
1E00
1E00
1E00
1E00
1E00
1E00
1E00
3E00
3F00
FFC0
FFC0
1C00
3800
7800
7800
7C00
7F80
7F80
3E00
ENDCHAR
STARTCHAR 0130
ENCODING 304
SWIDTH 360 0
DWIDTH 12 0
BBX 10 29 1 0
BITMAP
0E00
1F00
1F00
1F00
1E00
0000
FFC0
FFC0
7FC0
1F00
1F00
1F00
1F00
1F00
1F00
1F00
1F00
1F00
1F00
1F00
1F00
1F00
1F00
1F00
1F00
1F00
3F00
7FC0
FFC0
ENDCHAR
STARTCHAR 0131
ENCODING 305
SWIDTH 330 0
DWIDTH 11 0
BBX 10 16 1 0
BITMAP
0200
7E00
FE00
7E00
3E00
1E00
1E00
1E00
1E00
1E00
1E00
1E00
3E00
3F00
FFC0
FFC0
ENDCHAR
STARTCHAR 0132
ENCODING 306
SWIDTH 690 0
DWIDTH 23 0
BBX 21 31 1 -8
BITMAP
FFDFF8
FFDFF8
7FCFF0
1F07E0
1F07C0
1F07C0
1F07C0
1F07C0
1F07C0
1F07C0
1F07C0
1F07C0
1F07C0
1F07C0
1F07C0
1F07C0
1F07C0
1F07C0
1F07C0
1F07C0
3F07C0
7FC7C0
FFC7C0
0007C0
0007C0
000780
000F80
000F00
001E00
003C00
003000
ENDCHAR
STARTCHAR 0133
ENCODING 307
SWIDTH 570 0
DWIDTH 19 0
BBX 17 31 1 -8
BITMAP
1E0F00
3E0F80
3F1F80
3E0F80
1C0700
000000
000000
020000
7E3F80
FE3F80
7E3F80
3E0F80
1E0F80
1E0F80
1E0F80
1E0F80
1E0F80
1E0F80
1E0F80
3E0F80
3F0F80
FFCF80
FFCF80
000F80
000F00
000F00
001E00
001E00
003C00
007800
007000
ENDCHAR
STARTCHAR 0134
ENCODING 308
SWIDTH 360 0
DWIDTH 12 0
BBX 11 37 0 -8
BITMAP
0700
1F80
3F80
7BC0
70E0
0000
7FE0
7FE0
3FC0
1F80
1F00
1F00
1F00
1F00
1F00
1F00
1F00
1F00
1F00
1F00
1F00
1F00
1F00
1F00
1F00
1F00
1F00
1F00
1F00
1F00
1F00
1E00
1E00
3C00
7800
F000
C000
ENDCHAR
STARTCHAR 0135
ENCODING 309
SWIDTH 300 0
DWIDTH 10 0
BBX 10 32 1 -8
BITMAP
0C00
1E00
3E00
7F00
E780
C3C0
0100
0000
0000
7E00
FE00
FE00
3E00
1E00
1E00
1E00
1E00
1E00
1E00
1E00
1E00
1E00
1E00
1E00
3E00
3E00
3C00
3C00
7800
F000
E000
C000
ENDCHAR
STARTCHAR 0136
ENCODING 310
SWIDTH 720 0
DWIDTH 24 0
BBX 23 33 1 -10
BITMAP
FFC7F8
FFC7F8
7FC3F0
1F01C0
1F0380
1F0700
1F0E00
1F1C00
1F3800
1F7000
1FF000
1FF800
1FFC00
1F7E00
1F3F00
1F3F00
1F1F80
1F0FC0
1F0FE0
1F07E0
3F03F8
7FC3FE
FFC1FC
000000
000800
007800
00FC00
00FC00
003800
003800
003000
007000
006000
ENDCHAR
STARTCHAR 0137
ENCODING 311
SWIDTH 600 0
DWIDTH 20 0
BBX 19 34 1 -10
BITMAP
060000
FE0000
FE0000
3E0000
3E0000
3E0000
3E0000
3E0000
3E0000
3E1FE0
3E1FC0
3E0F00
3E1C00
3E3800
3E7000
3EF800
3EF800
3E7C00
3E7E00
3E3F00
3E1F80
3F0FC0
FF87E0
FF87E0
000000
002000
01E000
03F000
03F000
00E000
00E000
00E000
01C000
018000
ENDCHAR
STARTCHAR 0138
ENCODING 312
SWIDTH 600 0
DWIDTH 20 0
BBX 19 16 1 0
BITMAP
020000
7E3FC0
FE3FC0
7E1E00
3E3C00
1E7000
1EE000
1FF000
1FF800
1EFC00
1E7E00
1E3E00
3E3F00
3F1F80
FF8FE0
FF87E0
ENDCHAR
STARTCHAR 0139
ENCODING 313
SWIDTH 600 0
DWIDTH 20 0
BBX 19 29 1 0
BITMAP
078000
070000
0F0000
0E0000
000000
000000
FFC000
FFC000
7FC000
1F0000
1F0000
1F0000
1F0000
1F0000
1F0000
1F0000
1F0000
1F0000
1F0000
1F0000
1F0000
1F0000
1F0000
1F00E0
1F01C0
1F01C0
3F87C0
7FFFC0
FFFFC0
ENDCHAR
STARTCHAR 013A
ENCODING 314
SWIDTH 330 0
DWIDTH 11 0
BBX 9 30 1 0
BITMAP
0780
0F00
0E00
1C00
0000
0000
0600
FE00
FE00
3E00
3E00
3E00
3E00
3E00
3E00
3E00
3E00
3E00
3E00
3E00
3E00
3E00
3E00
3E00
3E00
3E00
3E00
3F00
FF80
FF80
ENDCHAR
STARTCHAR 013B
ENCODING 315
SWIDTH 600 0
DWIDTH 20 0
BBX 19 33 1 -10
BITMAP
FFC000
FFC000
7FC000
1F0000
1F0000
1F0000
1F0000
1F0000
1F0000
1F0000
1F0000
1F0000
1F0000
1F0000
1F0000
1F0000
1F0000
1F00E0
1F01C0
1F01C0
3F87C0
7FFFC0
FFFFC0
000000
002000
01F000
01F000
03F000
00F000
00E000
00E000
01C000
018000
ENDCHAR
STARTCHAR 013C
ENCODING 316
SWIDTH 330 0
DWIDTH 11 0
BBX 9 34 1 -10
BITMAP
0600
FE00
FE00
3E00
3E00
3E00
3E00
3E00
3E00
3E00
3E00
3E00
3E00
3E00
3E00
3E00
3E00
3E00
3E00
3E00
3E00
3F00
FF80
FF80
0000
0400
3E00
3E00
3E00
1E00
0E00
1C00
1800
3000
ENDCHAR
STARTCHAR 013D
ENCODING 317
SWIDTH 600 0
DWIDTH 20 0
BBX 19 24 1 0
BITMAP
0001C0
FFC7C0
FFC7C0
7FC7C0
1F03C0
1F01C0
1F0180
1F0380
1F0300
1F0000
1F0000
1F0000
1F0000
1F0000
1F0000
1F0000
1F0000
1F0000
1F00E0
1F01C0
1F01C0
3F87C0
7FFFC0
FFFFC0
ENDCHAR
STARTCHAR 013E
ENCODING 318
SWIDTH 480 0
DWIDTH 16 0
BBX 15 24 1 0
BITMAP
060C
FE7C
FE7E
3E7C
3E1C
3E1C
3E1C
3E18
3E30
3E00
3E00
3E00
3E00
3E00
3E00
3E00
3E00
3E00
3E00
3E00
3E00
3F00
FF80
FF80
ENDCHAR
STARTCHAR 013F
ENCODING 319
SWIDTH 600 0
DWIDTH 20 0
BBX 19 23 1 0
BITMAP
FFC000
FFC000
7FC000
1F0000
1F0000
1F0000
1F0000
1F0000
1F0000
1F0380
1F07C0
1F07C0
1F0380
1F0000
1F0000
1F0000
1F0000
1F00E0
1F01C0
1F01C0
3F87C0
7FFFC0
FFFFC0
ENDCHAR
STARTCHAR 0140
ENCODING 320
SWIDTH 330 0
DWIDTH 11 0
BBX 13 24 1 0
BITMAP
0600
FE00
FE00
3E00
3E00
3E00
3E00
3E00
3E00
3E00
3E30
3E78
3EF8
3E70
3E00
3E00
3E00
3E00
3E00
3E00
3E00
3F00
FF80
FF80
ENDCHAR
STARTCHAR 0141
ENCODING 321
SWIDTH 600 0
DWIDTH 20 0
BBX 19 23 1 0
BITMAP
FFC000
FFC000
7FC000
1F0000
1F0000
1F0000
1F0000
1F0000
1F6000
1FE000
1FE000
1F8000
3F0000
7F0000
FF0000
DF0000
1F0000
1F00E0
1F01C0
1F01C0
3F87C0
7FFFC0
FFFFC0
ENDCHAR
STARTCHAR 0142
ENCODING 322
SWIDTH 330 0
DWIDTH 11 0
BBX 12 24 0 0
BITMAP
0300
7F00
7F00
1F00
1F00
1F00
1F00
1F00
1F00
1F20
1FF0
1FE0
1F80
3F00
7F00
FF00
DF00
1F00
1F00
1F00
1F00
1F80
7FC0
7FC0
ENDCHAR
STARTCHAR 0143
ENCODING 323
SWIDTH 720 0
DWIDTH 24 0
BBX 22 29 1 0
BITMAP
001E00
001C00
003C00
003800
000000
000000
FE01FC
FF01FC
7F00F8
1F8070
1FC070
1FC030
1FE030
1BF030
1BF830
19F830
18FC30
187E30
187F30
183F30
181FB0
180FF0
180FF0
1807F0
1803F0
3801F0
3C01F0
FF00F0
FF0070
ENDCHAR
STARTCHAR 0144
ENCODING 324
SWIDTH 630 0
DWIDTH 21 0
BBX 20 24 1 0
BITMAP
001E00
003C00
003800
003800
007000
006000
000000
000000
020000
7E7F00
FEFF80
7FFF80
3E07C0
1E07C0
1E07C0
1E07C0
1E07C0
1E07C0
1E07C0
1E07C0
3E07C0
3F07C0
FF9FF0
FFDFF0
ENDCHAR
STARTCHAR 0145
ENCODING 325
SWIDTH 720 0
DWIDTH 24 0
BBX 22 33 1 -10
BITMAP
FE01FC
FF01FC
7F00F8
1F8070
1FC070
1FC030
1FE030
1BF030
1BF830
19F830
18FC30
187E30
187F30
183F30
181FB0
180FF0
180FF0
1807F0
1803F0
3801F0
3C01F0
FF00F0
FF0070
000000
000400
003C00
007E00
007E00
001C00
001C00
001C00
003800
003000
ENDCHAR
STARTCHAR 0146
ENCODING 326
SWIDTH 630 0
DWIDTH 21 0
BBX 20 26 1 -10
BITMAP
020000
7E7F00
FEFF80
7FFF80
3E07C0
1E07C0
1E07C0
1E07C0
1E07C0
1E07C0
1E07C0
1E07C0
3E07C0
3F07C0
FF9FF0
FFDFF0
000000
001000
00F000
01F800
01F800
007000
007000
007000
00E000
00C000
ENDCHAR
STARTCHAR 0147
ENCODING 327
SWIDTH 720 0
DWIDTH 24 0
BBX 22 29 1 1
BITMAP
078780
03FF00
01FC00
007800
003000
000000
FE01FC
FF01FC
7F00F8
1F8070
1FC070
1FC030
1FE030
1BF030
1BF830
19F830
18FC30
187E30
187F30
183F30
181FB0
180FF0
180FF0
1807F0
1803F0
3801F0
3C01F0
FF00F0
FF0070
ENDCHAR
STARTCHAR 0148
ENCODING 328
SWIDTH 630 0
DWIDTH 21 0
BBX 20 24 1 0
BITMAP
040200
0E0700
079E00
03FC00
01F800
00F000
006000
000000
020000
7E7F00
FEFF80
7FFF80
3E07C0
1E07C0
1E07C0
1E07C0
1E07C0
1E07C0
1E07C0
1E07C0
3E07C0
3F07C0
FF9FF0
FFDFF0
ENDCHAR
STARTCHAR 0149
ENCODING 329
SWIDTH 840 0
DWIDTH 28 0
BBX 25 24 2 0
BITMAP
18000000
7C000000
FC000000
FC000000
38000000
38000000
38000000
30000000
70100000
E3F9F800
07F7FC00
03FFFE00
00F83E00
00F83E00
00F83E00
00F83E00
00F83E00
00F83E00
00F83E00
00F83E00
00F83E00
01F83F00
07FEFF80
07FEFF80
ENDCHAR
STARTCHAR 014A
ENCODING 330
SWIDTH 690 0
DWIDTH 23 0
BBX 21 31 1 -8
BITMAP
020700
7F3FC0
FF7FE0
3FF7F0
1FC1F0
1F81F8
1F01F8
1F00F8
1F00F8
1F00F8
1F00F8
1F00F8
1F00F8
1F00F8
1F00F8
1F00F8
1F00F8
1F00F8
1F00F8
1F00F8
3F00F8
7FC0F0
FFC0F0
0000F0
0000F0
0001E0
0001E0
003FE0
003FC0
003F80
003F00
ENDCHAR
STARTCHAR 014B
ENCODING 331
SWIDTH 630 0
DWIDTH 21 0
BBX 18 24 1 -8
BITMAP
020000
7E7F00
FEFF80
7FFF80
3F87C0
1F07C0
1F07C0
1E07C0
1E07C0
1E07C0
1E07C0
1E07C0
3E07C0
3F07C0
FF87C0
FFC7C0
000780
000780
000780
000F00
01FF00
01FE00
01FC00
00F800
ENDCHAR
STARTCHAR 014C
ENCODING 332
SWIDTH 720 0
DWIDTH 24 0
BBX 23 27 1 0
BITMAP
07FFC0
07FF80
000000
000000
007C00
03FF80
0F8FE0
1F03F0
3E01F8
3C00F8
7C00FC
7C007C
FC007C
F8007E
F8007E
F8007E
F8007E
FC007E
FC007C
7C007C
7C007C
7E0078
3E00F8
1F01F0
0F83E0
07FFC0
01FF00
ENDCHAR
STARTCHAR 014D
ENCODING 333
SWIDTH 570 0
DWIDTH 19 0
BBX 17 21 1 0
BITMAP
3FFE00
3FFC00
000000
000000
000000
018000
0FF800
1FFE00
3C3E00
7C1F00
781F00
F80F80
F80F80
F80F80
F80F80
F80F80
7C0F00
7C1F00
3E1E00
1FFC00
0FF800
ENDCHAR
STARTCHAR 014E
ENCODING 334
SWIDTH 720 0
DWIDTH 24 0
BBX 23 29 1 0
BITMAP
038180
03C380
03FF00
01FF00
007C00
000000
007C00
03FF80
0F8FE0
1F03F0
3E01F8
3C00F8
7C00FC
7C007C
FC007C
F8007E
F8007E
F8007E
F8007E
FC007E
FC007C
7C007C
7C007C
7E0078
3E00F8
1F01F0
0F83E0
07FFC0
01FF00
ENDCHAR
STARTCHAR 014F
ENCODING 335
SWIDTH 570 0
DWIDTH 19 0
BBX 17 24 1 0
BITMAP
180400
380E00
3C0C00
1FFC00
1FFC00
0FF800
008000
000000
018000
0FF800
1FFE00
3C3E00
7C1F00
781F00
F80F80
F80F80
F80F80
F80F80
F80F80
7C0F00
7C1F00
3E1E00
1FFC00
0FF800
ENDCHAR
STARTCHAR 0150
ENCODING 336
SWIDTH 720 0
DWIDTH 24 0
BBX 23 29 1 0
BITMAP
00F3C0
00E380
01E780
01C700
008200
000000
007C00
03FF80
0F8FE0
1F03F0
3E01F8
3C00F8
7C00FC
7C007C
FC007C
F8007E
F8007E
F8007E
F8007E
FC007E
FC007C
7C007C
7C007C
7E0078
3E00F8
1F01F0
0F83E0
07FFC0
01FF00
ENDCHAR
STARTCHAR 0151
ENCODING 337
SWIDTH 570 0
DWIDTH 19 0
BBX 17 24 1 0
BITMAP
03CF00
078E00
079E00
071C00
0E3800
0C3800
000000
000000
018000
0FF800
1FFE00
3C3E00
7C1F00
781F00
F80F80
F80F80
F80F80
F80F80
F80F80
7C0F00
7C1F00
3E1E00
1FFC00
0FF800
ENDCHAR
STARTCHAR 0152
ENCODING 338
SWIDTH 990 0
DWIDTH 33 0
BBX 31 23 1 0
BITMAP
00FFFFFC
03FFFFFC
0F8FC0FC
1F03E03C
3E01F01C
3C01F00C
7C00F800
7C00F800
F800F860
F800F860
F800FCE0
F8007FE0
F8007FE0
F80078E0
FC00F860
7C00F860
7C00F800
7C00F00E
3E01F00E
3F01E01E
1F83C03E
07FFFFFC
01FFFFFC
ENDCHAR
STARTCHAR 0153
ENCODING 339
SWIDTH 810 0
DWIDTH 27 0
BBX 25 16 1 0
BITMAP
01802000
0FF9FC00
3FFFFF00
3C3F8F00
781F0F80
781F0780
F81F0780
F81FFF80
F81FFF80
F81F0000
F81F0000
7C1F8000
7C1F8080
3E3FE380
1FFBFF80
0FF1FE00
ENDCHAR
STARTCHAR 0154
ENCODING 340
SWIDTH 690 0
DWIDTH 23 0
BBX 22 29 1 0
BITMAP
003C00
007800
007000
00E000
004000
000000
FFF800
FFFF80
7F9FC0
1F07E0
1F03E0
1F03E0
1F03E0
1F03E0
1F03E0
1F07E0
1F0FC0
1FFF80
1FFE00
1FFE00
1F3F00
1F1F80
1F0F80
1F0FC0
1F07C0
1F07E0
3F03F0
7FC3FC
FFC1FC
ENDCHAR
STARTCHAR 0155
ENCODING 341
SWIDTH 450 0
DWIDTH 15 0
BBX 14 24 1 0
BITMAP
00F0
00F0
01E0
01C0
0180
0380
0000
0000
0200
7E7C
FEFC
7EFC
3FBC
1E1C
1E18
1E00
1E00
1E00
1E00
1E00
3F00
3F80
FFE0
FFE0
ENDCHAR
STARTCHAR 0156
ENCODING 342
SWIDTH 690 0
DWIDTH 23 0
BBX 22 33 1 -10
BITMAP
FFF800
FFFF80
7F9FC0
1F07E0
1F03E0
1F03E0
1F03E0
1F03E0
1F03E0
1F07E0
1F0FC0
1FFF80
1FFE00
1FFE00
1F3F00
1F1F80
1F0F80
1F0FC0
1F07C0
1F07E0
3F03F0
7FC3FC
FFC1FC
000000
000800
007C00
007C00
007C00
003C00
003800
003800
007000
006000
ENDCHAR
STARTCHAR 0157
ENCODING 343
SWIDTH 450 0
DWIDTH 15 0
BBX 14 26 1 -10
BITMAP
0200
7E7C
FEFC
7EFC
3FBC
1E1C
1E18
1E00
1E00
1E00
1E00
1E00
3F00
3F80
FFE0
FFE0
0000
0200
1F00
1F00
1F00
0F00
0F00
0E00
1C00
1800
ENDCHAR
STARTCHAR 0158
ENCODING 344
SWIDTH 690 0
DWIDTH 23 0
BBX 22 29 1 1
BITMAP
0F0E00
07FC00
03F800
01F000
00C000
000000
FFF800
FFFF80
7F9FC0
1F07E0
1F03E0
1F03E0
1F03E0
1F03E0
1F03E0
1F07E0
1F0FC0
1FFF80
1FFE00
1FFE00
1F3F00
1F1F80
1F0F80
1F0FC0
1F07C0
1F07E0
3F03F0
7FC3FC
FFC1FC
ENDCHAR
STARTCHAR 0159
ENCODING 345
SWIDTH 450 0
DWIDTH 15 0
BBX 14 24 1 0
BITMAP
2008
7838
3C70
1FE0
0FC0
0780
0300
0000
0200
7E7C
FEFC
7EFC
3FBC
1E1C
1E18
1E00
1E00
1E00
1E00
1E00
3F00
3F80
FFE0
FFE0
ENDCHAR
STARTCHAR 015A
ENCODING 346
SWIDTH 540 0
DWIDTH 18 0
BBX 15 29 2 0
BITMAP
01E0
01E0
03C0
0380
0000
0000
07E0
3FFC
7C7C
703C
F03C
F01C
F81C
FC00
FE00
7F80
7FE0
3FF8
1FFC
07FE
01FE
007E
E03E
E01E
E01E
F01E
F83C
FFF8
3FF0
ENDCHAR
STARTCHAR 015B
ENCODING 347
SWIDTH 450 0
DWIDTH 15 0
BBX 13 24 1 0
BITMAP
01E0
01E0
01C0
0380
0300
0700
0000
0000
0600
3FF0
7DF0
7870
F870
FC20
7F00
7FC0
3FF0
0FF8
21F8
E0F8
E0F8
F0F8
FFF0
7FE0
ENDCHAR
STARTCHAR 015C
ENCODING 348
SWIDTH 540 0
DWIDTH 18 0
BBX 15 30 2 0
BITMAP
0080
03C0
0FE0
1FF0
3878
3010
0000
07E0
3FFC
7C7C
703C
F03C
F01C
F81C
FC00
FE00
7F80
7FE0
3FF8
1FFC
07FE
01FE
007E
E03E
E01E
E01E
F01E
F83C
FFF8
3FF0
ENDCHAR
STARTCHAR 015D
ENCODING 349
SWIDTH 450 0
DWIDTH 15 0
BBX 13 24 1 0
BITMAP
0300
0780
0FC0
1FE0
78F0
7078
4010
0000
0600
3FF0
7DF0
7870
F870
FC20
7F00
7FC0
3FF0
0FF8
21F8
E0F8
E0F8
F0F8
FFF0
7FE0
ENDCHAR
STARTCHAR 015E
ENCODING 350
SWIDTH 540 0
DWIDTH 18 0
BBX 15 31 2 -8
BITMAP
07E0
3FFC
7C7C
703C
F03C
F01C
F81C
FC00
FE00
7F80
7FE0
3FF8
1FFC
07FE
01FE
007E
E03E
E01E
E01E
F01E
F83C
FFF8
3FF0
0300
0600
0780
07C0
01C0
01C0
03C0
0700
ENDCHAR
STARTCHAR 015F
ENCODING 351
SWIDTH 450 0
DWIDTH 15 0
BBX 13 24 1 -8
BITMAP
0600
3FF0
7DF0
7870
F870
FC20
7F00
7FC0
3FF0
0FF8
21F8
E0F8
E0F8
F0F8
FFF0
7FE0
0600
0C00
0F00
0F80
0380
0380
0780
0E00
ENDCHAR
STARTCHAR 0160
ENCODING 352
SWIDTH 540 0
DWIDTH 18 0
BBX 15 30 2 0
BITMAP
1010
3838
3FF0
0FE0
0780
0300
0000
07E0
3FFC
7C7C
703C
F03C
F01C
F81C
FC00
FE00
7F80
7FE0
3FF8
1FFC
07FE
01FE
007E
E03E
E01E
E01E
F01E
F83C
FFF8
3FF0
ENDCHAR
STARTCHAR 0161
ENCODING 353
SWIDTH 450 0
DWIDTH 15 0
BBX 13 24 1 0
BITMAP
4010
7078
78F0
3FC0
1F80
0F00
0600
0000
0600
3FF0
7DF0
7870
F870
FC20
7F00
7FC0
3FF0
0FF8
21F8
E0F8
E0F8
F0F8
FFF0
7FE0
ENDCHAR
STARTCHAR 0162
ENCODING 354
SWIDTH 630 0
DWIDTH 21 0
BBX 20 31 1 -8
BITMAP
7FFFE0
FFFFE0
FDF3F0
F1F0F0
E1F070
E1F070
C1F040
01F000
01F000
01F000
01F000
01F000
01F000
01F000
01F000
01F000
01F000
01F000
01F000
01F800
01F800
0FFE00
0FFF00
00C000
00C000
01F000
00F000
003800
003000
00F000
01C000
ENDCHAR
STARTCHAR 0163
ENCODING 355
SWIDTH 360 0
DWIDTH 12 0
BBX 12 28 0 -7
BITMAP
0700
1F00
1F00
1F00
1F00
7FF0
FFF0
3F00
1F00
1F00
1F00
1F00
1F00
1F00
1F00
1F00
1F00
1F00
0FF0
0FE0
0300
0600
0780
07C0
01C0
01C0
0780
0700
ENDCHAR
STARTCHAR 0164
ENCODING 356
SWIDTH 630 0
DWIDTH 21 0
BBX 20 29 1 1
BITMAP
0F0E00
07FE00
03F800
01F000
00C000
000000
7FFFE0
FFFFE0
FDF3F0
F1F0F0
E1F070
E1F070
C1F040
01F000
01F000
01F000
01F000
01F000
01F000
01F000
01F000
01F000
01F000
01F000
01F000
01F800
01F800
0FFE00
0FFF00
ENDCHAR
STARTCHAR 0165
ENCODING 357
SWIDTH 510 0
DWIDTH 17 0
BBX 18 24 0 0
BITMAP
000180
0007C0
000FC0
000FC0
0703C0
1F0380
1F0380
1F0300
1F0700
7FF000
FFF000
3F0000
1F0000
1F0000
1F0000
1F0000
1F0000
1F0000
1F0000
1F0000
1F0000
1F0000
0FF000
0FE000
ENDCHAR
STARTCHAR 0166
ENCODING 358
SWIDTH 630 0
DWIDTH 21 0
BBX 20 23 1 0
BITMAP
7FFFE0
FFFFE0
FDF3F0
F1F0F0
E1F070
E1F070
C1F040
01F000
01F000
01F000
0FFF80
1FFF80
1FFF00
01F000
01F000
01F000
01F000
01F000
01F000
01F800
01F800
0FFE00
0FFF00
ENDCHAR
STARTCHAR 0167
ENCODING 359
SWIDTH 360 0
DWIDTH 12 0
BBX 12 20 0 1
BITMAP
0700
1F00
1F00
1F00
1F00
7FF0
FFF0
3F00
1F00
1F00
1F00
FFC0
FFC0
1F00
1F00
1F00
1F00
1F00
0FF0
0FE0
ENDCHAR
STARTCHAR 0168
ENCODING 360
SWIDTH 660 0
DWIDTH 22 0
BBX 21 29 1 0
BITMAP
00F080
03FFC0
03FF80
021F00
000000
000000
FFC3F8
FFC3F8
7F83F0
3F00E0
3E00E0
3E00C0
3E00C0
3E00C0
3E00C0
3E00C0
3E00C0
3E00C0
3E00C0
3E00C0
3E00C0
3E00C0
3E00C0
3F00C0
1F00C0
1F01C0
1FC380
0FFF00
03FE00
ENDCHAR
STARTCHAR 0169
ENCODING 361
SWIDTH 600 0
DWIDTH 20 0
BBX 18 23 1 0
BITMAP
020000
0FC600
1FFE00
19FC00
107800
000000
000000
040100
FC3F00
FC7F80
FC1F80
7C0F80
3C0F80
3C0F80
3C0F80
3C0F80
3C0F80
3C0F80
3E0F80
3E0F80
3F8FC0
3FFFC0
1FCE00
ENDCHAR
STARTCHAR 016A
ENCODING 362
SWIDTH 660 0
DWIDTH 22 0
BBX 21 27 1 0
BITMAP
03FFC0
07FFC0
000000
000000
FFC3F8
FFC3F8
7F83F0
3F00E0
3E00E0
3E00C0
3E00C0
3E00C0
3E00C0
3E00C0
3E00C0
3E00C0
3E00C0
3E00C0
3E00C0
3E00C0
3E00C0
3F00C0
1F00C0
1F01C0
1FC380
0FFF00
03FE00
ENDCHAR
STARTCHAR 016B
ENCODING 363
SWIDTH 600 0
DWIDTH 20 0
BBX 18 21 1 0
BITMAP
1FFE00
1FFE00
000000
000000
000000
040100
FC3F00
FC7F80
FC1F80
7C0F80
3C0F80
3C0F80
3C0F80
3C0F80
3C0F80
3C0F80
3E0F80
3E0F80
3F8FC0
3FFFC0
1FCE00
ENDCHAR
STARTCHAR 016C
ENCODING 364
SWIDTH 660 0
DWIDTH 22 0
BBX 21 29 1 0
BITMAP
038180
03C380
01FF80
01FF00
007C00
000000
FFC3F8
FFC3F8
7F83F0
3F00E0
3E00E0
3E00C0
3E00C0
3E00C0
3E00C0
3E00C0
3E00C0
3E00C0
3E00C0
3E00C0
3E00C0
3E00C0
3E00C0
3F00C0
1F00C0
1F01C0
1FC380
0FFF00
03FE00
ENDCHAR
STARTCHAR 016D
ENCODING 365
SWIDTH 600 0
DWIDTH 20 0
BBX 18 24 1 0
BITMAP
080600
1C0600
1C0E00
1FFE00
0FFC00
07F800
00E000
000000
040100
FC3F00
FC7F80
FC1F80
7C0F80
3C0F80
3C0F80
3C0F80
3C0F80
3C0F80
3C0F80
3E0F80
3E0F80
3F8FC0
3FFFC0
1FCE00
ENDCHAR
STARTCHAR 016E
ENCODING 366
SWIDTH 660 0
DWIDTH 22 0
BBX 21 30 1 0
BITMAP
001000
007E00
00E700
00C700
00EE00
007C00
000000
FFC3F8
FFC3F8
7F83F0
3F00E0
3E00E0
3E00C0
3E00C0
3E00C0
3E00C0
3E00C0
3E00C0
3E00C0
3E00C0
3E00C0
3E00C0
3E00C0
3E00C0
3F00C0
1F00C0
1F01C0
1FC380
0FFF00
03FE00
ENDCHAR
STARTCHAR 016F
ENCODING 367
SWIDTH 600 0
DWIDTH 20 0
BBX 18 24 1 0
BITMAP
01E000
03F000
073800
073800
073800
03F000
01C000
000000
040100
FC3F00
FC7F80
FC1F80
7C0F80
3C0F80
3C0F80
3C0F80
3C0F80
3C0F80
3C0F80
3E0F80
3E0F80
3F8FC0
3FFFC0
1FCE00
ENDCHAR
STARTCHAR 0170
ENCODING 368
SWIDTH 660 0
DWIDTH 22 0
BBX 21 29 1 0
BITMAP
0079E0
00F3C0
00E380
01C700
000000
000000
FFC3F8
FFC3F8
7F83F0
3F00E0
3E00E0
3E00C0
3E00C0
3E00C0
3E00C0
3E00C0
3E00C0
3E00C0
3E00C0
3E00C0
3E00C0
3E00C0
3E00C0
3F00C0
1F00C0
1F01C0
1FC380
0FFF00
03FE00
ENDCHAR
STARTCHAR 0171
ENCODING 369
SWIDTH 600 0
DWIDTH 20 0
BBX 18 24 1 0
BITMAP
03EF80
03CF00
038E00
071C00
071C00
0E3800
000000
000000
040100
FC3F00
FC7F80
FC1F80
7C0F80
3C0F80
3C0F80
3C0F80
3C0F80
3C0F80
3C0F80
3E0F80
3E0F80
3F8FC0
3FFFC0
1FCE00
ENDCHAR
STARTCHAR 0172
ENCODING 370
SWIDTH 660 0
DWIDTH 22 0
BBX 21 31 1 -8
BITMAP
FFC3F8
FFC3F8
7F83F0
3F00E0
3E00E0
3E00C0
3E00C0
3E00C0
3E00C0
3E00C0
3E00C0
3E00C0
3E00C0
3E00C0
3E00C0
3E00C0
3E00C0
3F00C0
1F00C0
1F01C0
1FC380
0FFF00
03FE00
001C00
003800
007800
007800
007C00
007F80
007F80
003E00
ENDCHAR
STARTCHAR 0173
ENCODING 371
SWIDTH 600 0
DWIDTH 20 0
BBX 18 24 1 -8
BITMAP
040100
FC3F00
FC7F80
FC1F80
7C0F80
3C0F80
3C0F80
3C0F80
3C0F80
3C0F80
3C0F80
3E0F80
3E0F80
3F8FC0
3FFFC0
1FCF80
000700
001E00
001C00
003C00
003E00
003FC0
001FC0
000F00
ENDCHAR
STARTCHAR 0174
ENCODING 372
SWIDTH 990 0
DWIDTH 33 0
BBX 32 29 1 1
BITMAP
0001E000
0003F000
000FF800
001E3E00
00080800
00000000
FF80C0FF
FF81C07E
FF81E07E
7E01E01C
3E03F018
3E03F018
3F03F018
1F07F830
1F06F830
1F86F830
0F8CFC60
0F8C7C60
0FCC7E60
07D87EE0
07D83EC0
07F83FC0
03F01FC0
03F01F80
03F01F80
03E00F80
01E00F00
01E00F00
01C00700
ENDCHAR
STARTCHAR 0175
ENCODING 373
SWIDTH 780 0
DWIDTH 26 0
BBX 26 24 0 0
BITMAP
00030000
00078000
000FC000
001FE000
0078F000
00E07800
00400000
00000000
00000000
FF870FC0
7F870FC0
3F0F8700
1F0F8700
1F0FC600
1F1FC600
0F9BC600
0FBBEC00
0FB3EC00
07F1FC00
07E1F800
07E0F800
03E0F800
03C0F000
03C07000
ENDCHAR
STARTCHAR 0176
ENCODING 374
SWIDTH 630 0
DWIDTH 21 0
BBX 19 30 1 0
BITMAP
001000
007800
00FC00
03FF00
078F80
020200
000000
FF87E0
FF87E0
FF03E0
3F01C0
3F0180
1F0300
1F8300
0F8700
0FC600
07CE00
07EC00
03EC00
03F800
01F800
01F000
01F000
01F000
01F000
01F000
01F000
03F800
0FFE00
0FFE00
ENDCHAR
STARTCHAR 0177
ENCODING 375
SWIDTH 540 0
DWIDTH 18 0
BBX 18 32 0 -8
BITMAP
003000
007800
00FC00
01FE00
038F00
070780
040100
000000
000000
FFCFC0
7FCFC0
3F0780
1F0300
1F0700
0F8600
0F8E00
07CC00
07CC00
03F800
03F800
01F800
01F000
01F000
00E000
00E000
00C000
00C000
01C000
7F8000
7F8000
7F0000
3E0000
ENDCHAR
STARTCHAR 0178
ENCODING 376
SWIDTH 630 0
DWIDTH 21 0
BBX 19 29 1 0
BITMAP
038700
07CF80
07CF80
07CF80
038700
000000
FF87E0
FF87E0
FF03E0
3F01C0
3F0180
1F0300
1F8300
0F8700
0FC600
07CE00
07EC00
03EC00
03F800
01F800
01F000
01F000
01F000
01F000
01F000
01F000
03F800
0FFE00
0FFE00
ENDCHAR
STARTCHAR 0179
ENCODING 377
SWIDTH 600 0
DWIDTH 20 0
BBX 18 29 1 0
BITMAP
007C00
007800
007000
00E000
000000
000000
3FFF80
3FFF80
3E1F80
381F80
783F00
703E00
707E00
00FC00
00FC00
01F800
01F800
03F000
03F000
07E000
0FC000
0FC000
1F8000
1F81C0
3F0380
3E0380
7E0780
FFFF80
7FFF80
ENDCHAR
STARTCHAR 017A
ENCODING 378
SWIDTH 510 0
DWIDTH 17 0
BBX 15 24 1 0
BITMAP
00F0
00F0
00E0
01C0
0180
0380
0000
0000
0000
7FFC
7FFC
70FC
71F8
71F0
03F0
07E0
07C0
0FC0
1F8E
3F0E
3E0E
7E1E
FFFE
7FFE
ENDCHAR
STARTCHAR 017B
ENCODING 379
SWIDTH 600 0
DWIDTH 20 0
BBX 18 29 1 0
BITMAP
00E000
01F000
01F000
01F000
01E000
000000
3FFF80
3FFF80
3E1F80
381F80
783F00
703E00
707E00
00FC00
00FC00
01F800
01F800
03F000
03F000
07E000
0FC000
0FC000
1F8000
1F81C0
3F0380
3E0380
7E0780
FFFF80
7FFF80
ENDCHAR
STARTCHAR 017C
ENCODING 380
SWIDTH 510 0
DWIDTH 17 0
BBX 15 22 1 0
BITMAP
07C0
07C0
07C0
07C0
0100
0000
0000
7FFC
7FFC
70FC
71F8
71F0
03F0
07E0
07C0
0FC0
1F8E
3F0E
3E0E
7E1E
FFFE
7FFE
ENDCHAR
STARTCHAR 017D
ENCODING 381
SWIDTH 600 0
DWIDTH 20 0
BBX 18 30 1 0
BITMAP
040400
0E0E00
0FFC00
03F800
01E000
00C000
000000
3FFF80
3FFF80
3E1F80
381F80
783F00
703E00
707E00
00FC00
00FC00
01F800
01F800
03F000
03F000
07E000
0FC000
0FC000
1F8000
1F81C0
3F0380
3E0380
7E0780
FFFF80
7FFF80
ENDCHAR
STARTCHAR 017E
ENCODING 382
SWIDTH 510 0
DWIDTH 17 0
BBX 15 24 1 0
BITMAP
2008
783C
3C78
1FE0
0FC0
0780
0300
0000
0000
7FFC
7FFC
70FC
71F8
71F0
03F0
07E0
07C0
0FC0
1F8E
3F0E
3E0E
7E1E
FFFE
7FFE
ENDCHAR
STARTCHAR 017F
ENCODING 383
SWIDTH 360 0
DWIDTH 12 0
BBX 14 24 1 0
BITMAP
00F8
03FC
0FBC
0F1C
1E1C
1E1C
1E00
1E00
1E00
FE00
FE00
1E00
1E00
1E00
1E00
1E00
1E00
1E00
1E00
1E00
3F00
3F80
FFE0
FFE0
ENDCHAR
STARTCHAR 018E
ENCODING 398
SWIDTH 600 0
DWIDTH 20 0
BBX 18 23 1 0
BITMAP
3FFFC0
3FFFC0
3F1FC0
381F00
701F00
701F00
101F00
001F00
0E1F00
061F00
071F00
07FF00
07FF00
061F00
061F00
081F00
001F00
E01F00
E01F00
F01F00
783F80
7FFFC0
7FFFC0
ENDCHAR
STARTCHAR 018F
ENCODING 399
SWIDTH 660 0
DWIDTH 22 0
BBX 20 23 1 0
BITMAP
07F000
3FFE00
7C3F80
780FC0
7007C0
7003E0
7003E0
0003F0
0001F0
0001F0
0001F0
7FFFF0
FFFFF0
F801F0
F801F0
F801F0
7C01E0
7C03E0
7C03C0
3E07C0
1F0F80
0FFE00
07FC00
ENDCHAR
STARTCHAR 0192
ENCODING 402
SWIDTH 390 0
DWIDTH 13 0
BBX 23 32 -6 -8
BITMAP
00007C
0003FE
00079E
000F9C
000F0C
001F08
001F00
001F00
003E00
00FFC0
01FFC0
003E00
003E00
003C00
007C00
007C00
007C00
007C00
007C00
007800
007800
007800
00F800
00F800
00F000
00F000
00F000
61E000
71E000
73C000
FF8000
FF0000
ENDCHAR
STARTCHAR 019D
ENCODING 413
SWIDTH 720 0
DWIDTH 24 0
BBX 27 31 -4 -8
BITMAP
07F00FE0
07F80FE0
03F807C0
00FC0380
00FE0380
00FE0180
00FF0180
00DF8180
00DFC180
00CFC180
00C7E180
00C3F180
00C3F980
00C1F980
00C0FD80
00C07F80
00C07F80
00C03F80
00C01F80
00C00F80
00C00F80
00C00780
00C00380
00C00000
01C00000
01800000
03800000
FF800000
FF000000
FE000000
7C000000
ENDCHAR
STARTCHAR 01A0
ENCODING 416
SWIDTH 720 0
DWIDTH 24 0
BBX 23 27 1 0
BITMAP
00000C
00001C
00001C
00001C
007FFC
03FFF8
0F8FE0
1F03F0
3E01F8
3C00F8
7C00FC
7C007C
FC007C
F8007E
F8007E
F8007E
F8007E
FC007E
FC007C
7C007C
7C007C
7E0078
3E00F8
1F01F0
0F83E0
07FFC0
01FF00
ENDCHAR
STARTCHAR 01A1
ENCODING 417
SWIDTH 600 0
DWIDTH 20 0
BBX 17 19 1 0
BITMAP
000380
000380
000380
018380
0FFF00
1FFE00
3C3F00
7C1F00
781F80
F80F80
F80F80
F80F80
F80F80
F80F80
7C0F00
7C1F00
3E1E00
1FFC00
0FF800
ENDCHAR
STARTCHAR 01AF
ENCODING 431
SWIDTH 750 0
DWIDTH 25 0
BBX 24 27 1 0
BITMAP
000006
000007
000007
00000F
FFC3FE
FFC3FE
7F83F0
3F00E0
3E00E0
3E00C0
3E00C0
3E00C0
3E00C0
3E00C0
3E00C0
3E00C0
3E00C0
3E00C0
3E00C0
3E00C0
3E00C0
3F00C0
1F00C0
1F01C0
1FC380
0FFF00
03FE00
ENDCHAR
STARTCHAR 01B0
ENCODING 432
SWIDTH 660 0
DWIDTH 22 0
BBX 20 19 1 0
BITMAP
0000E0
0000F0
0000F0
0401E0
FC3FC0
FC7F80
FC1F80
7C0F80
3C0F80
3C0F80
3C0F80
3C0F80
3C0F80
3C0F80
3E0F80
3E0F80
3F8FC0
3FFFC0
1FCE00
ENDCHAR
STARTCHAR 01B7
ENCODING 439
SWIDTH 600 0
DWIDTH 20 0
BBX 17 23 2 0
BITMAP
FFFF00
FFFF00
FC3F00
F03E00
E07E00
E0FC00
E0F800
01F800
03F000
07E000
07C000
07FC00
03FE00
003F00
001F80
001F80
C00F80
E00F80
E01F80
E01F00
F83E00
FFFC00
3FF000
ENDCHAR
STARTCHAR 01C4
ENCODING 452
SWIDTH 1320 0
DWIDTH 44 0
BBX 42 29 1 1
BITMAP
0000000F0E00
00000007FE00
00000003F800
00000001F000
00000000C000
000000000000
FFE0003FFF80
FFFF803FFFC0
7F9FE03F0FC0
1F03F03C1F80
1F01F8381F00
1F00F8383F00
1F00FC303E00
1F007C007E00
1F007C00FC00
1F007C00FC00
1F007C01F800
1F007C01F800
1F007C03F000
1F007C03F000
1F007C07E000
1F007C0FC000
1F00780FC000
1F00F81F81C0
1F00F01F81C0
1F01F03F03C0
3F87C07E07C0
7FFF807FFFC0
FFFC007FFF80
ENDCHAR
STARTCHAR 01C5
ENCODING 453
SWIDTH 1230 0
DWIDTH 41 0
BBX 39 24 1 0
BITMAP
0000001008
FFE000381C
FFFF801E78
7F9FE00FF0
1F03F007E0
1F01F803C0
1F00F80380
1F00FC0000
1F007C0000
1F007C3FFE
1F007C7FFE
1F007C787C
1F007C70F8
1F007C71F8
1F007C03F0
1F007C03E0
1F007C07E0
1F00780FC0
1F00F80F86
1F00F01F8E
1F01F03F0E
3F87C07E0E
7FFF807FFE
FFFC007FFE
ENDCHAR
STARTCHAR 01C6
ENCODING 454
SWIDTH 1110 0
DWIDTH 37 0
BBX 35 24 1 0
BITMAP
0003010080
007F0381C0
007F01E780
001F00FF00
000F007E00
000F007C00
000F003800
000F000000
00CF000000
07FF07FFE0
1FBF07FFE0
3E0F078FC0
7C0F070F80
780F071F80
780F003F00
F80F003E00
F80F007E00
F80F00FC00
F80F01F8E0
FC0F01F0E0
7E0F83F0E0
7F1FC7E1E0
3FFFC7FFE0
1FCE07FFE0
ENDCHAR
STARTCHAR 01C7
ENCODING 455
SWIDTH 960 0
DWIDTH 32 0
BBX 30 31 1 -8
BITMAP
FFC00FFC
FFC00FFC
7FC007F8
1F0003F0
1F0003F0
1F0001F0
1F0001F0
1F0001F0
1F0001F0
1F0001F0
1F0001F0
1F0001F0
1F0001F0
1F0001F0
1F0001F0
1F0001F0
1F0001F0
1F00E1F0
1F01C1F0
1F01C1E0
3F87C1E0
7FFFC1E0
FFFFC3E0
000003E0
000003E0
000003C0
000003C0
00000780
00000F00
00001E00
00001800
ENDCHAR
STARTCHAR 01C8
ENCODING 456
SWIDTH 900 0
DWIDTH 30 0
BBX 28 31 1 -8
BITMAP
FFC001E0
FFC003E0
7FC003F0
1F0003E0
1F0001C0
1F000000
1F000000
1F000000
1F0007E0
1F000FE0
1F0007E0
1F0003E0
1F0001E0
1F0001E0
1F0001E0
1F0001E0
1F0001E0
1F00E1E0
1F01C1E0
1F01C1E0
3F87C1E0
7FFFC1E0
FFFFC1E0
000001E0
000003E0
000003C0
000003C0
00000780
00000F00
00000E00
00000C00
ENDCHAR
STARTCHAR 01C9
ENCODING 457
SWIDTH 630 0
DWIDTH 21 0
BBX 19 32 1 -8
BITMAP
060000
FE03C0
FE07E0
3E07E0
3E07C0
3E0180
3E0000
3E0000
3E0040
3E0FE0
3E1FE0
3E0FE0
3E03E0
3E03E0
3E03E0
3E03E0
3E03E0
3E03E0
3E03E0
3E03E0
3E03E0
3F03E0
FF83E0
FF83C0
0003C0
0003C0
0007C0
000780
000F00
000F00
001E00
001800
ENDCHAR
STARTCHAR 01CA
ENCODING 458
SWIDTH 1080 0
DWIDTH 36 0
BBX 34 31 1 -8
BITMAP
FE01FCFFC0
FF01FCFFC0
7F00F87F80
1F80703F00
1FC0701F00
1FC0301F00
1FE0301F00
1BF0301F00
1BF8301F00
19F8301F00
18FC301F00
187E301F00
187F301F00
183F301F00
181FB01F00
180FF01F00
180FF01F00
1807F01F00
1803F01F00
3801F01F00
3C01F01F00
FF00F01E00
FF00701E00
0000001E00
0000003E00
0000003E00
0000003C00
0000007800
000000F000
000001E000
000001C000
ENDCHAR
STARTCHAR 01CB
ENCODING 459
SWIDTH 1020 0
DWIDTH 34 0
BBX 32 31 1 -8
BITMAP
FE01FC1E
FF01FC3E
7F00F83F
1F80703E
1FC0701C
1FC03000
1FE03000
1BF03002
1BF8307E
19F830FE
18FC307E
187E301E
187F301E
183F301E
181FB01E
180FF01E
180FF01E
1807F01E
1803F01E
3801F01E
3C01F01E
FF00F01E
FF00701E
0000001E
0000001E
0000003C
0000003C
00000078
00000070
000000E0
000000C0
ENDCHAR
STARTCHAR 01CC
ENCODING 460
SWIDTH 960 0
DWIDTH 32 0
BBX 29 31 1 -8
BITMAP
00000078
000000F8
000000F8
000000F8
00000070
00000000
00000000
02000000
7E7F01F8
FEFF83F8
7FFF83F8
3E07C0F8
1E07C0F8
1E07C0F8
1E07C0F8
1E07C0F8
1E07C0F8
1E07C0F8
1E07C0F8
3E07C0F8
3F07C0F8
FF9FF0F8
FFDFF0F8
000000F8
000000F8
000000F0
000000F0
000001E0
000003C0
00000780
00000300
ENDCHAR
STARTCHAR 01CD
ENCODING 461
SWIDTH 690 0
DWIDTH 23 0
BBX 22 30 1 0
BITMAP
020200
070700
07FE00
01FC00
00F000
006000
000000
007000
007000
007000
00F800
00F800
01FC00
01FC00
01FE00
033E00
033F00
071F00
061F00
061F80
0C0F80
0C0FC0
1FFFC0
1FFFE0
1803E0
3003F0
3003F0
7803F8
FC07FC
FC07FC
ENDCHAR
STARTCHAR 01CE
ENCODING 462
SWIDTH 540 0
DWIDTH 18 0
BBX 16 24 2 0
BITMAP
4010
7078
78F0
3FC0
1F80
0F00
0600
0000
0180
0FF0
1FF8
38F8
78F8
F8FC
787C
01F8
0F78
3C78
7878
F878
F87C
FC7F
7FFF
3E7E
ENDCHAR
STARTCHAR 01CF
ENCODING 463
SWIDTH 360 0
DWIDTH 12 0
BBX 10 29 1 0
BITMAP
70C0
79C0
3F80
1F00
1E00
0000
FFC0
FFC0
7FC0
1F00
1F00
1F00
1F00
1F00
1F00
1F00
1F00
1F00
1F00
1F00
1F00
1F00
1F00
1F00
1F00
1F00
3F00
7FC0
FFC0
ENDCHAR
STARTCHAR 01D0
ENCODING 464
SWIDTH 330 0
DWIDTH 11 0
BBX 10 24 1 0
BITMAP
4080
E1C0
F380
7F00
3E00
1E00
1C00
0000
0200
7E00
FE00
7E00
3E00
1E00
1E00
1E00
1E00
1E00
1E00
1E00
3E00
3F00
FFC0
FFC0
ENDCHAR
STARTCHAR 01D1
ENCODING 465
SWIDTH 720 0
DWIDTH 24 0
BBX 23 30 1 0
BITMAP
010100
038380
03EF00
00FE00
007800
003000
000000
007C00
03FF80
0F8FE0
1F03F0
3E01F8
3C00F8
7C00FC
7C007C
FC007C
F8007E
F8007E
F8007E
F8007E
FC007E
FC007C
7C007C
7C007C
7E0078
3E00F8
1F01F0
0F83E0
07FFC0
01FF00
ENDCHAR
STARTCHAR 01D2
ENCODING 466
SWIDTH 570 0
DWIDTH 19 0
BBX 17 24 1 0
BITMAP
100400
3C1C00
1E3800
0FF000
07E000
03C000
018000
000000
018000
0FF800
1FFE00
3C3E00
7C1F00
781F00
F80F80
F80F80
F80F80
F80F80
F80F80
7C0F00
7C1F00
3E1E00
1FFC00
0FF800
ENDCHAR
STARTCHAR 01D3
ENCODING 467
SWIDTH 660 0
DWIDTH 22 0
BBX 21 29 1 1
BITMAP
03C380
01FF00
00FE00
007C00
003000
000000
FFC3F8
FFC3F8
7F83F0
3F00E0
3E00E0
3E00C0
3E00C0
3E00C0
3E00C0
3E00C0
3E00C0
3E00C0
3E00C0
3E00C0
3E00C0
3E00C0
3E00C0
3F00C0
1F00C0
1F01C0
1FC380
0FFF00
03FE00
ENDCHAR
STARTCHAR 01D4
ENCODING 468
SWIDTH 600 0
DWIDTH 20 0
BBX 18 24 1 0
BITMAP
080400
1C0E00
0F3C00
07F800
03F000
01E000
01C000
000000
040100
FC3F00
FC7F80
FC1F80
7C0F80
3C0F80
3C0F80
3C0F80
3C0F80
3C0F80
3C0F80
3E0F80
3E0F80
3F8FC0
3FFFC0
1FCE00
ENDCHAR
STARTCHAR 01D5
ENCODING 469
SWIDTH 660 0
DWIDTH 22 0
BBX 21 33 1 0
BITMAP
03FFC0
07FFC0
000000
000000
018380
03C7C0
07E7C0
03C7C0
018380
000000
FFC3F8
FFC3F8
7F83F0
3F00E0
3E00E0
3E00C0
3E00C0
3E00C0
3E00C0
3E00C0
3E00C0
3E00C0
3E00C0
3E00C0
3E00C0
3E00C0
3E00C0
3F00C0
1F00C0
1F01C0
1FC380
0FFF00
03FE00
ENDCHAR
STARTCHAR 01D6
ENCODING 470
SWIDTH 600 0
DWIDTH 20 0
BBX 18 26 1 0
BITMAP
1FFE00
1FFE00
000000
000000
040800
1E3E00
1F3E00
1F3E00
1E1E00
000000
040100
FC3F00
FC7F80
FC1F80
7C0F80
3C0F80
3C0F80
3C0F80
3C0F80
3C0F80
3C0F80
3E0F80
3E0F80
3F8FC0
3FFFC0
1FCE00
ENDCHAR
STARTCHAR 01D7
ENCODING 471
SWIDTH 660 0
DWIDTH 22 0
BBX 21 35 1 0
BITMAP
000F00
001E00
001C00
003800
001800
000000
018380
03C7C0
07E7C0
03C7C0
018380
000000
FFC3F8
FFC3F8
7F83F0
3F00E0
3E00E0
3E00C0
3E00C0
3E00C0
3E00C0
3E00C0
3E00C0
3E00C0
3E00C0
3E00C0
3E00C0
3E00C0
3E00C0
3F00C0
1F00C0
1F01C0
1FC380
0FFF00
03FE00
ENDCHAR
STARTCHAR 01D8
ENCODING 472
SWIDTH 600 0
DWIDTH 20 0
BBX 18 28 1 0
BITMAP
007800
007000
00F000
00E000
01C000
000000
040800
1E3E00
1F3E00
1F3E00
1E1E00
000000
040100
FC3F00
FC7F80
FC1F80
7C0F80
3C0F80
3C0F80
3C0F80
3C0F80
3C0F80
3C0F80
3E0F80
3E0F80
3F8FC0
3FFFC0
1FCE00
ENDCHAR
STARTCHAR 01D9
ENCODING 473
SWIDTH 660 0
DWIDTH 22 0
BBX 21 35 1 0
BITMAP
038380
03EF80
00FE00
007C00
003800
000000
018380
03C7C0
07E7C0
03C7C0
018380
000000
FFC3F8
FFC3F8
7F83F0
3F00E0
3E00E0
3E00C0
3E00C0
3E00C0
3E00C0
3E00C0
3E00C0
3E00C0
3E00C0
3E00C0
3E00C0
3E00C0
3E00C0
3F00C0
1F00C0
1F01C0
1FC380
0FFF00
03FE00
ENDCHAR
STARTCHAR 01DA
ENCODING 474
SWIDTH 600 0
DWIDTH 20 0
BBX 18 28 1 0
BITMAP
0C0C00
1F3C00
0FF800
03E000
01C000
000000
040800
1E3E00
1F3E00
1F3E00
1E1E00
000000
040100
FC3F00
FC7F80
FC1F80
7C0F80
3C0F80
3C0F80
3C0F80
3C0F80
3C0F80
3C0F80
3E0F80
3E0F80
3F8FC0
3FFFC0
1FCE00
ENDCHAR
STARTCHAR 01DB
ENCODING 475
SWIDTH 660 0
DWIDTH 22 0
BBX 21 35 1 0
BITMAP
00F000
00F000
007800
003800
001800
000000
018380
03C7C0
07E7C0
03C7C0
018380
000000
FFC3F8
FFC3F8
7F83F0
3F00E0
3E00E0
3E00C0
3E00C0
3E00C0
3E00C0
3E00C0
3E00C0
3E00C0
3E00C0
3E00C0
3E00C0
3E00C0
3E00C0
3F00C0
1F00C0
1F01C0
1FC380
0FFF00
03FE00
ENDCHAR
STARTCHAR 01DC
ENCODING 476
SWIDTH 600 0
DWIDTH 20 0
BBX 18 28 1 0
BITMAP
038000
078000
03C000
01C000
00E000
000000
040800
1E3E00
1F3E00
1F3E00
1E1E00
000000
040100
FC3F00
FC7F80
FC1F80
7C0F80
3C0F80
3C0F80
3C0F80
3C0F80
3C0F80
3C0F80
3E0F80
3E0F80
3F8FC0
3FFFC0
1FCE00
ENDCHAR
STARTCHAR 01DD
ENCODING 477
SWIDTH 510 0
DWIDTH 17 0
BBX 15 16 1 0
BITMAP
0300
3FE0
7FF8
E0FC
007C
007C
003E
01FE
FFFE
FFFE
F83E
F83C
787C
7C78
3FF0
0FE0
ENDCHAR
STARTCHAR 01E4
ENCODING 484
SWIDTH 690 0
DWIDTH 23 0
BBX 22 23 1 0
BITMAP
007E00
03FFE0
0FC3F0
1F00F0
3E00F0
3E0060
7C0060
7C0000
FC0000
F80000
F80000
F80000
F807F8
FC07F8
FC01F0
7C01F0
7C1FFC
7E1FFC
3E1FFC
1F01F0
0F81F0
07FFE0
01FF80
ENDCHAR
STARTCHAR 01E5
ENCODING 485
SWIDTH 540 0
DWIDTH 18 0
BBX 20 24 -1 -8
BITMAP
004000
07FFC0
0F3FC0
1F1F00
1E0F00
3E0F80
3E0F80
1F0F00
1F1F00
0FFE00
07FC00
0E0000
1E0000
1FFC00
1FFF80
1FFFC0
0FFFC0
1FFFC0
3C03C0
FFFFF0
FFFFF0
3E0F00
1FFE00
0FF800
ENDCHAR
STARTCHAR 01E6
ENCODING 486
SWIDTH 690 0
DWIDTH 23 0
BBX 21 29 1 1
BITMAP
03C380
01FF00
00FE00
007C00
003000
000000
007E00
03FFE0
0FC3F0
1F00F0
3E00F0
3E0060
7C0060
7C0000
FC0000
F80000
F80000
F80000
F807F8
FC07F8
FC01F0
7C01F0
7C01F0
7E01F0
3E01F0
1F01F0
0F81F0
07FFE0
01FF80
ENDCHAR
STARTCHAR 01E7
ENCODING 487
SWIDTH 540 0
DWIDTH 18 0
BBX 16 32 1 -8
BITMAP
2008
7838
3C70
1FE0
0FC0
0780
0300
0000
0100
1FFF
3CFF
7C7C
783C
F83E
F83E
7C3C
7C7C
3FF8
1FF0
3800
7800
7FF0
7FFE
7FFF
3FFF
7FFF
F00F
F00F
F01E
F83C
7FF8
3FE0
ENDCHAR
STARTCHAR 01E8
ENCODING 488
SWIDTH 720 0
DWIDTH 24 0
BBX 23 30 1 0
BITMAP
010100
038380
03FF00
00FE00
007800
003000
000000
FFC7F8
FFC7F8
7FC3F0
1F01C0
1F0380
1F0700
1F0E00
1F1C00
1F3800
1F7000
1FF000
1FF800
1FFC00
1F7E00
1F3F00
1F3F00
1F1F80
1F0FC0
1F0FE0
1F07E0
3F03F8
7FC3FE
FFC1FC
ENDCHAR
STARTCHAR 01E9
ENCODING 489
SWIDTH 600 0
DWIDTH 20 0
BBX 19 30 1 0
BITMAP
040400
0E0E00
0FFC00
07F800
01E000
00C000
060000
FE0000
FE0000
3E0000
3E0000
3E0000
3E0000
3E0000
3E0000
3E1FE0
3E1FC0
3E0F00
3E1C00
3E3800
3E7000
3EF800
3EF800
3E7C00
3E7E00
3E3F00
3E1F80
3F0FC0
FF87E0
FF87E0
ENDCHAR
STARTCHAR 01EA
ENCODING 490
SWIDTH 720 0
DWIDTH 24 0
BBX 23 31 1 -8
BITMAP
007C00
03FF80
0F8FE0
1F03F0
3E01F8
3C00F8
7C00FC
7C007C
FC007C
F8007E
F8007E
F8007E
F8007E
FC007E
FC007C
7C007C
7C007C
7E0078
3E00F8
1F01F0
0F83E0
07FFC0
01FF00
000E00
001C00
003800
003C00
007C00
007F80
003FC0
001F00
ENDCHAR
STARTCHAR 01EB
ENCODING 491
SWIDTH 570 0
DWIDTH 19 0
BBX 17 24 1 -8
BITMAP
018000
0FF800
1FFE00
3C3E00
7C1F00
781F00
F80F80
F80F80
F80F80
F80F80
F80F80
7C0F00
7C1F00
3E1E00
1FFC00
0FF000
01C000
070000
0F0000
0F0000
0F8000
0FF000
0FF000
07C000
ENDCHAR
STARTCHAR 01EE
ENCODING 494
SWIDTH 600 0
DWIDTH 20 0
BBX 17 29 2 1
BITMAP
3C3800
1FF000
0FE000
07C000
030000
000000
FFFF00
FFFF00
FC3F00
F03E00
E07E00
E0FC00
E0F800
01F800
03F000
07E000
07C000
07FC00
03FE00
003F00
001F80
001F80
C00F80
E00F80
E01F80
E01F00
F83E00
FFFC00
3FF000
ENDCHAR
STARTCHAR 01EF
ENCODING 495
SWIDTH 510 0
DWIDTH 17 0
BBX 14 32 2 -8
BITMAP
0010
7078
7CF0
3FE0
1F80
0F00
0700
0000
0000
FFF8
FFF8
E1F8
E1F0
E3F0
03E0
07C0
0FC0
0F80
1F80
1FE0
1FF8
01F8
00FC
007C
007C
007C
407C
C07C
E0F8
F1F0
FFE0
7F80
ENDCHAR
STARTCHAR 01F1
ENCODING 497
SWIDTH 1320 0
DWIDTH 44 0
BBX 42 23 1 0
BITMAP
FFE0003FFF80
FFFF803FFFC0
7F9FE03F0FC0
1F03F03C1F80
1F01F8381F00
1F00F8383F00
1F00FC303E00
1F007C007E00
1F007C00FC00
1F007C00FC00
1F007C01F800
1F007C01F800
1F007C03F000
1F007C03F000
1F007C07E000
1F007C0FC000
1F00780FC000
1F00F81F81C0
1F00F01F81C0
1F01F03F03C0
3F87C07E07C0
7FFF807FFFC0
FFFC007FFF80
ENDCHAR
STARTCHAR 01F2
ENCODING 498
SWIDTH 1230 0
DWIDTH 41 0
BBX 39 23 1 0
BITMAP
FFE0000000
FFFF800000
7F9FE00000
1F03F00000
1F01F80000
1F00F80000
1F00FC0000
1F007C0000
1F007C3FFE
1F007C7FFE
1F007C787C
1F007C70F8
1F007C71F8
1F007C03F0
1F007C03E0
1F007C07E0
1F00780FC0
1F00F80F86
1F00F01F8E
1F01F03F0E
3F87C07E0E
7FFF807FFE
FFFC007FFE
ENDCHAR
STARTCHAR 01F3
ENCODING 499
SWIDTH 1110 0
DWIDTH 37 0
BBX 35 24 1 0
BITMAP
0003000000
007F000000
007F000000
001F000000
000F000000
000F000000
000F000000
000F000000
00CF000000
07FF07FFE0
1FBF07FFE0
3E0F078FC0
7C0F070F80
780F071F80
780F003F00
F80F003E00
F80F007E00
F80F00FC00
F80F01F8E0
FC0F01F0E0
7E0F83F0E0
7F1FC7E1E0
3FFFC7FFE0
1FCE07FFE0
ENDCHAR
STARTCHAR 01FA
ENCODING 506
SWIDTH 690 0
DWIDTH 23 0
BBX 22 36 1 0
BITMAP
003E00
003C00
003800
007000
000000
000000
002000
01FC00
018C00
018C00
01DC00
00F800
000000
007000
007000
007000
00F800
00F800
01FC00
01FC00
01FE00
033E00
033F00
071F00
061F00
061F80
0C0F80
0C0FC0
1FFFC0
1FFFE0
1803E0
3003F0
3003F0
7803F8
FC07FC
FC07FC
ENDCHAR
STARTCHAR 01FB
ENCODING 507
SWIDTH 540 0
DWIDTH 18 0
BBX 16 29 2 0
BITMAP
01E0
03C0
0380
0700
0600
0000
0000
0F80
18C0
18C0
1CC0
0F80
0000
0180
0FF0
1FF8
38F8
78F8
F8FC
787C
01F8
0F78
3C78
7878
F878
F87C
FC7F
7FFF
3E7E
ENDCHAR
STARTCHAR 01FC
ENCODING 508
SWIDTH 930 0
DWIDTH 31 0
BBX 30 29 1 0
BITMAP
00007800
0000F000
0000E000
0000C000
00004000
00000000
007FFFF0
007FFFF0
003FE3F0
001FE070
001BE030
001BE038
0033E020
0073E000
0063E000
00E3E180
00C3E180
01FFFF80
03FFFF80
03E3E380
0703E180
0603E180
0E03E000
0C03E01C
1C03E01C
3803F038
7C03F078
FE0FFFF8
FE0FFFF8
ENDCHAR
STARTCHAR 01FD
ENCODING 509
SWIDTH 720 0
DWIDTH 24 0
BBX 22 24 1 0
BITMAP
000F00
000F00
001E00
001C00
001800
003800
000000
000000
010080
3FEFF0
7DFEF8
78FC78
707C3C
70783C
00783C
07FFFC
1FFFF8
7C7800
787C00
F0FC00
F8FE00
FDFF3C
7F9FF8
3F07F0
ENDCHAR
STARTCHAR 01FE
ENCODING 510
SWIDTH 720 0
DWIDTH 24 0
BBX 23 30 1 -1
BITMAP
001E00
001E00
003C00
003800
000000
000000
007C1C
03FFB8
0F8FF0
1F03F0
3E01F8
3C01F8
7C03FC
7C077C
FC0F7C
F80E7E
F81C7E
F8387E
F8787E
FC707E
FCE07C
7DC07C
7F807C
7F8078
3F00F8
1F01F0
1F83E0
3FFFC0
79FF00
700000
ENDCHAR
STARTCHAR 01FF
ENCODING 511
SWIDTH 570 0
DWIDTH 19 0
BBX 17 25 1 -1
BITMAP
007800
007800
00F000
00E000
00C000
01C000
000000
000000
01C380
0FFF00
1FFE00
3C3F00
7C3F00
787F80
F8FF80
F8EF80
F9CF80
FB8F80
FF0F80
7E0F00
7C1F00
3E1E00
7FFC00
7FF800
E00000
ENDCHAR
STARTCHAR 0200
ENCODING 512
SWIDTH 690 0
DWIDTH 23 0
BBX 22 29 1 0
BITMAP
0E3800
0F3800
071C00
038C00
038E00
000000
007000
007000
007000
00F800
00F800
01FC00
01FC00
01FE00
033E00
033F00
071F00
061F00
061F80
0C0F80
0C0FC0
1FFFC0
1FFFE0
1803E0
3003F0
3003F0
7803F8
FC07FC
FC07FC
ENDCHAR
STARTCHAR 0201
ENCODING 513
SWIDTH 540 0
DWIDTH 18 0
BBX 16 24 2 0
BITMAP
F3C0
F3C0
79E0
38E0
1860
1C70
0000
0000
0180
0FF0
1FF8
38F8
78F8
F8FC
787C
01F8
0F78
3C78
7878
F878
F87C
FC7F
7FFF
3E7E
ENDCHAR
STARTCHAR 0202
ENCODING 514
SWIDTH 690 0
DWIDTH 23 0
BBX 22 29 1 0
BITMAP
01FC00
03FE00
07FF00
070700
060700
000000
007000
007000
007000
00F800
00F800
01FC00
01FC00
01FE00
033E00
033F00
071F00
061F00
061F80
0C0F80
0C0FC0
1FFFC0
1FFFE0
1803E0
3003F0
3003F0
7803F8
FC07FC
FC07FC
ENDCHAR
STARTCHAR 0203
ENCODING 515
SWIDTH 540 0
DWIDTH 18 0
BBX 16 24 2 0
BITMAP
0300
3FE0
7FF0
7FF0
E078
E038
4020
0000
0180
0FF0
1FF8
38F8
78F8
F8FC
787C
01F8
0F78
3C78
7878
F878
F87C
FC7F
7FFF
3E7E
ENDCHAR
STARTCHAR 0204
ENCODING 516
SWIDTH 600 0
DWIDTH 20 0
BBX 19 29 1 0
BITMAP
1C7000
3CF000
1E7800
0E3800
071C00
000000
FFFF80
FFFF80
7F1F80
1F0380
1F0180
1F01C0
1F0100
1F0000
1F0C00
1F0C00
1F1C00
1FFC00
1FFC00
1F0C00
1F0C00
1F0000
1F0000
1F00E0
1F00E0
1F01C0
3F83C0
7FFFC0
FFFFC0
ENDCHAR
STARTCHAR 0205
ENCODING 517
SWIDTH 510 0
DWIDTH 17 0
BBX 15 24 1 0
BITMAP
39E0
78E0
3CF0
1C70
0E38
0E38
0000
0000
0180
0FF0
3FF8
3C3C
783C
783E
F83E
FFFE
FFFC
F800
F800
7C00
7C00
3F1E
1FFC
0FF0
ENDCHAR
STARTCHAR 0206
ENCODING 518
SWIDTH 600 0
DWIDTH 20 0
BBX 19 29 1 0
BITMAP
03F000
0FFC00
0FFC00
0C1C00
1C0E00
000000
FFFF80
FFFF80
7F1F80
1F0380
1F0180
1F01C0
1F0100
1F0000
1F0C00
1F0C00
1F1C00
1FFC00
1FFC00
1F0C00
1F0C00
1F0000
1F0000
1F00E0
1F00E0
1F01C0
3F83C0
7FFFC0
FFFFC0
ENDCHAR
STARTCHAR 0207
ENCODING 519
SWIDTH 510 0
DWIDTH 17 0
BBX 15 24 1 0
BITMAP
0180
0FF0
1FF8
3EFC
381C
301C
3008
0000
0180
0FF0
3FF8
3C3C
783C
783E
F83E
FFFE
FFFC
F800
F800
7C00
7C00
3F1E
1FFC
0FF0
ENDCHAR
STARTCHAR 0208
ENCODING 520
SWIDTH 360 0
DWIDTH 12 0
BBX 11 29 0 0
BITMAP
7380
F380
71C0
39C0
18E0
0000
7FE0
7FE0
3FE0
0F80
0F80
0F80
0F80
0F80
0F80
0F80
0F80
0F80
0F80
0F80
0F80
0F80
0F80
0F80
0F80
0F80
1F80
3FE0
7FE0
ENDCHAR
STARTCHAR 0209
ENCODING 521
SWIDTH 330 0
DWIDTH 11 0
BBX 12 24 -1 0
BITMAP
7380
F380
71C0
39C0
18E0
1CE0
0000
0000
0080
1F80
3F80
1F80
0F80
0780
0780
0780
0780
0780
0780
0780
0F80
0FC0
3FF0
3FF0
ENDCHAR
STARTCHAR 020A
ENCODING 522
SWIDTH 360 0
DWIDTH 12 0
BBX 10 29 1 0
BITMAP
1F00
7F80
7FC0
E1C0
C0C0
0000
FFC0
FFC0
7FC0
1F00
1F00
1F00
1F00
1F00
1F00
1F00
1F00
1F00
1F00
1F00
1F00
1F00
1F00
1F00
1F00
1F00
3F00
7FC0
FFC0
ENDCHAR
STARTCHAR 020B
ENCODING 523
SWIDTH 330 0
DWIDTH 11 0
BBX 11 24 0 0
BITMAP
0600
3F80
7FC0
7BE0
E0E0
E0E0
4040
0000
0100
3F00
7F00
3F00
1F00
0F00
0F00
0F00
0F00
0F00
0F00
0F00
1F00
1F80
7FE0
7FE0
ENDCHAR
STARTCHAR 020C
ENCODING 524
SWIDTH 720 0
DWIDTH 24 0
BBX 23 29 1 0
BITMAP
071C00
079C00
038E00
01CE00
01C700
000000
007C00
03FF80
0F8FE0
1F03F0
3E01F8
3C00F8
7C00FC
7C007C
FC007C
F8007E
F8007E
F8007E
F8007E
FC007E
FC007C
7C007C
7C007C
7E0078
3E00F8
1F01F0
0F83E0
07FFC0
01FF00
ENDCHAR
STARTCHAR 020D
ENCODING 525
SWIDTH 570 0
DWIDTH 19 0
BBX 17 24 1 0
BITMAP
3CF000
3CF000
1C7000
0E3800
0E3800
071C00
000000
000000
018000
0FF800
1FFE00
3C3E00
7C1F00
781F00
F80F80
F80F80
F80F80
F80F80
F80F80
7C0F00
7C1F00
3E1E00
1FFC00
0FF800
ENDCHAR
STARTCHAR 020E
ENCODING 526
SWIDTH 720 0
DWIDTH 24 0
BBX 23 29 1 0
BITMAP
00FE00
01FF00
03FF80
038380
030380
000000
007C00
03FF80
0F8FE0
1F03F0
3E01F8
3C00F8
7C00FC
7C007C
FC007C
F8007E
F8007E
F8007E
F8007E
FC007E
FC007C
7C007C
7C007C
7E0078
3E00F8
1F01F0
0F83E0
07FFC0
01FF00
ENDCHAR
STARTCHAR 020F
ENCODING 527
SWIDTH 570 0
DWIDTH 19 0
BBX 17 24 1 0
BITMAP
01C000
0FF800
1FFC00
1FFC00
381C00
300E00
100800
000000
018000
0FF800
1FFE00
3C3E00
7C1F00
781F00
F80F80
F80F80
F80F80
F80F80
F80F80
7C0F00
7C1F00
3E1E00
1FFC00
0FF800
ENDCHAR
STARTCHAR 0210
ENCODING 528
SWIDTH 690 0
DWIDTH 23 0
BBX 22 29 1 0
BITMAP
0E3000
1E7800
0E3800
071C00
030C00
000000
FFF800
FFFF80
7F9FC0
1F07E0
1F03E0
1F03E0
1F03E0
1F03E0
1F03E0
1F07E0
1F0FC0
1FFF80
1FFE00
1FFE00
1F3F00
1F1F80
1F0F80
1F0FC0
1F07C0
1F07E0
3F03F0
7FC3FC
FFC1FC
ENDCHAR
STARTCHAR 0211
ENCODING 529
SWIDTH 450 0
DWIDTH 15 0
BBX 14 24 1 0
BITMAP
79E0
79E0
38E0
1C70
1C70
0E38
0000
0000
0200
7E7C
FEFC
7EFC
3FBC
1E1C
1E18
1E00
1E00
1E00
1E00
1E00
3F00
3F80
FFE0
FFE0
ENDCHAR
STARTCHAR 0212
ENCODING 530
SWIDTH 690 0
DWIDTH 23 0
BBX 22 29 1 0
BITMAP
03F800
07FC00
07FE00
0E0E00
0C0600
000000
FFF800
FFFF80
7F9FC0
1F07E0
1F03E0
1F03E0
1F03E0
1F03E0
1F03E0
1F07E0
1F0FC0
1FFF80
1FFE00
1FFE00
1F3F00
1F1F80
1F0F80
1F0FC0
1F07C0
1F07E0
3F03F0
7FC3FC
FFC1FC
ENDCHAR
STARTCHAR 0213
ENCODING 531
SWIDTH 450 0
DWIDTH 15 0
BBX 14 24 1 0
BITMAP
0380
1FF0
3FF8
3FF8
703C
701C
2010
0000
0200
7E7C
FEFC
7EFC
3FBC
1E1C
1E18
1E00
1E00
1E00
1E00
1E00
3F00
3F80
FFE0
FFE0
ENDCHAR
STARTCHAR 0214
ENCODING 532
SWIDTH 660 0
DWIDTH 22 0
BBX 21 29 1 0
BITMAP
038C00
079E00
038E00
01C700
00C300
000000
FFC3F8
FFC3F8
7F83F0
3F00E0
3E00E0
3E00C0
3E00C0
3E00C0
3E00C0
3E00C0
3E00C0
3E00C0
3E00C0
3E00C0
3E00C0
3E00C0
3E00C0
3F00C0
1F00C0
1F01C0
1FC380
0FFF00
03FE00
ENDCHAR
STARTCHAR 0215
ENCODING 533
SWIDTH 600 0
DWIDTH 20 0
BBX 18 24 1 0
BITMAP
3C7000
1EF800
1E7800
0E3800
071C00
030C00
000000
000000
040100
FC3F00
FC7F80
FC1F80
7C0F80
3C0F80
3C0F80
3C0F80
3C0F80
3C0F80
3C0F80
3E0F80
3E0F80
3F8FC0
3FFFC0
1FCE00
ENDCHAR
STARTCHAR 0216
ENCODING 534
SWIDTH 660 0
DWIDTH 22 0
BBX 21 29 1 0
BITMAP
007E00
01FF00
01FF80
038380
030180
000000
FFC3F8
FFC3F8
7F83F0
3F00E0
3E00E0
3E00C0
3E00C0
3E00C0
3E00C0
3E00C0
3E00C0
3E00C0
3E00C0
3E00C0
3E00C0
3E00C0
3E00C0
3F00C0
1F00C0
1F01C0
1FC380
0FFF00
03FE00
ENDCHAR
STARTCHAR 0217
ENCODING 535
SWIDTH 600 0
DWIDTH 20 0
BBX 18 24 1 0
BITMAP
00C000
07F800
0FFC00
1F7E00
1C0E00
180E00
080400
000000
040100
FC3F00
FC7F80
FC1F80
7C0F80
3C0F80
3C0F80
3C0F80
3C0F80
3C0F80
3C0F80
3E0F80
3E0F80
3F8FC0
3FFFC0
1FCE00
ENDCHAR
STARTCHAR 0218
ENCODING 536
SWIDTH 540 0
DWIDTH 18 0
BBX 15 33 2 -10
BITMAP
07E0
3FFC
7C7C
703C
F03C
F01C
F81C
FC00
FE00
7F80
7FE0
3FF8
1FFC
07FE
01FE
007E
E03E
E01E
E01E
F01E
F83C
FFF8
3FF0
0000
0080
07C0
07C0
07C0
03C0
01C0
0380
0700
0600
ENDCHAR
STARTCHAR 0219
ENCODING 537
SWIDTH 450 0
DWIDTH 15 0
BBX 13 26 1 -10
BITMAP
0600
3FF0
7DF0
7870
F870
FC20
7F00
7FC0
3FF0
0FF8
21F8
E0F8
E0F8
F0F8
FFF0
7FE0
0000
0100
0F80
0F80
0F80
0780
0380
0700
0E00
0C00
ENDCHAR
STARTCHAR 021A
ENCODING 538
SWIDTH 630 0
DWIDTH 21 0
BBX 20 33 1 -10
BITMAP
7FFFE0
FFFFE0
FDF3F0
F1F0F0
E1F070
E1F070
C1F040
01F000
01F000
01F000
01F000
01F000
01F000
01F000
01F000
01F000
01F000
01F000
01F000
01F800
01F800
0FFE00
0FFF00
000000
000000
01F000
01F000
01F000
00F000
007000
00E000
00C000
018000
ENDCHAR
STARTCHAR 021B
ENCODING 539
SWIDTH 360 0
DWIDTH 12 0
BBX 12 30 0 -9
BITMAP
0700
1F00
1F00
1F00
1F00
7FF0
FFF0
3F00
1F00
1F00
1F00
1F00
1F00
1F00
1F00
1F00
1F00
1F00
0FF0
0FE0
0000
0080
07C0
07C0
07C0
03C0
0380
0380
0700
0600
ENDCHAR
STARTCHAR 021C
ENCODING 540
SWIDTH 570 0
DWIDTH 19 0
BBX 16 29 2 -6
BITMAP
1F80
FFF0
F8FC
E07C
E07E
E03E
603E
007E
007C
007C
00F8
01E0
0F80
1FF0
1FFC
007E
003E
003F
001F
001F
001F
003F
003E
003E
007C
80FC
FFF0
FFE0
0F00
ENDCHAR
STARTCHAR 021D
ENCODING 541
SWIDTH 480 0
DWIDTH 16 0
BBX 15 24 1 -8
BITMAP
0300
3FF0
7DF8
707C
707C
707C
607C
007C
00F8
01F0
03C0
1FC0
1FF8
00FC
007C
007E
003E
003E
003C
007C
007C
40F8
FFF0
3FC0
ENDCHAR
STARTCHAR 021E
ENCODING 542
SWIDTH 750 0
DWIDTH 25 0
BBX 24 29 1 1
BITMAP
03C380
01FF80
00FE00
007C00
003000
000000
FFC3FF
FFC3FE
7FC3FE
1F00F8
1F00F8
1F00F8
1F00F8
1F00F8
1F00F8
1F00F8
1FFFF8
1FFFF8
1FFCF8
1F00F8
1F00F8
1F00F8
1F00F8
1F00F8
1F00F8
1F00F8
3F01FC
7FC3FE
FFC3FF
ENDCHAR
STARTCHAR 021F
ENCODING 543
SWIDTH 630 0
DWIDTH 21 0
BBX 20 29 1 1
BITMAP
1E1C00
0FFC00
07F000
03E000
01C000
060000
FE0000
FE0000
3E0000
3E0000
3E0000
3E0000
3E0000
3E0000
3E7F00
3EFF80
3FFF80
3E0F80
3E07C0
3E07C0
3E07C0
3E07C0
3E07C0
3E07C0
3E07C0
3E07C0
3F0FC0
FF9FE0
FF9FF0
ENDCHAR
STARTCHAR 0228
ENCODING 552
SWIDTH 600 0
DWIDTH 20 0
BBX 19 31 1 -8
BITMAP
FFFF80
FFFF80
7F1F80
1F0380
1F0180
1F01C0
1F0100
1F0000
1F0C00
1F0C00
1F1C00
1FFC00
1FFC00
1F0C00
1F0C00
1F0000
1F0000
1F00E0
1F00E0
1F01C0
3F83C0
7FFFC0
FFFFC0
00C000
00C000
01F000
00F000
003800
003000
00F000
01C000
ENDCHAR
STARTCHAR 0229
ENCODING 553
SWIDTH 510 0
DWIDTH 17 0
BBX 15 24 1 -8
BITMAP
0180
0FF0
3FF8
3C3C
783C
783E
F83E
FFFE
FFFC
F800
F800
7C00
7C00
3F1E
3FFC
0FF0
0180
0300
03C0
03E0
00E0
00E0
03C0
0380
ENDCHAR
STARTCHAR 022A
ENCODING 554
SWIDTH 720 0
DWIDTH 24 0
BBX 23 33 1 0
BITMAP
07FFC0
07FFC0
000000
000000
038380
07C7C0
07C7C0
07C7C0
038380
000000
007C00
03FF80
0F8FE0
1F03F0
3E01F8
3C00F8
7C00FC
7C007C
FC007C
F8007E
F8007E
F8007E
F8007E
FC007E
FC007C
7C007C
7C007C
7E0078
3E00F8
1F01F0
0F83E0
07FFC0
01FF00
ENDCHAR
STARTCHAR 022B
ENCODING 555
SWIDTH 570 0
DWIDTH 19 0
BBX 17 26 1 0
BITMAP
3FFE00
3FFE00
000000
000000
081800
3E3C00
3E3E00
3E3E00
1C3C00
000000
018000
0FF800
1FFE00
3C3E00
7C1F00
781F00
F80F80
F80F80
F80F80
F80F80
F80F80
7C0F00
7C1F00
3E1E00
1FFC00
0FF800
ENDCHAR
STARTCHAR 022C
ENCODING 556
SWIDTH 720 0
DWIDTH 24 0
BBX 23 33 1 0
BITMAP
07FFC0
07FF80
000000
000000
00E080
03FF80
07FF80
021F00
000000
000000
007C00
03FF80
0F8FE0
1F03F0
3E01F8
3C00F8
7C00FC
7C007C
FC007C
F8007E
F8007E
F8007E
F8007E
FC007E
FC007C
7C007C
7C007C
7E0078
3E00F8
1F01F0
0F83E0
07FFC0
01FF00
ENDCHAR
STARTCHAR 022D
ENCODING 557
SWIDTH 570 0
DWIDTH 19 0
BBX 17 26 1 0
BITMAP
3FFE00
3FFC00
000000
000000
060000
1FCE00
3FFC00
31F800
002000
000000
018000
0FF800
1FFE00
3C3E00
7C1F00
781F00
F80F80
F80F80
F80F80
F80F80
F80F80
7C0F00
7C1F00
3E1E00
1FFC00
0FF800
ENDCHAR
STARTCHAR 0230
ENCODING 560
SWIDTH 720 0
DWIDTH 24 0
BBX 23 32 1 0
BITMAP
07FFC0
07FFC0
000000
003800
007C00
007C00
007C00
007800
000000
007C00
03FF80
0F8FE0
1F03F0
3E01F8
3C00F8
7C00FC
7C007C
FC007C
F8007E
F8007E
F8007E
F8007E
FC007E
FC007C
7C007C
7C007C
7E0078
3E00F8
1F01F0
0F83E0
07FFC0
01FF00
ENDCHAR
STARTCHAR 0231
ENCODING 561
SWIDTH 570 0
DWIDTH 19 0
BBX 17 25 1 0
BITMAP
3FFE00
3FFE00
000000
000000
03E000
03E000
03E000
03E000
000000
018000
0FF800
1FFE00
3C3E00
7C1F00
781F00
F80F80
F80F80
F80F80
F80F80
F80F80
7C0F00
7C1F00
3E1E00
1FFC00
0FF800
ENDCHAR
STARTCHAR 0232
ENCODING 562
SWIDTH 630 0
DWIDTH 21 0
BBX 19 27 1 0
BITMAP
07FF80
07FF80
000000
000000
FF87E0
FF87E0
FF03E0
3F01C0
3F0180
1F0300
1F8300
0F8700
0FC600
07CE00
07EC00
03EC00
03F800
01F800
01F000
01F000
01F000
01F000
01F000
01F000
03F800
0FFE00
0FFE00
ENDCHAR
STARTCHAR 0233
ENCODING 563
SWIDTH 540 0
DWIDTH 18 0
BBX 18 29 0 -8
BITMAP
07FF80
0FFF80
000000
000000
000000
000000
FFCFC0
7FCFC0
3F0780
1F0300
1F0700
0F8600
0F8E00
07CC00
07CC00
03F800
03F800
01F800
01F000
01F000
00E000
00E000
00C000
00C000
01C000
7F8000
7F8000
7F0000
3E0000
ENDCHAR
STARTCHAR 0237
ENCODING 567
SWIDTH 300 0
DWIDTH 10 0
BBX 7 23 1 -7
BITMAP
7E
FE
FE
3E
1E
1E
1E
1E
1E
1E
1E
1E
1E
1E
1E
3E
3E
3C
3C
78
F0
E0
C0
ENDCHAR
STARTCHAR 0258
ENCODING 600
SWIDTH 480 0
DWIDTH 16 0
BBX 15 16 1 0
BITMAP
0100
1FF0
3FF8
787C
787C
F83C
F83E
FFFE
FFFE
003E
003E
603C
707C
70F8
7FF0
7FE0
ENDCHAR
STARTCHAR 0259
ENCODING 601
SWIDTH 510 0
DWIDTH 17 0
BBX 15 16 1 0
BITMAP
0300
3FE0
7FF8
E0FC
007C
007C
003E
01FE
FFFE
FFFE
F83E
F83C
787C
7C78
3FF0
0FE0
ENDCHAR
STARTCHAR 0272
ENCODING 626
SWIDTH 630 0
DWIDTH 21 0
BBX 20 23 1 -7
BITMAP
7E7F00
FEFF80
FFFF80
3F8FC0
3F07C0
3F07C0
3E07C0
3E07C0
3E07C0
3E07C0
3E07C0
3E07C0
3E0FC0
3E1FF0
3E1FF0
3E0000
3E0000
3C0000
3C0000
780000
F00000
E00000
C00000
ENDCHAR
STARTCHAR 0292
ENCODING 658
SWIDTH 510 0
DWIDTH 17 0
BBX 14 23 2 -8
BITMAP
FFF8
FFF8
E1F8
E1F0
E3F0
03E0
07C0
0FC0
0F80
1F80
1FE0
1FF8
01F8
00FC
007C
007C
007C
407C
C07C
E0F8
F1F0
FFE0
7F80
ENDCHAR
STARTCHAR 02B9
ENCODING 697
SWIDTH 270 0
DWIDTH 9 0
BBX 6 9 2 15
BITMAP
0C
3C
38
38
70
70
60
E0
C0
ENDCHAR
STARTCHAR 02BA
ENCODING 698
SWIDTH 450 0
DWIDTH 15 0
BBX 12 9 2 15
BITMAP
0C30
3CF0
38E0
38E0
71C0
71C0
6180
E180
C300
ENDCHAR
STARTCHAR 02BB
ENCODING 699
SWIDTH 270 0
DWIDTH 9 0
BBX 5 9 2 15
BITMAP
38
30
70
60
F0
F8
F8
F8
F0
ENDCHAR
STARTCHAR 02BC
ENCODING 700
SWIDTH 270 0
DWIDTH 9 0
BBX 6 10 2 14
BITMAP
18
7C
FC
FC
38
38
38
30
70
E0
ENDCHAR
STARTCHAR 02BE
ENCODING 702
SWIDTH 240 0
DWIDTH 8 0
BBX 6 9 1 15
BITMAP
E0
F8
3C
1C
1C
1C
3C
F8
F0
ENDCHAR
STARTCHAR 02BF
ENCODING 703
SWIDTH 240 0
DWIDTH 8 0
BBX 6 9 1 15
BITMAP
1C
3C
78
F0
F0
F0
70
7C
3C
ENDCHAR
STARTCHAR 02C6
ENCODING 710
SWIDTH 300 0
DWIDTH 10 0
BBX 12 7 -1 17
BITMAP
0600
0F00
1F80
3FC0
71E0
E0F0
8020
ENDCHAR
STARTCHAR 02C7
ENCODING 711
SWIDTH 300 0
DWIDTH 10 0
BBX 12 7 -1 17
BITMAP
4020
E070
79E0
3FC0
1F80
0F00
0E00
ENDCHAR
STARTCHAR 02C8
ENCODING 712
SWIDTH 210 0
DWIDTH 7 0
BBX 3 9 2 14
BITMAP
E0
E0
E0
E0
E0
E0
E0
E0
E0
ENDCHAR
STARTCHAR 02C9
ENCODING 713
SWIDTH 480 0
DWIDTH 16 0
BBX 12 2 2 19
BITMAP
FFF0
FFF0
ENDCHAR
STARTCHAR 02CA
ENCODING 714
SWIDTH 300 0
DWIDTH 10 0
BBX 6 6 5 18
BITMAP
3C
3C
78
70
60
E0
ENDCHAR
STARTCHAR 02CB
ENCODING 715
SWIDTH 300 0
DWIDTH 10 0
BBX 6 6 5 18
BITMAP
70
F8
78
3C
1C
0C
ENDCHAR
STARTCHAR 02CC
ENCODING 716
SWIDTH 210 0
DWIDTH 7 0
BBX 3 9 2 -6
BITMAP
E0
E0
E0
E0
E0
E0
E0
E0
E0
ENDCHAR
STARTCHAR 02D8
ENCODING 728
SWIDTH 300 0
DWIDTH 10 0
BBX 12 7 -1 17
BITMAP
4030
E030
E070
FFF0
7FE0
3FC0
0700
ENDCHAR
STARTCHAR 02D9
ENCODING 729
SWIDTH 300 0
DWIDTH 10 0
BBX 6 5 2 17
BITMAP
78
FC
FC
F8
30
ENDCHAR
STARTCHAR 02DA
ENCODING 730
SWIDTH 300 0
DWIDTH 10 0
BBX 8 7 1 17
BITMAP
3C
7F
E7
E7
E7
7E
18
ENDCHAR
STARTCHAR 02DB
ENCODING 731
SWIDTH 300 0
DWIDTH 10 0
BBX 8 9 1 -8
BITMAP
1E
38
70
F0
F0
F0
FF
FF
7C
ENDCHAR
STARTCHAR 02DC
ENCODING 732
SWIDTH 300 0
DWIDTH 10 0
BBX 12 5 -1 18
BITMAP
1000
7E30
FFF0
CFE0
83C0
ENDCHAR
STARTCHAR 02DD
ENCODING 733
SWIDTH 300 0
DWIDTH 10 0
BBX 12 6 -1 18
BITMAP
3CF0
79E0
71E0
71C0
E380
C300
ENDCHAR
STARTCHAR 0300
ENCODING 768
SWIDTH 0 0
DWIDTH 0 0
BBX 6 6 2 18
BITMAP
70
F0
78
38
1C
1C
ENDCHAR
STARTCHAR 0301
ENCODING 769
SWIDTH 0 0
DWIDTH 0 0
BBX 6 6 2 18
BITMAP
3C
78
70
70
E0
C0
ENDCHAR
STARTCHAR 0302
ENCODING 770
SWIDTH 0 0
DWIDTH 0 0
BBX 12 7 2 17
BITMAP
0600
0F00
1F80
3FC0
71E0
E0F0
8020
ENDCHAR
STARTCHAR 0303
ENCODING 771
SWIDTH 0 0
DWIDTH 0 0
BBX 12 5 2 18
BITMAP
1800
7E30
FFF0
CFE0
81C0
ENDCHAR
STARTCHAR 0304
ENCODING 772
SWIDTH 0 0
DWIDTH 0 0
BBX 12 2 2 19
BITMAP
FFF0
FFF0
ENDCHAR
STARTCHAR 0306
ENCODING 774
SWIDTH 0 0
DWIDTH 0 0
BBX 12 7 2 17
BITMAP
C030
C030
E070
FFF0
7FE0
3FC0
0700
ENDCHAR
STARTCHAR 0307
ENCODING 775
SWIDTH 0 0
DWIDTH 0 0
BBX 5 5 2 17
BITMAP
F8
F8
F8
F8
20
ENDCHAR
STARTCHAR 0308
ENCODING 776
SWIDTH 0 0
DWIDTH 0 0
BBX 12 5 2 17
BITMAP
70E0
F9F0
F9F0
F9F0
6060
ENDCHAR
STARTCHAR 0309
ENCODING 777
SWIDTH 0 0
DWIDTH 0 0
BBX 8 6 2 18
BITMAP
FF
E7
CF
1C
38
18
ENDCHAR
STARTCHAR 030A
ENCODING 778
SWIDTH 0 0
DWIDTH 0 0
BBX 8 7 2 17
BITMAP
3C
FE
C7
C7
E6
FE
10
ENDCHAR
STARTCHAR 030B
ENCODING 779
SWIDTH 0 0
DWIDTH 0 0
BBX 12 6 2 18
BITMAP
3CF0
79E0
71E0
71C0
E380
C300
ENDCHAR
STARTCHAR 030C
ENCODING 780
SWIDTH 0 0
DWIDTH 0 0
BBX 12 7 2 17
BITMAP
4020
E0F0
F9E0
3FC0
1F80
1F00
0E00
ENDCHAR
STARTCHAR 030F
ENCODING 783
SWIDTH 0 0
DWIDTH 0 0
BBX 12 6 2 18
BITMAP
73C0
F1C0
79E0
38E0
1C70
1C70
ENDCHAR
STARTCHAR 0311
ENCODING 785
SWIDTH 0 0
DWIDTH 0 0
BBX 12 7 2 17
BITMAP
0600
3FC0
7FE0
FBF0
E070
C070
4020
ENDCHAR
STARTCHAR 0312
ENCODING 786
SWIDTH 0 0
DWIDTH 0 0
BBX 5 7 2 17
BITMAP
30
70
E0
F0
F8
F8
E0
ENDCHAR
STARTCHAR 0313
ENCODING 787
SWIDTH 0 0
DWIDTH 0 0
BBX 5 7 2 17
BITMAP
38
F8
F8
F8
70
70
E0
ENDCHAR
STARTCHAR 031B
ENCODING 795
SWIDTH 0 0
DWIDTH 0 0
BBX 7 6 -3 13
BITMAP
0E
0E
0E
1E
7C
F0
ENDCHAR
STARTCHAR 0323
ENCODING 803
SWIDTH 0 0
DWIDTH 0 0
BBX 5 4 2 -7
BITMAP
F8
F8
F8
F8
ENDCHAR
STARTCHAR 0324
ENCODING 804
SWIDTH 0 0
DWIDTH 0 0
BBX 12 4 2 -7
BITMAP
F0F0
F9F0
F9F0
F0F0
ENDCHAR
STARTCHAR 0325
ENCODING 805
SWIDTH 0 0
DWIDTH 0 0
BBX 8 6 2 -8
BITMAP
7E
EE
C7
C7
EE
7C
ENDCHAR
STARTCHAR 0326
ENCODING 806
SWIDTH 0 0
DWIDTH 0 0
BBX 5 9 2 -10
BITMAP
10
F8
F8
F8
78
38
70
E0
C0
ENDCHAR
STARTCHAR 0327
ENCODING 807
SWIDTH 0 0
DWIDTH 0 0
BBX 5 9 2 -8
BITMAP
30
60
C0
F0
F8
38
38
F0
E0
ENDCHAR
STARTCHAR 0328
ENCODING 808
SWIDTH 0 0
DWIDTH 0 0
BBX 8 9 2 -8
BITMAP
1C
38
70
F0
F0
F0
FE
FF
7C
ENDCHAR
STARTCHAR 032E
ENCODING 814
SWIDTH 0 0
DWIDTH 0 0
BBX 11 5 2 -7
BITMAP
C0E0
F1E0
FFC0
7F80
0E00
ENDCHAR
STARTCHAR 0331
ENCODING 817
SWIDTH 0 0
DWIDTH 0 0
BBX 12 2 2 -5
BITMAP
FFF0
FFF0
ENDCHAR
STARTCHAR 0335
ENCODING 821
SWIDTH 0 0
DWIDTH 0 0
BBX 10 2 2 10
BITMAP
FFC0
C000
ENDCHAR
STARTCHAR 0336
ENCODING 822
SWIDTH 0 0
DWIDTH 0 0
BBX 21 3 2 7
BITMAP
FFFFF8
FFFFF8
FFFFF0
ENDCHAR
STARTCHAR 0337
ENCODING 823
SWIDTH 0 0
DWIDTH 0 0
BBX 15 9 2 6
BITMAP
0004
001C
007E
01F8
03E0
0F80
3E00
F800
E000
ENDCHAR
STARTCHAR 0338
ENCODING 824
SWIDTH 0 0
DWIDTH 0 0
BBX 15 9 2 6
BITMAP
0004
001C
007E
01F8
03E0
0F80
3E00
F800
E000
ENDCHAR
STARTCHAR 0374
ENCODING 884
SWIDTH 270 0
DWIDTH 9 0
BBX 6 9 2 15
BITMAP
0C
3C
38
38
70
70
60
E0
C0
ENDCHAR
STARTCHAR 0375
ENCODING 885
SWIDTH 270 0
DWIDTH 9 0
BBX 5 9 2 -7
BITMAP
08
18
18
38
30
70
70
F0
E0
ENDCHAR
STARTCHAR 037E
ENCODING 894
SWIDTH 270 0
DWIDTH 9 0
BBX 6 22 2 -6
BITMAP
10
78
FC
FC
78
30
00
00
00
00
00
00
38
7C
FC
FC
3C
38
38
30
70
E0
ENDCHAR
STARTCHAR 0384
ENCODING 900
SWIDTH 300 0
DWIDTH 10 0
BBX 4 6 3 18
BITMAP
F0
F0
E0
E0
E0
C0
ENDCHAR
STARTCHAR 0385
ENCODING 901
SWIDTH 300 0
DWIDTH 10 0
BBX 14 5 -2 19
BITMAP
0380
73B0
F37C
FB7C
7738
ENDCHAR
STARTCHAR 0386
ENCODING 902
SWIDTH 690 0
DWIDTH 23 0
BBX 22 23 1 0
BITMAP
787000
787000
787000
70F800
70F800
71FC00
61FC00
01FE00
033E00
033F00
071F00
061F00
061F80
0C0F80
0C0FC0
1FFFC0
1FFFE0
1803E0
3003F0
3003F0
7803F8
FC07FC
FC07FC
ENDCHAR
STARTCHAR 0387
ENCODING 903
SWIDTH 270 0
DWIDTH 9 0
BBX 5 5 2 10
BITMAP
78
F8
F8
F8
70
ENDCHAR
STARTCHAR 0388
ENCODING 904
SWIDTH 600 0
DWIDTH 20 0
BBX 24 23 -4 0
BITMAP
F7FFFC
F7FFFC
E3F8FC
E0F81C
E0F80C
C0F80E
C0F808
00F800
00F860
00F860
00F8E0
00FFE0
00FFE0
00F860
00F860
00F800
00F800
00F807
00F807
00F80E
01FC1E
03FFFE
07FFFE
ENDCHAR
STARTCHAR 0389
ENCODING 905
SWIDTH 750 0
DWIDTH 25 0
BBX 30 23 -5 0
BITMAP
7BFF0FFC
7BFF0FF8
71FF0FF8
707C03E0
707C03E0
E07C03E0
E07C03E0
007C03E0
007C03E0
007C03E0
007FFFE0
007FFFE0
007FF3E0
007C03E0
007C03E0
007C03E0
007C03E0
007C03E0
007C03E0
007C03E0
00FC07F0
01FF0FF8
03FF0FFC
ENDCHAR
STARTCHAR 038A
ENCODING 906
SWIDTH 360 0
DWIDTH 12 0
BBX 16 23 -5 0
BITMAP
7BFF
7BFF
71FF
707C
707C
E07C
E07C
007C
007C
007C
007C
007C
007C
007C
007C
007C
007C
007C
007C
007C
00FC
01FF
03FF
ENDCHAR
STARTCHAR 038C
ENCODING 908
SWIDTH 720 0
DWIDTH 24 0
BBX 27 23 -3 0
BITMAP
F807C000
F03FF800
F0F8FE00
F1F03F00
E3E01F80
E3C00F80
E7C00FC0
07C007C0
0FC007C0
0F8007E0
0F8007E0
0F8007E0
0F8007E0
0FC007E0
0FC007C0
07C007C0
07C007C0
07E00780
03E00F80
01F01F00
00F83E00
007FFC00
001FF000
ENDCHAR
STARTCHAR 038E
ENCODING 910
SWIDTH 630 0
DWIDTH 21 0
BBX 25 23 -5 0
BITMAP
F3FE1F80
F3FE1F80
F3FC0F80
E0FC0700
E0FC0600
E07C0C00
C07E0C00
003E1C00
003F1800
001F3800
001FB000
000FB000
000FE000
0007E000
0007C000
0007C000
0007C000
0007C000
0007C000
0007C000
000FE000
003FF800
003FF800
ENDCHAR
STARTCHAR 038F
ENCODING 911
SWIDTH 840 0
DWIDTH 28 0
BBX 28 23 -1 0
BITMAP
F00FC000
F07FF800
F1F87E00
E3F03F00
E7E01F80
E7C00F80
CFC00FC0
0F8007C0
0F8007C0
0F8007C0
0F8007C0
0F8007C0
0F8007C0
0F8007C0
07800780
03C00F00
03C00F00
18E01C70
1C7018E0
1FF03FE0
1FF87FE0
1FF87FE0
1FF87FE0
ENDCHAR
STARTCHAR 0390
ENCODING 912
SWIDTH 330 0
DWIDTH 11 0
BBX 13 23 0 1
BITMAP
0780
6730
F778
F678
F678
0000
0000
0100
3F00
7F00
3F00
1F00
0F00
0F00
0F00
0F00
0F00
0F00
0F00
0F00
0F80
0FE0
07E0
ENDCHAR
STARTCHAR 0391
ENCODING 913
SWIDTH 690 0
DWIDTH 23 0
BBX 22 23 1 0
BITMAP
007000
007000
007000
00F800
00F800
01FC00
01FC00
01FE00
033E00
033F00
071F00
061F00
061F80
0C0F80
0C0FC0
1FFFC0
1FFFE0
1803E0
3003F0
3003F0
7803F8
FC07FC
FC07FC
ENDCHAR
STARTCHAR 0392
ENCODING 914
SWIDTH 660 0
DWIDTH 22 0
BBX 20 23 1 0
BITMAP
FFE000
FFFF00
7FBFC0
1F0FC0
1F07C0
1F07C0
1F07C0
1F07C0
1F07C0
1F0F80
1FFE00
1FFF80
1F1FC0
1F07E0
1F03F0
1F03F0
1F03F0
1F03F0
1F03F0
1F03E0
3F87E0
7FFF80
FFFE00
ENDCHAR
STARTCHAR 0393
ENCODING 915
SWIDTH 570 0
DWIDTH 19 0
BBX 18 23 1 0
BITMAP
FFFF80
FFFF80
7F1F80
1F0380
1F0180
1F01C0
1F0100
1F0000
1F0000
1F0000
1F0000
1F0000
1F0000
1F0000
1F0000
1F0000
1F0000
1F0000
1F0000
1F0000
3F8000
FFE000
FFE000
ENDCHAR
STARTCHAR 0394
ENCODING 916
SWIDTH 660 0
DWIDTH 22 0
BBX 21 23 1 0
BITMAP
006000
007000
00F000
00F800
01F800
01F800
037C00
037C00
077E00
063E00
0E3F00
0C1F00
0C1F80
180F80
180FC0
3007C0
3007E0
6007E0
6003E0
E003F0
C001F0
FFFFF8
FFFFF0
ENDCHAR
STARTCHAR 0395
ENCODING 917
SWIDTH 600 0
DWIDTH 20 0
BBX 19 23 1 0
BITMAP
FFFF80
FFFF80
7F1F80
1F0380
1F0180
1F01C0
1F0100
1F0000
1F0C00
1F0C00
1F1C00
1FFC00
1FFC00
1F0C00
1F0C00
1F0000
1F0000
1F00E0
1F00E0
1F01C0
3F83C0
7FFFC0
FFFFC0
ENDCHAR
STARTCHAR 0396
ENCODING 918
SWIDTH 600 0
DWIDTH 20 0
BBX 18 23 1 0
BITMAP
3FFF80
3FFF80
3E1F80
381F80
783F00
703E00
707E00
00FC00
00FC00
01F800
01F800
03F000
03F000
07E000
0FC000
0FC000
1F8000
1F81C0
3F0380
3E0380
7E0780
FFFF80
7FFF80
ENDCHAR
STARTCHAR 0397
ENCODING 919
SWIDTH 750 0
DWIDTH 25 0
BBX 24 23 1 0
BITMAP
FFC3FF
FFC3FE
7FC3FE
1F00F8
1F00F8
1F00F8
1F00F8
1F00F8
1F00F8
1F00F8
1FFFF8
1FFFF8
1FFCF8
1F00F8
1F00F8
1F00F8
1F00F8
1F00F8
1F00F8
1F00F8
3F01FC
7FC3FE
FFC3FF
ENDCHAR
STARTCHAR 0398
ENCODING 920
SWIDTH 720 0
DWIDTH 24 0
BBX 23 23 1 0
BITMAP
007C00
03FF80
0F8FE0
1F03F0
3E01F8
3C00F8
7C00FC
7C007C
FC007C
F8007E
F9FF7E
F9FF7E
F9807E
FC007E
FC007C
7C007C
7C007C
7E0078
3E00F8
1F01F0
0F83E0
07FFC0
01FF00
ENDCHAR
STARTCHAR 0399
ENCODING 921
SWIDTH 360 0
DWIDTH 12 0
BBX 10 23 1 0
BITMAP
FFC0
FFC0
7FC0
1F00
1F00
1F00
1F00
1F00
1F00
1F00
1F00
1F00
1F00
1F00
1F00
1F00
1F00
1F00
1F00
1F00
3F00
7FC0
FFC0
ENDCHAR
STARTCHAR 039A
ENCODING 922
SWIDTH 720 0
DWIDTH 24 0
BBX 23 23 1 0
BITMAP
FFC7F8
FFC7F8
7FC3F0
1F01C0
1F0380
1F0700
1F0E00
1F1C00
1F3800
1F7000
1FF000
1FF800
1FFC00
1F7E00
1F3F00
1F3F00
1F1F80
1F0FC0
1F0FE0
1F07E0
3F03F8
7FC3FE
FFC1FC
ENDCHAR
STARTCHAR 039B
ENCODING 923
SWIDTH 660 0
DWIDTH 22 0
BBX 21 23 1 0
BITMAP
006000
006000
00F000
00F000
01F800
01F800
01FC00
037C00
037C00
067E00
063E00
063F00
0C1F00
0C1F00
0C1F80
180F80
180FC0
380FC0
3007E0
3007E0
7807F0
FC0FF8
FC0FF8
ENDCHAR
STARTCHAR 039C
ENCODING 924
SWIDTH 960 0
DWIDTH 32 0
BBX 30 23 1 0
BITMAP
7F8003F8
7F8007F8
3F8007F0
0FC007E0
0FC00FE0
0FE00FE0
0FE01FE0
1FF01BE0
1DF01BE0
1DF03BE0
19F833E0
18F833E0
18FC63E0
187C63E0
187EE3F0
183EC1F0
183FC1F0
181F81F0
381F81F0
381F81F0
780F03F8
FE0F07FC
FE0607FC
ENDCHAR
STARTCHAR 039D
ENCODING 925
SWIDTH 720 0
DWIDTH 24 0
BBX 22 23 1 0
BITMAP
FE01FC
FF01FC
7F00F8
1F8070
1FC070
1FC030
1FE030
1BF030
1BF830
19F830
18FC30
187E30
187F30
183F30
181FB0
180FF0
180FF0
1807F0
1803F0
3801F0
3C01F0
FF00F0
FF0070
ENDCHAR
STARTCHAR 039E
ENCODING 926
SWIDTH 600 0
DWIDTH 20 0
BBX 18 23 1 0
BITMAP
7FFFC0
7FFFC0
7FFFC0
7FFFC0
7001C0
E001C0
200000
000000
1C0600
0C0E00
0FFE00
0FFE00
0FFE00
0E0E00
0C0600
000000
000000
E000C0
E001C0
FC07C0
FFFFC0
7FFFC0
7FFFC0
ENDCHAR
STARTCHAR 039F
ENCODING 927
SWIDTH 720 0
DWIDTH 24 0
BBX 23 23 1 0
BITMAP
007C00
03FF80
0F8FE0
1F03F0
3E01F8
3C00F8
7C00FC
7C007C
FC007C
F8007E
F8007E
F8007E
F8007E
FC007E
FC007C
7C007C
7C007C
7E0078
3E00F8
1F01F0
0F83E0
07FFC0
01FF00
ENDCHAR
STARTCHAR 03A0
ENCODING 928
SWIDTH 750 0
DWIDTH 25 0
BBX 23 23 1 0
BITMAP
FFFFFE
FFFFFE
7F00FC
1F00F8
1F00F8
1F00F8
1F00F8
1F00F8
1F00F8
1F00F8
1F00F8
1F00F8
1F00F8
1F00F8
1F00F8
1F00F8
1F00F8
1F00F8
1F00F8
1F00F8
3F01F8
7FC7FE
FFC7FE
ENDCHAR
STARTCHAR 03A1
ENCODING 929
SWIDTH 630 0
DWIDTH 21 0
BBX 19 23 1 0
BITMAP
FFF800
FFFF00
7FBF80
1F0FC0
1F07E0
1F03E0
1F03E0
1F03E0
1F03E0
1F03E0
1F03E0
1F07C0
1F0F80
1F7F00
1F7E00
1F0000
1F0000
1F0000
1F0000
1F0000
3F8000
FFE000
FFE000
ENDCHAR
STARTCHAR 03A3
ENCODING 931
SWIDTH 600 0
DWIDTH 20 0
BBX 19 23 1 0
BITMAP
7FFF80
7FFF80
7E1F80
3E0780
3F0380
1F8380
0FC180
07C000
07E000
03F000
01F800
00F800
01F800
03F000
07E000
07E000
0FC000
1F80E0
3F01C0
3E01C0
7E03C0
FFFFC0
7FFFC0
ENDCHAR
STARTCHAR 03A4
ENCODING 932
SWIDTH 630 0
DWIDTH 21 0
BBX 20 23 1 0
BITMAP
7FFFE0
FFFFE0
FDF3F0
F1F0F0
E1F070
E1F070
C1F040
01F000
01F000
01F000
01F000
01F000
01F000
01F000
01F000
01F000
01F000
01F000
01F000
01F800
01F800
0FFE00
0FFF00
ENDCHAR
STARTCHAR 03A5
ENCODING 933
SWIDTH 630 0
DWIDTH 21 0
BBX 19 23 1 0
BITMAP
FF87E0
FF87E0
FF03E0
3F01C0
3F0180
1F0300
1F8300
0F8700
0FC600
07CE00
07EC00
03EC00
03F800
01F800
01F000
01F000
01F000
01F000
01F000
01F000
03F800
0FFE00
0FFE00
ENDCHAR
STARTCHAR 03A6
ENCODING 934
SWIDTH 750 0
DWIDTH 25 0
BBX 23 23 1 0
BITMAP
01FF80
01FF80
00FF00
007C00
01FF80
0FFFF0
3FFFF8
7E7C7C
7C7C3E
F87C3E
F87C3E
F87C3E
F87C3E
F87C3E
7C7C3E
7C7C7C
3F7CFC
1FFFF8
07FFE0
007C00
007E00
01FF00
01FF80
ENDCHAR
STARTCHAR 03A7
ENCODING 935
SWIDTH 690 0
DWIDTH 23 0
BBX 21 23 1 0
BITMAP
FFC3F8
FFC3F8
7FC3F0
3F81E0
1F81C0
0FC380
07E300
07E700
03FE00
03FC00
01FC00
00FC00
00FC00
01FE00
01BF00
03BF00
071F80
061F80
0E0FC0
1C0FE0
7C07F0
FF1FF8
FF1FF8
ENDCHAR
STARTCHAR 03A8
ENCODING 936
SWIDTH 810 0
DWIDTH 27 0
BBX 26 23 1 0
BITMAP
0CFFC7C0
FCFFCFC0
FC7F9F00
7C3F1F00
7C3E1F00
7C3E1F00
7C3E1F00
7C3E1F00
3C3E1F00
3C3E1E00
3E3E1E00
3E3E3E00
1F3E7C00
1FFFF800
07FFF000
003E0000
003E0000
003E0000
003E0000
003F0000
003F0000
01FFC000
01FFE000
ENDCHAR
STARTCHAR 03A9
ENCODING 937
SWIDTH 840 0
DWIDTH 28 0
BBX 25 23 2 0
BITMAP
007E0000
03FFC000
0FC3F000
1F81F800
3F00FC00
3E007C00
7E007E00
7C003E00
7C003E00
7C003E00
7C003E00
7C003E00
7C003E00
7C003E00
3C003C00
1E007800
1E007800
C700E380
E380C700
FF81FF00
FFC3FF00
FFC3FF00
FFC3FF00
ENDCHAR
STARTCHAR 03AA
ENCODING 938
SWIDTH 360 0
DWIDTH 12 0
BBX 13 29 0 0
BITMAP
7070
F8F0
F8F8
F8F0
7070
0000
7FE0
7FE0
3FE0
0F80
0F80
0F80
0F80
0F80
0F80
0F80
0F80
0F80
0F80
0F80
0F80
0F80
0F80
0F80
0F80
0F80
1F80
3FE0
7FE0
ENDCHAR
STARTCHAR 03AB
ENCODING 939
SWIDTH 630 0
DWIDTH 21 0
BBX 19 29 1 0
BITMAP
038700
07CF80
07CF80
07CF80
038700
000000
FF87E0
FF87E0
FF03E0
3F01C0
3F0180
1F0300
1F8300
0F8700
0FC600
07CE00
07EC00
03EC00
03F800
01F800
01F000
01F000
01F000
01F000
01F000
01F000
03F800
0FFE00
0FFE00
ENDCHAR
STARTCHAR 03AC
ENCODING 940
SWIDTH 630 0
DWIDTH 21 0
BBX 20 24 1 0
BITMAP
01F000
01E000
01E000
01C000
01C000
01C000
000000
000000
010300
0FE3E0
1FF7E0
3C37C0
7C1F80
781F80
F80F00
F80F00
F80F00
F81E00
F81E00
FC3F00
7C3F00
7E7B80
3FF3F0
1FE1F0
ENDCHAR
STARTCHAR 03AD
ENCODING 941
SWIDTH 420 0
DWIDTH 14 0
BBX 12 24 1 0
BITMAP
03C0
03C0
0380
0380
0380
0300
0000
0000
0000
1FF0
3CF0
7C70
7C70
7C00
3E00
0F80
3F80
7E00
F800
F800
F830
FC70
7FF0
1FF0
ENDCHAR
STARTCHAR 03AE
ENCODING 942
SWIDTH 630 0
DWIDTH 21 0
BBX 18 32 1 -8
BITMAP
00F800
00F000
00F000
00E000
00E000
00E000
000000
000000
000000
7E7E00
FEFF00
7FFF80
3F8F80
1F0780
1F0780
1E0780
1E0780
1E0780
1E0780
1E0780
1E0780
1E0780
1E0780
1E0780
000780
000780
000780
0007C0
0007C0
0007C0
000F00
000400
ENDCHAR
STARTCHAR 03AF
ENCODING 943
SWIDTH 330 0
DWIDTH 11 0
BBX 10 24 1 0
BITMAP
0F00
0F00
0E00
0E00
0E00
0C00
0000
0000
0200
7E00
FE00
7E00
3E00
1E00
1E00
1E00
1E00
1E00
1E00
1E00
1E00
1F00
1FC0
0FC0
ENDCHAR
STARTCHAR 03B0
ENCODING 944
SWIDTH 510 0
DWIDTH 17 0
BBX 16 23 0 1
BITMAP
00E0
18EC
3CDF
3FDF
3DCE
0000
0000
0002
7E1F
FE3F
7E1F
3E07
3E07
1E03
1E03
1E03
1E03
1E03
1E07
1F0E
1FFC
0FFC
07F0
ENDCHAR
STARTCHAR 03B1
ENCODING 945
SWIDTH 630 0
DWIDTH 21 0
BBX 20 16 1 0
BITMAP
010300
0FE3E0
1FF7E0
3C37C0
7C1F80
781F80
F80F00
F80F00
F80F00
F81E00
F81E00
FC3F00
7C3F00
7E7B80
3FF3F0
1FE1F0
ENDCHAR
STARTCHAR 03B2
ENCODING 946
SWIDTH 570 0
DWIDTH 19 0
BBX 16 32 2 -8
BITMAP
03E0
1FF8
3CFC
783E
783E
F83E
F83E
F83E
F83E
F87C
F9F8
FBF0
FBFC
F87E
F83F
F81F
F81F
F81F
F81F
F81F
F81E
F83E
FFFC
FFF0
F800
F800
F800
F800
F800
F800
F000
C000
ENDCHAR
STARTCHAR 03B3
ENCODING 947
SWIDTH 540 0
DWIDTH 18 0
BBX 18 24 0 -8
BITMAP
100000
FE1FC0
7F0FC0
1F8700
0F8700
0F8600
07CE00
07CC00
03DC00
03F800
03F800
01F000
01F000
00F000
00F000
01F000
01F800
017800
033800
033800
033800
033800
037800
01F000
ENDCHAR
STARTCHAR 03B4
ENCODING 948
SWIDTH 540 0
DWIDTH 18 0
BBX 16 24 1 0
BITMAP
03F0
0FF8
1FF8
1FF8
1C00
1C00
1E00
1F00
0FC0
0FE0
07F8
0FFC
3FFE
7C7E
783F
F81F
F81F
F81F
F81F
F81F
7C1F
7E3E
3FFC
0FF0
ENDCHAR
STARTCHAR 03B5
ENCODING 949
SWIDTH 420 0
DWIDTH 14 0
BBX 12 15 1 0
BITMAP
1FF0
3CF0
7C70
7C70
7C00
3E00
0F80
3F80
7E00
F800
F800
F830
FC70
7FF0
1FF0
ENDCHAR
STARTCHAR 03B6
ENCODING 950
SWIDTH 450 0
DWIDTH 15 0
BBX 14 32 1 -8
BITMAP
7FF8
7FFC
7FFC
7FFC
FFF8
E070
E1E0
03C0
0780
0F00
1E00
3E00
3C00
7C00
7C00
FC00
FC00
FC00
FC00
7F00
7FE0
3FF0
1FF8
07FC
00FC
007C
007C
0078
00F8
01F0
03E0
0380
ENDCHAR
STARTCHAR 03B7
ENCODING 951
SWIDTH 630 0
DWIDTH 21 0
BBX 18 23 1 -7
BITMAP
7E7E00
FEFF00
7FFF80
3F8F80
1F0780
1F0780
1E0780
1E0780
1E0780
1E0780
1E0780
1E0780
1E0780
1E0780
1E0780
000780
000780
000780
0007C0
0007C0
0007C0
000F00
000400
ENDCHAR
STARTCHAR 03B8
ENCODING 952
SWIDTH 570 0
DWIDTH 19 0
BBX 17 24 1 0
BITMAP
03E000
0FF800
1E7C00
3C3E00
3C1F00
7C1F00
7C1F00
780F80
F80F80
F80F80
F80F80
FFFF80
FFFF80
F80F80
F80F80
F80F80
F80F80
7C0F00
7C1F00
7C1F00
3C1E00
3E3E00
1FFC00
07F000
ENDCHAR
STARTCHAR 03B9
ENCODING 953
SWIDTH 330 0
DWIDTH 11 0
BBX 10 16 1 0
BITMAP
0200
7E00
FE00
7E00
3E00
1E00
1E00
1E00
1E00
1E00
1E00
1E00
1E00
1F00
1FC0
0FC0
ENDCHAR
STARTCHAR 03BA
ENCODING 954
SWIDTH 600 0
DWIDTH 20 0
BBX 19 16 1 0
BITMAP
020000
7E3FC0
FE3F80
7E1E00
3E3800
1E7000
1EE000
1FF000
1FF800
1EFC00
1E7E00
1E3E00
1E3F00
1E1F80
1E0FE0
1E07E0
ENDCHAR
STARTCHAR 03BB
ENCODING 955
SWIDTH 570 0
DWIDTH 19 0
BBX 19 24 0 0
BITMAP
1F0000
3F8000
3FC000
07C000
03E000
03E000
03E000
01F000
01F000
03F000
03F000
03F800
07F800
07F800
0E7C00
0E7C00
0E7C00
1E3C00
1E3E00
3C3E00
3C3E00
3C1F00
FC1FE0
FC0FC0
ENDCHAR
STARTCHAR 03BC
ENCODING 956
SWIDTH 630 0
DWIDTH 21 0
BBX 19 23 1 -7
BITMAP
7E3F80
FE3F80
FE1F80
3E0F80
3E0F80
3E0F80
3E0F80
3E0F80
3E0F80
3E0F80
3E0F80
3E1F80
3FBFE0
3FF7E0
3FC780
3C0000
3C0000
3C0000
3C0000
3C0000
3E0000
3C0000
300000
ENDCHAR
STARTCHAR 03BD
ENCODING 957
SWIDTH 510 0
DWIDTH 17 0
BBX 17 16 0 0
BITMAP
000100
7E1F00
FE1F80
7E1F00
1F0700
1F0700
0F8700
0F8600
0F8E00
07CC00
07D800
03F800
03F000
03E000
01E000
01C000
ENDCHAR
STARTCHAR 03BE
ENCODING 958
SWIDTH 450 0
DWIDTH 15 0
BBX 14 32 1 -8
BITMAP
7FF8
7FFC
7FFC
7FFC
F0F8
E7C0
0F80
3E00
3E00
7E00
7C00
3E00
3F00
0FE0
03E0
1F80
7C00
7800
F800
FC00
FF00
7FE0
7FF8
1FFC
01FC
007C
007C
0078
00F8
01F0
03E0
0380
ENDCHAR
STARTCHAR 03BF
ENCODING 959
SWIDTH 570 0
DWIDTH 19 0
BBX 17 16 1 0
BITMAP
018000
0FF800
1FFE00
3C3E00
7C1F00
781F00
F80F80
F80F80
F80F80
F80F80
F80F80
7C0F00
7C1F00
3E1E00
1FFC00
0FF800
ENDCHAR
STARTCHAR 03C0
ENCODING 960
SWIDTH 570 0
DWIDTH 19 0
BBX 18 17 1 0
BITMAP
0001C0
000380
3FFF80
7FFF80
7FFF80
FFFF80
463C00
063C00
0E3C00
0E3C00
0E3C00
0E3C00
1E3C00
1C3C00
3C3E80
7C3F80
7C1F80
ENDCHAR
STARTCHAR 03C1
ENCODING 961
SWIDTH 540 0
DWIDTH 18 0
BBX 17 24 1 -8
BITMAP
00C000
0FFC00
1FFE00
3C1F00
7C1F00
781F00
780F80
F80F80
F80F80
F80F00
F81F00
F81F00
F81E00
F83C00
FFF800
FFF000
F80000
F80000
F80000
F80000
F80000
F80000
F00000
C00000
ENDCHAR
STARTCHAR 03C2
ENCODING 962
SWIDTH 450 0
DWIDTH 15 0
BBX 14 24 1 -8
BITMAP
0100
1FF8
3EF8
7C38
7838
F838
F800
F800
F800
FC00
7E00
7F00
3FC0
1FF0
0FF8
03F8
00FC
007C
0078
0078
00F8
01F0
03E0
0380
ENDCHAR
STARTCHAR 03C3
ENCODING 963
SWIDTH 630 0
DWIDTH 21 0
BBX 20 17 1 0
BITMAP
000030
000070
0FFFF0
1FFFF0
3F7FF0
7C1FE0
7C1F00
F80F00
F80F80
F80F80
F80F80
F80F80
7C0F00
7C1F00
3E1E00
1FFC00
0FF800
ENDCHAR
STARTCHAR 03C4
ENCODING 964
SWIDTH 360 0
DWIDTH 12 0
BBX 12 17 0 0
BITMAP
0030
0070
3FF0
7FF0
7FF0
FFE0
4F80
0F80
0F80
0F80
0F80
0F80
0F80
0F80
0F80
07F0
03E0
ENDCHAR
STARTCHAR 03C5
ENCODING 965
SWIDTH 510 0
DWIDTH 17 0
BBX 16 16 0 0
BITMAP
0002
7E1F
FE3F
7E1F
3E07
3E07
1E03
1E03
1E03
1E03
1E03
1E07
1F0E
1FFC
0FFC
07F0
ENDCHAR
STARTCHAR 03C6
ENCODING 966
SWIDTH 780 0
DWIDTH 26 0
BBX 24 24 1 -8
BITMAP
000080
0707F8
1F1FFC
3E1E3E
7C3E1F
7C3E1F
F83E1F
F83E1F
F83E1F
F83E1F
F83E1F
7C3E1E
7C3E3E
3E3E7C
1FFFF8
07FFE0
003E00
003E00
003E00
003E00
003E00
003E00
003C00
003000
ENDCHAR
STARTCHAR 03C7
ENCODING 967
SWIDTH 540 0
DWIDTH 18 0
BBX 18 24 0 -8
BITMAP
020000
7F1FC0
7F1F80
7F8700
0F8600
0F8E00
07CC00
07DC00
03D800
03F800
03F000
01F000
01F000
03F000
03F000
07F800
06F800
0E7C00
0C7C00
1C7C00
183E00
383FC0
7E1FC0
FE1E00
ENDCHAR
STARTCHAR 03C8
ENCODING 968
SWIDTH 750 0
DWIDTH 25 0
BBX 24 32 0 -8
BITMAP
000200
007F00
00FF00
003F00
001F00
001F00
001F00
001F00
001F02
7E1F3F
FE1F3F
7E1F3F
3E1F0F
3E1F0F
1E1F0F
1E1F07
1E1F0F
1E1F0F
1F1F0F
1F1F0E
1F9F1E
0FDF7C
07FFF0
01FFC0
001F00
001F00
001F00
001F00
001F00
001F00
001E00
001800
ENDCHAR
STARTCHAR 03C9
ENCODING 969
SWIDTH 750 0
DWIDTH 25 0
BBX 23 16 1 0
BITMAP
000040
0F00F0
1E0078
3C007C
7C183E
7C383E
FC3C3E
FC3C3E
FC3C3E
FC383E
FC383E
7C383E
7C3C7E
7E7C7C
3FE7F8
0FC3F0
ENDCHAR
STARTCHAR 03CA
ENCODING 970
SWIDTH 330 0
DWIDTH 11 0
BBX 13 22 0 0
BITMAP
70E0
F9F0
F9F8
F8F0
7060
0000
0100
3F00
7F00
3F00
1F00
0F00
0F00
0F00
0F00
0F00
0F00
0F00
0F00
0F80
0FE0
07E0
ENDCHAR
STARTCHAR 03CB
ENCODING 971
SWIDTH 510 0
DWIDTH 17 0
BBX 16 22 0 0
BITMAP
1E1C
1E3E
3F3E
1E3E
0C1C
0000
0002
7E1F
FE3F
7E1F
3E07
3E07
1E03
1E03
1E03
1E03
1E03
1E07
1F0E
1FFC
0FFC
07F0
ENDCHAR
STARTCHAR 03CC
ENCODING 972
SWIDTH 570 0
DWIDTH 19 0
BBX 17 24 1 0
BITMAP
01E000
01E000
01E000
01C000
01C000
01C000
000000
000000
018000
0FF800
1FFE00
3C3E00
7C1F00
781F00
F80F80
F80F80
F80F80
F80F80
F80F80
7C0F00
7C1F00
3E1E00
1FFC00
0FF800
ENDCHAR
STARTCHAR 03CD
ENCODING 973
SWIDTH 510 0
DWIDTH 17 0
BBX 16 24 0 0
BITMAP
00F0
00E0
00E0
00E0
00C0
01C0
0000
0000
0002
7E1F
FE3F
7E1F
3E07
3E07
1E03
1E03
1E03
1E03
1E03
1E07
1F0E
1FFC
0FFC
07F0
ENDCHAR
STARTCHAR 03CE
ENCODING 974
SWIDTH 750 0
DWIDTH 25 0
BBX 23 24 1 0
BITMAP
001E00
001C00
001C00
001C00
001800
003800
000000
000000
000040
0F00F0
1E0078
3C007C
7C183E
7C383E
FC3C3E
FC3C3E
FC3C3E
FC383E
FC383E
7C383E
7C3C7E
7E7C7C
3FE7F8
0FC3F0
ENDCHAR
STARTCHAR 03CF
ENCODING 975
SWIDTH 720 0
DWIDTH 24 0
BBX 23 31 1 -8
BITMAP
FFC7F8
FFC7F8
7FC3F0
1F01C0
1F0380
1F0700
1F0E00
1F1C00
1F3800
1F7000
1FF000
1FF800
1FFC00
1F7E00
1F3F00
1F3F00
1F1F80
1F0FC0
1F07E0
1F07E0
3F03F8
7FC3FE
FFC1FC
0001F0
0007C0
000F00
000F00
001F00
001F80
001FC0
001FC0
ENDCHAR
STARTCHAR 03D1
ENCODING 977
SWIDTH 600 0
DWIDTH 20 0
BBX 20 24 0 0
BITMAP
00F000
07FC00
0FBF00
1F0F00
1E0F80
3E0F80
3E0780
1F0780
1F07C0
1F87C0
0FC7C0
03FFF0
007FF0
0007C0
3E07C0
FF07C0
FF07C0
1F0780
1F0F80
1F0F80
1F0F00
1F1F00
0FFE00
07F800
ENDCHAR
STARTCHAR 03D2
ENCODING 978
SWIDTH 660 0
DWIDTH 22 0
BBX 21 23 1 0
BITMAP
380070
FE01F8
FF03F8
9F83F8
0F8638
07C638
03CC00
03EC00
01E800
01F800
01F800
01F800
00F800
00F800
00F800
00F800
00F800
00F800
00F800
00F800
01FC00
0FFF00
0FFF00
ENDCHAR
STARTCHAR 03D5
ENCODING 981
SWIDTH 780 0
DWIDTH 26 0
BBX 24 32 1 -8
BITMAP
000C00
01FC00
01FC00
007C00
003C00
003C00
003C00
003C00
007E00
0FFFF0
1FFDF8
3E3C7C
7C3C3E
783C3E
F83C1F
F83C1F
F83C1F
F83C1F
F83C1F
7C3C3E
7C3C3E
3E3C7C
1FFFF8
07FFE0
003C00
003C00
003C00
003C00
003E00
003E00
007800
002000
ENDCHAR
STARTCHAR 03D6
ENCODING 982
SWIDTH 810 0
DWIDTH 27 0
BBX 26 17 1 0
BITMAP
000001C0
000003C0
1FFFFFC0
3FFFFFC0
7FFFFFC0
FFFFFF80
63C03C00
07801E00
0F8E1F00
0F8F1F00
1F8F1F00
1F8E1F00
1F8E1F00
0F8E1F00
0FCF3F00
07FBFE00
03F1FC00
ENDCHAR
STARTCHAR 03D7
ENCODING 983
SWIDTH 600 0
DWIDTH 20 0
BBX 19 24 1 -8
BITMAP
020000
7E3FC0
FE3F80
7E1E00
3E3800
1E7000
1EE000
1FF000
1FF800
1EFC00
1E7E00
1E3E00
1E3F00
1E1F80
1E0FE0
1E07E0
0001E0
0001E0
0001E0
0003E0
0007C0
071F80
07FF00
03FC00
ENDCHAR
STARTCHAR 03F0
ENCODING 1008
SWIDTH 600 0
DWIDTH 20 0
BBX 18 16 1 0
BITMAP
000400
7E0FC0
FE1FC0
FE3F80
1E3F00
0E7E00
0EFC00
0FFC00
0FFC00
1FFC00
1FDC00
1F9C00
3F1FC0
7E1FC0
7E1FC0
3C0F80
ENDCHAR
STARTCHAR 03F1
ENCODING 1009
SWIDTH 570 0
DWIDTH 19 0
BBX 17 24 1 -8
BITMAP
00C000
0FF800
3FFE00
3C3F00
7C1F00
780F80
780F80
F80F80
F80F80
F80F80
FC0F00
FC1F00
FE1E00
FFFE00
EFF800
E1C000
700000
780000
7FE000
7FFC00
3FFE00
1FFE00
0FFF00
000700
ENDCHAR
STARTCHAR 03F2
ENCODING 1010
SWIDTH 450 0
DWIDTH 15 0
BBX 14 16 1 0
BITMAP
0100
0FF8
1FF8
3C38
7838
7838
F800
F800
F800
F800
F800
7C00
7C00
3F1C
1FF8
0FF0
ENDCHAR
STARTCHAR 03F4
ENCODING 1012
SWIDTH 720 0
DWIDTH 24 0
BBX 23 23 1 0
BITMAP
007C00
03FF80
0F8FE0
1F03F0
3E01F8
3C00F8
7C00FC
7C007C
F8007C
F8007E
FFFFFE
FFFFFE
FF007E
FC007E
FC007C
7C007C
7C007C
7E0078
3E00F8
1F01F0
0F83E0
07FFC0
01FF00
ENDCHAR
STARTCHAR 03F6
ENCODING 1014
SWIDTH 450 0
DWIDTH 15 0
BBX 14 15 1 0
BITMAP
FFC0
FFF0
E1F0
E0F8
E0F8
00F8
1FFC
1FFC
1078
0078
C0F8
E0F8
E1F0
FFE0
7F80
ENDCHAR
STARTCHAR 03F7
ENCODING 1015
SWIDTH 630 0
DWIDTH 21 0
BBX 19 23 1 0
BITMAP
FFC000
FFC000
7FC000
1F0000
1F0000
1FFE00
1FFF80
1F0FC0
1F07E0
1F03E0
1F03E0
1F03E0
1F03E0
1F03E0
1F03C0
1F0FC0
1F7F00
1F7C00
1F0000
1F0000
3F8000
7FE000
FFE000
ENDCHAR
STARTCHAR 03F8
ENCODING 1016
SWIDTH 600 0
DWIDTH 20 0
BBX 19 32 1 -8
BITMAP
060000
FE0000
FE0000
3E0000
3E0000
3E0000
3E0000
3E0000
3E0800
3E7F00
3FFF80
3F8FC0
3F07C0
3F07E0
3E03E0
3E03E0
3E03E0
3E03C0
3E03C0
3E07C0
3E0780
3E0F00
3FFE00
3FFC00
3E0000
3E0000
3E0000
3E0000
3E0000
3E0000
3C0000
300000
ENDCHAR
STARTCHAR 03F9
ENCODING 1017
SWIDTH 630 0
DWIDTH 21 0
BBX 19 23 1 0
BITMAP
007C00
03FFC0
0FC7E0
1F01E0
3E01E0
3C00C0
7C00C0
7C0000
FC0000
F80000
F80000
FC0000
F80000
FC0000
FC0000
7C0000
7E0000
7E0000
3F0000
1F8020
0FE3E0
07FFC0
01FF00
ENDCHAR
STARTCHAR 0400
ENCODING 1024
SWIDTH 600 0
DWIDTH 20 0
BBX 19 29 1 0
BITMAP
078000
03C000
01C000
00E000
000000
000000
FFFF80
FFFF80
7F1F80
1F0380
1F0180
1F01C0
1F0100
1F0000
1F0C00
1F0C00
1F1C00
1FFC00
1FFC00
1F0C00
1F0C00
1F0000
1F0000
1F00E0
1F00E0
1F01C0
3F83C0
7FFFC0
FFFFC0
ENDCHAR
STARTCHAR 0401
ENCODING 1025
SWIDTH 600 0
DWIDTH 20 0
BBX 19 29 1 0
BITMAP
1E1E00
1F3E00
1F3E00
1E1E00
000000
000000
FFFF80
FFFF80
7F1F80
1F0380
1F0180
1F01C0
1F0100
1F0000
1F0C00
1F0C00
1F1C00
1FFC00
1FFC00
1F0C00
1F0C00
1F0000
1F0000
1F00E0
1F00E0
1F01C0
3F83C0
7FFFC0
FFFFC0
ENDCHAR
STARTCHAR 0402
ENCODING 1026
SWIDTH 780 0
DWIDTH 26 0
BBX 25 23 1 0
BITMAP
7FFFE000
FFFFE000
FDF3F000
F1F0F000
E1F07000
E1F07000
C1F04000
01F00000
01F00000
01F00000
01F7F000
01FFFC00
01FCFE00
01F03F00
01F01F00
01F01F00
01F01F80
01F00F00
01F01F00
01F81F00
01F81F00
07FCFE00
07FCFC00
ENDCHAR
STARTCHAR 0403
ENCODING 1027
SWIDTH 570 0
DWIDTH 19 0
BBX 18 31 1 0
BITMAP
007800
007000
00F000
00E000
00C000
01C000
000000
000000
FFFF80
FFFF80
7F1F80
1F0380
1F0180
1F01C0
1F0100
1F0000
1F0000
1F0000
1F0000
1F0000
1F0000
1F0000
1F0000
1F0000
1F0000
1F0000
1F0000
1F0000
3F8000
FFE000
FFE000
ENDCHAR
STARTCHAR 0404
ENCODING 1028
SWIDTH 630 0
DWIDTH 21 0
BBX 19 23 1 0
BITMAP
00FC00
07FFC0
0F87C0
1F01C0
3E01C0
7C01C0
7C00C0
7C0000
FC0000
F80000
FFFE00
FFFE00
FFFE00
FC0000
FC0000
7C0000
7C00E0
7C00E0
3E00C0
3F01C0
1F83C0
07FFC0
01FF00
ENDCHAR
STARTCHAR 0405
ENCODING 1029
SWIDTH 540 0
DWIDTH 18 0
BBX 15 23 2 0
BITMAP
07E0
3FFC
7C7C
703C
F03C
F01C
F81C
FC00
FE00
7F80
7FE0
3FF8
1FFC
07FE
01FE
007E
E03E
E01E
E01E
F01E
F83C
FFF8
3FF0
ENDCHAR
STARTCHAR 0406
ENCODING 1030
SWIDTH 360 0
DWIDTH 12 0
BBX 10 23 1 0
BITMAP
FFC0
FFC0
7FC0
1F00
1F00
1F00
1F00
1F00
1F00
1F00
1F00
1F00
1F00
1F00
1F00
1F00
1F00
1F00
1F00
1F00
3F00
7FC0
FFC0
ENDCHAR
STARTCHAR 0407
ENCODING 1031
SWIDTH 360 0
DWIDTH 12 0
BBX 11 29 1 0
BITMAP
2080
F3E0
FBE0
FBE0
71C0
0000
FFC0
FFC0
7FC0
1F00
1F00
1F00
1F00
1F00
1F00
1F00
1F00
1F00
1F00
1F00
1F00
1F00
1F00
1F00
1F00
1F00
3F00
7FC0
FFC0
ENDCHAR
STARTCHAR 0408
ENCODING 1032
SWIDTH 360 0
DWIDTH 12 0
BBX 11 31 0 -8
BITMAP
7FE0
7FE0
3FC0
1F80
1F00
1F00
1F00
1F00
1F00
1F00
1F00
1F00
1F00
1F00
1F00
1F00
1F00
1F00
1F00
1F00
1F00
1F00
1F00
1F00
1F00
1E00
1E00
3C00
7800
F000
C000
ENDCHAR
STARTCHAR 0409
ENCODING 1033
SWIDTH 930 0
DWIDTH 31 0
BBX 30 23 0 0
BITMAP
0FFFFC00
0FFFFC00
07E7F800
01C3E000
0183E000
0183E000
0183E000
0183E000
0183E000
0183E000
0183FF80
0183FFF0
0183E3F8
0183E1FC
0383E0FC
0303E0FC
0303E0FC
0703E0FC
4F03E0FC
7F03E0F8
FE07F1F8
7E0FFFF0
7C1FFFC0
ENDCHAR
STARTCHAR 040A
ENCODING 1034
SWIDTH 990 0
DWIDTH 33 0
BBX 31 23 1 0
BITMAP
FFC7FF00
FFC7FF00
7FC3FE00
1F01F800
1F01F000
1F01F000
1F01F000
1F01F000
1F01F000
1F01F000
1FFFFFC0
1FFFFFF8
1FC1F1FC
1F01F07E
1F01F07E
1F01F03E
1F01F03E
1F01F03E
1F01F03E
1F01F87E
3F01F8FC
7FC7FFF8
FFC7FFE0
ENDCHAR
STARTCHAR 040B
ENCODING 1035
SWIDTH 870 0
DWIDTH 29 0
BBX 27 23 1 0
BITMAP
7FFFE000
FFFFE000
FDF3F000
F1F0F000
E1F07000
E1F07000
C1F04000
01F00000
01F00000
01F00000
01F7F800
01FFFE00
01FCFE00
01F01F00
01F01F00
01F01F00
01F01F00
01F00F00
01F00F80
01F81F80
01F81F80
07FE7FE0
07FE7FE0
ENDCHAR
STARTCHAR 040C
ENCODING 1036
SWIDTH 720 0
DWIDTH 24 0
BBX 23 31 1 0
BITMAP
000F00
001E00
001C00
001C00
003800
003000
000000
000000
FFC3FC
FFC3FC
7FC1F8
1F01E0
1F01C0
1F0380
1F0700
1F0E00
1F0C00
1F1800
1F3C00
1F7C00
1F7E00
1F3F00
1F1F80
1F1F80
1F0FC0
1F07E0
1F07E0
1F03F0
3F01FC
7FC1FE
FFC0FE
ENDCHAR
STARTCHAR 040D
ENCODING 1037
SWIDTH 750 0
DWIDTH 25 0
BBX 24 29 1 0
BITMAP
00F000
007000
003800
003800
000000
000000
FFC07F
FFC0FE
7FC0FE
1F01F8
1F01F8
1F03F8
1F03F8
1F06F8
1F0EF8
1F0CF8
1F1CF8
1F18F8
1F38F8
1F30F8
1F70F8
1F60F8
1FE0F8
1FC0F8
1FC0F8
1F80F8
3F81FC
7F03FE
FF03FF
ENDCHAR
STARTCHAR 040E
ENCODING 1038
SWIDTH 660 0
DWIDTH 22 0
BBX 21 30 1 0
BITMAP
010100
0781C0
0783C0
07C3C0
03FF80
007C00
000000
FF83F8
FF81F8
FF81F8
7E00E0
3F00E0
1F00C0
0F81C0
0FC180
07C380
07E300
03E700
01F600
01FE00
00FC00
00FC00
007800
007800
007000
007000
3FE000
3FE000
3FC000
1F8000
ENDCHAR
STARTCHAR 040F
ENCODING 1039
SWIDTH 750 0
DWIDTH 25 0
BBX 23 29 1 -6
BITMAP
FFC7FE
FFC7FE
7FC3FC
1F01F8
1F00F8
1F00F8
1F00F8
1F00F8
1F00F8
1F00F8
1F00F8
1F00F8
1F00F8
1F00F8
1F00F8
1F00F8
1F00F8
1F00F8
1F00F8
1F00F8
3F81F8
7FFFFE
FFFFFE
007C00
003C00
003C00
003800
003800
003800
ENDCHAR
STARTCHAR 0410
ENCODING 1040
SWIDTH 690 0
DWIDTH 23 0
BBX 22 23 1 0
BITMAP
007000
007000
007000
00F800
00F800
01FC00
01FC00
01FE00
033E00
033F00
071F00
061F00
061F80
0C0F80
0C0FC0
1FFFC0
1FFFE0
1803E0
3003F0
3003F0
7803F8
FC07FC
FC07FC
ENDCHAR
STARTCHAR 0411
ENCODING 1041
SWIDTH 660 0
DWIDTH 22 0
BBX 20 23 1 0
BITMAP
FFFF80
FFFF80
7F1F80
1F0380
1F01C0
1F01C0
1F0100
1F0000
1F0000
1F0000
1FFE00
1FFF80
1F1FC0
1F07E0
1F03E0
1F03F0
1F03F0
1F03F0
1F03E0
1F03E0
3F8FC0
7FFF80
FFFE00
ENDCHAR
STARTCHAR 0412
ENCODING 1042
SWIDTH 660 0
DWIDTH 22 0
BBX 20 23 1 0
BITMAP
FFE000
FFFF00
7FBFC0
1F0FC0
1F07C0
1F07C0
1F07C0
1F07C0
1F07C0
1F0F80
1FFE00
1FFF80
1F1FC0
1F07E0
1F03F0
1F03F0
1F03F0
1F03F0
1F03F0
1F03E0
3F87E0
7FFF80
FFFE00
ENDCHAR
STARTCHAR 0413
ENCODING 1043
SWIDTH 570 0
DWIDTH 19 0
BBX 18 23 1 0
BITMAP
FFFF80
FFFF80
7F1F80
1F0380
1F0180
1F01C0
1F0100
1F0000
1F0000
1F0000
1F0000
1F0000
1F0000
1F0000
1F0000
1F0000
1F0000
1F0000
1F0000
1F0000
3F8000
FFE000
FFE000
ENDCHAR
STARTCHAR 0414
ENCODING 1044
SWIDTH 720 0
DWIDTH 24 0
BBX 23 29 1 -6
BITMAP
0FFFF8
0FFFF8
0F87F0
0387E0
0187C0
0187C0
0387C0
0387C0
0307C0
0307C0
0307C0
0307C0
0307C0
0307C0
0707C0
0707C0
0607C0
0607C0
0E07C0
1C07E0
1C07E0
FFFFFC
FFFFFE
F0001C
F0001C
E0001C
E0001C
E0001C
E0001C
ENDCHAR
STARTCHAR 0415
ENCODING 1045
SWIDTH 600 0
DWIDTH 20 0
BBX 19 23 1 0
BITMAP
FFFF80
FFFF80
7F1F80
1F0380
1F0180
1F01C0
1F0100
1F0000
1F0C00
1F0C00
1F1C00
1FFC00
1FFC00
1F0C00
1F0C00
1F0000
1F0000
1F00E0
1F00E0
1F01C0
3F83C0
7FFFC0
FFFFC0
ENDCHAR
STARTCHAR 0416
ENCODING 1046
SWIDTH 1050 0
DWIDTH 35 0
BBX 34 23 1 0
BITMAP
7F8FF87F80
7F8FF87F80
7F0FF87F00
0F03E03800
0703E07000
0383E0E000
01C3E0C000
00E3E18000
0063E38000
0073E70000
00FBEF8000
00FBEFC000
01FBE7C000
01F3E7E000
03F3E3E000
07E3E3F000
07C3E1F000
0FC3E1F800
0F83E0FC00
1F83E07E00
7F03F07F00
FF0FF83FC0
FE0FF83FC0
ENDCHAR
STARTCHAR 0417
ENCODING 1047
SWIDTH 570 0
DWIDTH 19 0
BBX 16 23 2 0
BITMAP
0FE0
7FF8
FCFC
F07E
F03E
E03E
603E
003E
007C
00F8
07E0
0FF8
07FC
007E
003F
001F
E01F
E01F
E01F
F03E
F87E
FFFC
3FF0
ENDCHAR
STARTCHAR 0418
ENCODING 1048
SWIDTH 750 0
DWIDTH 25 0
BBX 24 23 1 0
BITMAP
FFC07F
FFC0FE
7FC0FE
1F01F8
1F01F8
1F03F8
1F03F8
1F06F8
1F0EF8
1F0CF8
1F1CF8
1F18F8
1F38F8
1F30F8
1F70F8
1F60F8
1FE0F8
1FC0F8
1FC0F8
1F80F8
3F81FC
7F03FE
FF03FF
ENDCHAR
STARTCHAR 0419
ENCODING 1049
SWIDTH 750 0
DWIDTH 25 0
BBX 24 30 1 0
BITMAP
018180
0781E0
0781E0
03C3C0
01FF80
003C00
000000
FFC07F
FFC0FE
7FC0FE
1F01F8
1F01F8
1F03F8
1F03F8
1F06F8
1F0EF8
1F0CF8
1F1CF8
1F18F8
1F38F8
1F30F8
1F70F8
1F60F8
1FE0F8
1FC0F8
1FC0F8
1F80F8
3F81FC
7F03FE
FF03FF
ENDCHAR
STARTCHAR 041A
ENCODING 1050
SWIDTH 750 0
DWIDTH 25 0
BBX 23 23 1 0
BITMAP
FFC3FC
FFC3FC
7FC1F8
1F01E0
1F01C0
1F0380
1F0700
1F0E00
1F0C00
1F1800
1F3C00
1F7C00
1F7E00
1F3F00
1F1F80
1F1F80
1F0FC0
1F07E0
1F07E0
1F03F0
3F01FC
7FC1FE
FFC0FE
ENDCHAR
STARTCHAR 041B
ENCODING 1051
SWIDTH 690 0
DWIDTH 23 0
BBX 22 23 0 0
BITMAP
0FFFFC
0FFFFC
07C1F8
01C1F0
01C1F0
0181F0
0181F0
0181F0
0181F0
0181F0
0181F0
0181F0
0181F0
0181F0
0381F0
0301F0
0301F0
0701F0
4F01F0
7F01F0
FE03F0
7E0FFC
7C0FFC
ENDCHAR
STARTCHAR 041C
ENCODING 1052
SWIDTH 960 0
DWIDTH 32 0
BBX 30 23 1 0
BITMAP
7F8003F8
7F8007F8
3F8007F0
0FC007E0
0FC00FE0
0FE00FE0
0FE01FE0
1FF01BE0
1DF01BE0
1DF03BE0
19F833E0
18F833E0
18FC63E0
187C63E0
187EE3F0
183EC1F0
183FC1F0
181F81F0
381F81F0
381F81F0
780F03F8
FE0F07FC
FE0607FC
ENDCHAR
STARTCHAR 041D
ENCODING 1053
SWIDTH 750 0
DWIDTH 25 0
BBX 24 23 1 0
BITMAP
FFC3FF
FFC3FE
7FC3FE
1F00F8
1F00F8
1F00F8
1F00F8
1F00F8
1F00F8
1F00F8
1FFFF8
1FFFF8
1FFCF8
1F00F8
1F00F8
1F00F8
1F00F8
1F00F8
1F00F8
1F00F8
3F01FC
7FC3FE
FFC3FF
ENDCHAR
STARTCHAR 041E
ENCODING 1054
SWIDTH 720 0
DWIDTH 24 0
BBX 23 23 1 0
BITMAP
007C00
03FF80
0F8FE0
1F03F0
3E01F8
3C00F8
7C00FC
7C007C
FC007C
F8007E
F8007E
F8007E
F8007E
FC007E
FC007C
7C007C
7C007C
7E0078
3E00F8
1F01F0
0F83E0
07FFC0
01FF00
ENDCHAR
STARTCHAR 041F
ENCODING 1055
SWIDTH 750 0
DWIDTH 25 0
BBX 23 23 1 0
BITMAP
FFFFFE
FFFFFE
7F00FC
1F00F8
1F00F8
1F00F8
1F00F8
1F00F8
1F00F8
1F00F8
1F00F8
1F00F8
1F00F8
1F00F8
1F00F8
1F00F8
1F00F8
1F00F8
1F00F8
1F00F8
3F01F8
7FC7FE
FFC7FE
ENDCHAR
STARTCHAR 0420
ENCODING 1056
SWIDTH 630 0
DWIDTH 21 0
BBX 19 23 1 0
BITMAP
FFF800
FFFF00
7FBF80
1F0FC0
1F07E0
1F03E0
1F03E0
1F03E0
1F03E0
1F03E0
1F03E0
1F07C0
1F0F80
1F7F00
1F7E00
1F0000
1F0000
1F0000
1F0000
1F0000
3F8000
FFE000
FFE000
ENDCHAR
STARTCHAR 0421
ENCODING 1057
SWIDTH 630 0
DWIDTH 21 0
BBX 19 23 1 0
BITMAP
007C00
03FFC0
0FC7E0
1F01E0
3E01E0
3C00C0
7C00C0
7C0000
FC0000
F80000
F80000
FC0000
F80000
FC0000
FC0000
7C0000
7E0000
7E0000
3F0000
1F8020
0FE3E0
07FFC0
01FF00
ENDCHAR
STARTCHAR 0422
ENCODING 1058
SWIDTH 630 0
DWIDTH 21 0
BBX 20 23 1 0
BITMAP
7FFFE0
FFFFE0
FDF3F0
F1F0F0
E1F070
E1F070
C1F040
01F000
01F000
01F000
01F000
01F000
01F000
01F000
01F000
01F000
01F000
01F000
01F000
01F800
01F800
0FFE00
0FFF00
ENDCHAR
STARTCHAR 0423
ENCODING 1059
SWIDTH 660 0
DWIDTH 22 0
BBX 21 23 1 0
BITMAP
FF83F8
FF81F8
FF81F8
7E00E0
3F00E0
1F00C0
0F81C0
0FC180
07C380
07E300
03E700
01F600
01FE00
00FC00
00FC00
007800
007800
007000
007000
3FE000
3FE000
3FC000
1F8000
ENDCHAR
STARTCHAR 0424
ENCODING 1060
SWIDTH 840 0
DWIDTH 28 0
BBX 27 24 1 0
BITMAP
00FFE000
00FFE000
003F8000
001F0000
003F0000
07FFFC00
1FFFFF00
3E1F1F80
7C1F0FC0
7C1F07C0
F81F07E0
F81F07E0
F81F07E0
FC1F07C0
7C1F07C0
7E1F0FC0
3F1F1F80
1FDF7F00
07FFFC00
007FC000
001F0000
003F0000
00FFE000
00FFE000
ENDCHAR
STARTCHAR 0425
ENCODING 1061
SWIDTH 690 0
DWIDTH 23 0
BBX 21 23 1 0
BITMAP
FFC3F8
FFC3F8
7FC3F0
3F81E0
1F81C0
0FC380
07E300
07E700
03FE00
03FC00
01FC00
00FC00
00FC00
01FE00
01BF00
03BF00
071F80
061F80
0E0FC0
1C0FE0
7C07F0
FF1FF8
FF1FF8
ENDCHAR
STARTCHAR 0426
ENCODING 1062
SWIDTH 810 0
DWIDTH 27 0
BBX 25 29 1 -6
BITMAP
FFC7FE00
FFC7FE00
7FC3FC00
1F01F800
1F00F800
1F00F800
1F00F800
1F00F800
1F00F800
1F00F800
1F00F800
1F00F800
1F00F800
1F00F800
1F00F800
1F00F800
1F00F800
1F00F800
1F00F800
1F00F800
3F00F800
7FFFFF80
FFFFFF80
00000780
00000780
00000780
00000780
00000780
00000380
ENDCHAR
STARTCHAR 0427
ENCODING 1063
SWIDTH 720 0
DWIDTH 24 0
BBX 22 23 1 0
BITMAP
FFC7FC
FFC7FC
7F87F8
3F03F0
3E01F0
3E01F0
3E01F0
1F01F0
1F01F0
1F01F0
1F01F0
0F81F0
0FFFF0
03FFF0
0001F0
0001F0
0001F0
0001F0
0001F0
0003F0
0003F0
001FFC
001FFC
ENDCHAR
STARTCHAR 0428
ENCODING 1064
SWIDTH 1050 0
DWIDTH 35 0
BBX 33 23 1 0
BITMAP
FFCFF9FF80
FFCFF9FF80
7F87F8FF00
1F03E07E00
1F03E07C00
1F03E07C00
1F03E07C00
1F03E07C00
1F03E07C00
1F03E07C00
1F03E07C00
1F03E07C00
1F03E07C00
1F03E07C00
1F03E07C00
1F03E07C00
1F03E07C00
1F03E07C00
1F03E07C00
1F03E07C00
3F03E07E00
7FFFFFFF80
FFFFFFFF80
ENDCHAR
STARTCHAR 0429
ENCODING 1065
SWIDTH 1110 0
DWIDTH 37 0
BBX 35 29 1 -6
BITMAP
FFCFF9FF80
FFCFF9FF80
7F87F8FF00
1F03E07E00
1F03E07C00
1F03E07C00
1F03E07C00
1F03E07C00
1F03E07C00
1F03E07C00
1F03E07C00
1F03E07C00
1F03E07C00
1F03E07C00
1F03E07C00
1F03E07C00
1F03E07C00
1F03E07C00
1F03E07C00
1F03E07C00
3F03E07E00
7FFFFFFFC0
FFFFFFFFE0
00000001E0
00000001C0
00000001C0
00000001C0
00000001C0
00000001C0
ENDCHAR
STARTCHAR 042A
ENCODING 1066
SWIDTH 750 0
DWIDTH 25 0
BBX 23 23 1 0
BITMAP
7FFF00
FFFF00
FDFE00
F1F800
E1F000
E1F000
C1F000
01F000
01F000
01F000
01FFE0
01FFF8
01F1FC
01F07E
01F07E
01F03E
01F03E
01F03E
01F03E
01F07E
03F8FC
07FFF8
07FFE0
ENDCHAR
STARTCHAR 042B
ENCODING 1067
SWIDTH 930 0
DWIDTH 31 0
BBX 29 23 1 0
BITMAP
FFE01FF8
FFE01FF8
7FE00FF0
1F0007E0
1F0003E0
1F0003E0
1F0003E0
1F0003E0
1F0003E0
1F0003E0
1FFC03E0
1FFF03E0
1F1FC3E0
1F0FC3E0
1F07C3E0
1F07E3E0
1F07E3E0
1F07E3E0
1F07C3E0
1F07C7E0
3F8F87E0
7FFF1FF8
FFFC1FF8
ENDCHAR
STARTCHAR 042C
ENCODING 1068
SWIDTH 660 0
DWIDTH 22 0
BBX 20 23 1 0
BITMAP
FFE000
FFE000
7FE000
1F0000
1F0000
1F0000
1F0000
1F0000
1F0000
1F0000
1FFE00
1FFF80
1F1FE0
1F07E0
1F03F0
1F03F0
1F03F0
1F03F0
1F03F0
1F03E0
3F87C0
7FFF80
FFFE00
ENDCHAR
STARTCHAR 042D
ENCODING 1069
SWIDTH 630 0
DWIDTH 21 0
BBX 18 23 2 0
BITMAP
0FE000
7FF800
F87E00
F03F00
E01F00
E00F80
E00F80
000FC0
0007C0
0007C0
0FFFC0
0FFFC0
0FFFC0
0007C0
0007C0
0007C0
C00F80
C00F80
E00F00
E01F00
F03E00
FFFC00
3FF000
ENDCHAR
STARTCHAR 042E
ENCODING 1070
SWIDTH 1050 0
DWIDTH 35 0
BBX 33 23 1 0
BITMAP
FFC01F8000
FFC0FFE000
7FC1F1F800
1F03C07C00
1F07807E00
1F0F803F00
1F0F801F00
1F1F001F00
1F1F001F80
1F1F000F80
1FFF000F80
1FFF000F80
1F1F000F80
1F1F000F80
1F1F000F80
1F1F801F00
1F0F801F00
1F0F801F00
1F07C03E00
1F07E03C00
3F03F07800
7FC1FFF000
FFC07FC000
ENDCHAR
STARTCHAR 042F
ENCODING 1071
SWIDTH 660 0
DWIDTH 22 0
BBX 22 23 0 0
BITMAP
003FFC
03FFFC
07E3F8
0F83F0
0F83E0
1F03E0
1F03E0
1F83E0
0F83E0
0F83E0
07C3E0
03FFE0
00FFE0
01FBE0
01F3E0
03F3E0
07E3E0
07C3E0
0FC3E0
1F83F0
3F83F0
FF0FFC
FF0FFC
ENDCHAR
STARTCHAR 0430
ENCODING 1072
SWIDTH 480 0
DWIDTH 16 0
BBX 16 16 1 0
BITMAP
0100
0FE0
3FF0
71F8
F0F8
F0F8
F0F8
03F8
0FF8
3CF8
F8F8
F8F8
F8F8
F8FF
FFFE
7E7C
ENDCHAR
STARTCHAR 0431
ENCODING 1073
SWIDTH 540 0
DWIDTH 18 0
BBX 17 24 1 0
BITMAP
000380
000F80
007F00
01FF00
07FE00
0FFC00
1C0000
380000
780000
786000
7BFC00
FFFE00
F87F00
F81F00
F81F80
F80F80
F80F80
F80F80
F80F00
F80F00
7C1F00
7C1E00
3FFC00
0FF000
ENDCHAR
STARTCHAR 0432
ENCODING 1074
SWIDTH 570 0
DWIDTH 19 0
BBX 17 15 1 0
BITMAP
FFFC00
FFFE00
3E1F00
3E1F00
3E1F00
3E1E00
3FF000
3FFE00
3E3F00
3E1F80
3E0F80
3E0F80
3E1F80
FFFF00
FFF800
ENDCHAR
STARTCHAR 0433
ENCODING 1075
SWIDTH 480 0
DWIDTH 16 0
BBX 15 15 1 0
BITMAP
FFFC
FFFC
3E1C
3E0C
3E0E
3E00
3E00
3E00
3E00
3E00
3E00
3E00
3F00
FFC0
FFC0
ENDCHAR
STARTCHAR 0434
ENCODING 1076
SWIDTH 600 0
DWIDTH 20 0
BBX 20 21 0 -6
BITMAP
1FFFC0
1FFFC0
070F80
030F80
070F80
060F80
060F80
060F80
060F80
060F80
0E0F80
0C0F80
1C0F80
7FFFF0
FFFFF0
F000F0
7000F0
7000F0
7000E0
7000E0
7000E0
ENDCHAR
STARTCHAR 0435
ENCODING 1077
SWIDTH 510 0
DWIDTH 17 0
BBX 15 16 1 0
BITMAP
0180
0FF0
3FF8
3C3C
783C
783E
F83E
FFFE
FFFC
F800
F800
7C00
7C00
3F1E
1FFC
0FF0
ENDCHAR
STARTCHAR 0436
ENCODING 1078
SWIDTH 870 0
DWIDTH 29 0
BBX 28 15 1 0
BITMAP
7F3FCFE0
7F3FCFE0
0E1F8700
060F0600
030F0C00
038F1800
01CF3800
03EF7C00
07EF7C00
07CF3E00
0F8F1F00
1F8F1F80
3F1F8FC0
FE3FC7F0
FC3FC3F0
ENDCHAR
STARTCHAR 0437
ENCODING 1079
SWIDTH 480 0
DWIDTH 16 0
BBX 14 15 1 1
BITMAP
7FF0
7DF8
70FC
707C
6078
00F8
0FE0
0FF0
01FC
007C
E07C
E07C
F07C
FFF8
7FE0
ENDCHAR
STARTCHAR 0438
ENCODING 1080
SWIDTH 630 0
DWIDTH 21 0
BBX 19 15 1 0
BITMAP
FF87E0
FF0FE0
3E0FC0
3E1F80
3E3F80
3E3780
3E6780
3EE780
3EC780
3FC780
3F8780
3F0780
3F0FC0
FE1FE0
FC1FE0
ENDCHAR
STARTCHAR 0439
ENCODING 1081
SWIDTH 630 0
DWIDTH 21 0
BBX 19 23 1 0
BITMAP
1E0780
1E0700
1E0F00
0F1E00
07FC00
004000
000000
000000
FF87E0
FF0FE0
3E0FC0
3E1F80
3E3F80
3E3780
3E6780
3EE780
3EC780
3FC780
3F8780
3F0780
3F0FC0
FE1FE0
FC1FE0
ENDCHAR
STARTCHAR 043A
ENCODING 1082
SWIDTH 600 0
DWIDTH 20 0
BBX 19 15 1 0
BITMAP
FF9FC0
FF9FC0
3E0E00
3E1C00
3E1800
3E3000
3E7000
3EF000
3EF800
3E7C00
3E7E00
3E3E00
3E1F80
FF9FE0
FF8FE0
ENDCHAR
STARTCHAR 043B
ENCODING 1083
SWIDTH 570 0
DWIDTH 19 0
BBX 18 15 0 0
BITMAP
1FFFC0
0FFFC0
030F80
030F80
030F00
030F00
030F00
060F00
060F00
060F00
0E0F00
7E0F80
FC1F80
FC3FC0
F83FC0
ENDCHAR
STARTCHAR 043C
ENCODING 1084
SWIDTH 720 0
DWIDTH 24 0
BBX 23 15 1 0
BITMAP
7F01FC
7F01FC
1F83F0
1F83F0
1FC7F0
17C6F8
33E6F8
33ECF8
33FCF8
31F8F8
31F8F8
30F078
70F0FC
F861FE
FC41FE
ENDCHAR
STARTCHAR 043D
ENCODING 1085
SWIDTH 630 0
DWIDTH 21 0
BBX 20 15 1 0
BITMAP
FF9FF0
FF9FE0
3E07C0
3E07C0
3E07C0
3E07C0
3FFFC0
3FFFC0
3E07C0
3E07C0
3E07C0
3E07C0
3E0FC0
FF9FE0
FF9FF0
ENDCHAR
STARTCHAR 043E
ENCODING 1086
SWIDTH 570 0
DWIDTH 19 0
BBX 17 16 1 0
BITMAP
018000
0FF800
1FFE00
3C3E00
7C1F00
781F00
F80F80
F80F80
F80F80
F80F80
F80F80
7C0F00
7C1F00
3E1E00
1FFC00
0FF800
ENDCHAR
STARTCHAR 043F
ENCODING 1087
SWIDTH 630 0
DWIDTH 21 0
BBX 19 15 1 0
BITMAP
FFFFE0
FFFFE0
3E07C0
3E0780
3E0780
3E0780
3E0780
3E0780
3E0780
3E0780
3E0780
3E0F80
3E0FC0
FF9FE0
FF9FE0
ENDCHAR
STARTCHAR 0440
ENCODING 1088
SWIDTH 630 0
DWIDTH 21 0
BBX 19 24 1 -8
BITMAP
020800
7E7F00
FEFF80
7F8FC0
3E07C0
1E03E0
1E03E0
1E03E0
1E03E0
1E03E0
1E03C0
1E07C0
1E0780
1F0F80
1FFF00
1FFC00
1E0000
1E0000
1E0000
1E0000
3F0000
3F0000
FFE000
FFE000
ENDCHAR
STARTCHAR 0441
ENCODING 1089
SWIDTH 450 0
DWIDTH 15 0
BBX 14 16 1 0
BITMAP
0100
0FF8
1FF8
3C38
7838
7838
F800
F800
F800
F800
F800
7C00
7C00
3F1C
1FF8
0FF0
ENDCHAR
STARTCHAR 0442
ENCODING 1090
SWIDTH 540 0
DWIDTH 18 0
BBX 17 15 1 0
BITMAP
FFFF00
FFFF80
E3E380
C3E380
C3E300
03E000
03E000
03E000
03E000
03E000
03E000
03E000
07E000
1FF800
1FF800
ENDCHAR
STARTCHAR 0443
ENCODING 1091
SWIDTH 540 0
DWIDTH 18 0
BBX 18 23 0 -8
BITMAP
FFCFC0
7FCFC0
3F0780
1F0300
1F0700
0F8600
0F8E00
07CC00
07CC00
03F800
03F800
01F800
01F000
01F000
00E000
00E000
00C000
00C000
01C000
7F8000
7F8000
7F0000
3E0000
ENDCHAR
STARTCHAR 0444
ENCODING 1092
SWIDTH 780 0
DWIDTH 26 0
BBX 24 32 1 -8
BITMAP
000400
00FE00
01FE00
007E00
003E00
003E00
003E00
003E00
003E00
07FFF0
1FFFFC
3E3E7E
7C3E3E
783E1F
F83E1F
F83E1F
F83E1F
F83E1F
FC3E1F
7C3E1F
7E3E3E
3F3E7C
1FFFF8
07FFE0
003E00
003E00
003E00
003E00
003E00
007E00
01FF80
01FF80
ENDCHAR
STARTCHAR 0445
ENCODING 1093
SWIDTH 540 0
DWIDTH 18 0
BBX 17 15 1 0
BITMAP
FF9F80
FF9F00
3F0E00
1F9C00
0F9800
0FF800
07F000
07F000
07F800
0FF800
1CFC00
1C7E00
387F00
FCFF80
FCFF80
ENDCHAR
STARTCHAR 0446
ENCODING 1094
SWIDTH 660 0
DWIDTH 22 0
BBX 21 21 1 -6
BITMAP
FF9FE0
FF9FE0
3E0FC0
3E0F80
3E0780
3E0780
3E0780
3E0780
3E0780
3E0780
3E0780
3E07C0
3E07C0
FFFFF8
FFFFF8
000078
000078
000078
000038
000038
000038
ENDCHAR
STARTCHAR 0447
ENCODING 1095
SWIDTH 570 0
DWIDTH 19 0
BBX 19 15 0 0
BITMAP
FFBFE0
7F1FC0
3E0F80
3E0F80
3E0F80
3E0F80
1F0F80
1FFF80
0FFF80
018F80
000F80
000F80
001F80
007FE0
007FE0
ENDCHAR
STARTCHAR 0448
ENCODING 1096
SWIDTH 870 0
DWIDTH 29 0
BBX 27 15 1 0
BITMAP
FFBFDFE0
FF3FDFE0
3E1F07C0
3E0F0780
3E0F0780
3E0F0780
3E0F0780
3E0F0780
3E0F0780
3E0F0780
3E0F0780
3E0F07C0
3E0F07C0
FFFFFFE0
FFFFFFE0
ENDCHAR
STARTCHAR 0449
ENCODING 1097
SWIDTH 900 0
DWIDTH 30 0
BBX 29 21 1 -6
BITMAP
FFBFDFE0
FF3FDFE0
3E1F07C0
3E0F0780
3E0F0780
3E0F0780
3E0F0780
3E0F0780
3E0F0780
3E0F0780
3E0F0780
3E0F07C0
3E0F07C0
FFFFFFF8
FFFFFFF8
00000038
00000038
00000038
00000038
00000038
00000038
ENDCHAR
STARTCHAR 044A
ENCODING 1098
SWIDTH 600 0
DWIDTH 20 0
BBX 19 15 0 0
BITMAP
7FFC00
7FFC00
73E000
63E000
E3E000
03E000
03FF80
03EFC0
03E3E0
03E3E0
03E3E0
03E3E0
03E3E0
0FFFC0
0FFF00
ENDCHAR
STARTCHAR 044B
ENCODING 1099
SWIDTH 810 0
DWIDTH 27 0
BBX 26 15 1 0
BITMAP
FFC07FC0
FFC07F80
3E001F00
3E001F00
3E001F00
3F801F00
3FFC1F00
3E7E1F00
3E3F1F00
3E1F1F00
3E1F1F00
3E1F1F00
3E3F1F00
FFFE7FC0
FFF87FC0
ENDCHAR
STARTCHAR 044C
ENCODING 1100
SWIDTH 570 0
DWIDTH 19 0
BBX 17 15 1 0
BITMAP
FFC000
FFC000
3E0000
3E0000
3E0000
3E0000
3FFC00
3FFF00
3E1F80
3E1F80
3E0F80
3E1F80
3E1F00
FFFE00
FFFC00
ENDCHAR
STARTCHAR 044D
ENCODING 1101
SWIDTH 450 0
DWIDTH 15 0
BBX 14 15 1 0
BITMAP
FFC0
FFF0
E1F0
E0F8
E0F8
00F8
1FFC
1FFC
1078
0078
C0F8
E0F8
E1F0
FFE0
7F80
ENDCHAR
STARTCHAR 044E
ENCODING 1102
SWIDTH 810 0
DWIDTH 27 0
BBX 25 16 1 0
BITMAP
00006000
FF87FC00
FF8FFE00
3E1E1F00
3E3E0F80
3E3C0F80
3E3C0F80
3FFC0F80
3FFC0F80
3F7C0F80
3E3C0F80
3E3E0F80
3E3E0F00
3E1F1F00
FF8FFE00
FF87F800
ENDCHAR
STARTCHAR 044F
ENCODING 1103
SWIDTH 570 0
DWIDTH 19 0
BBX 18 15 0 0
BITMAP
0FFFC0
1FFFC0
3E1F00
3E1F00
3E1F00
3E1F00
1F1F00
0FFF00
03FF00
079F00
0F9F00
0F1F00
1F1F00
7E3FC0
FE3FC0
ENDCHAR
STARTCHAR 0450
ENCODING 1104
SWIDTH 510 0
DWIDTH 17 0
BBX 15 24 1 0
BITMAP
0E00
1E00
0F00
0700
0380
0380
0000
0000
0180
0FF0
3FF8
3C3C
783C
783E
F83E
FFFE
FFFC
F800
F800
7C00
7C00
3F1E
1FFC
0FF0
ENDCHAR
STARTCHAR 0451
ENCODING 1105
SWIDTH 510 0
DWIDTH 17 0
BBX 15 22 1 0
BITMAP
3C38
3C7C
7E7C
3C7C
1838
0000
0180
0FF0
3FF8
3C3C
783C
783E
F83E
FFFE
FFFC
F800
F800
7C00
7C00
3F1E
1FFC
0FF0
ENDCHAR
STARTCHAR 0452
ENCODING 1106
SWIDTH 600 0
DWIDTH 20 0
BBX 19 32 0 -8
BITMAP
030000
7F0000
7F0000
1F0000
1F0000
FFF800
FFF800
DF0000
1F0000
1F3F00
1F7F80
1FFFC0
1F87C0
1F83E0
1F03E0
1F03E0
1F03E0
1F03E0
1F03E0
1F03E0
1F03E0
1F83E0
7FC3E0
7FC3C0
0003C0
0007C0
000780
000F00
000F00
003E00
007C00
007000
ENDCHAR
STARTCHAR 0453
ENCODING 1107
SWIDTH 480 0
DWIDTH 16 0
BBX 15 24 1 0
BITMAP
00F0
01E0
01C0
01C0
0380
0300
0000
0000
0000
FFFC
FFFC
3E1C
3E0C
3E0E
3E00
3E00
3E00
3E00
3E00
3E00
3E00
3F00
FFC0
FFC0
ENDCHAR
STARTCHAR 0454
ENCODING 1108
SWIDTH 450 0
DWIDTH 15 0
BBX 14 15 1 0
BITMAP
0FF8
3FF8
7C38
7C18
7818
F800
FFE0
FFE0
F800
F800
781C
7C1C
3E1C
1FFC
0FF8
ENDCHAR
STARTCHAR 0455
ENCODING 1109
SWIDTH 450 0
DWIDTH 15 0
BBX 13 16 1 0
BITMAP
0600
3FF0
7DF0
7870
F870
FC20
7F00
7FC0
3FF0
0FF8
21F8
E0F8
E0F8
F0F8
FFF0
7FE0
ENDCHAR
STARTCHAR 0456
ENCODING 1110
SWIDTH 330 0
DWIDTH 11 0
BBX 10 23 1 0
BITMAP
1E00
3E00
3F00
3E00
1C00
0000
0000
0200
7E00
FE00
7E00
3E00
1E00
1E00
1E00
1E00
1E00
1E00
1E00
3E00
3F00
FFC0
FFC0
ENDCHAR
STARTCHAR 0457
ENCODING 1111
SWIDTH 330 0
DWIDTH 11 0
BBX 11 22 0 0
BITMAP
71C0
FBE0
FBE0
F9E0
70C0
0000
0100
3F00
7F00
3F00
1F00
0F00
0F00
0F00
0F00
0F00
0F00
0F00
1F00
1F80
7FE0
7FE0
ENDCHAR
STARTCHAR 0458
ENCODING 1112
SWIDTH 300 0
DWIDTH 10 0
BBX 7 31 1 -8
BITMAP
1E
3E
3E
3E
1C
00
00
00
7E
FE
FE
3E
1E
1E
1E
1E
1E
1E
1E
1E
1E
1E
1E
3E
3E
3C
3C
78
F0
E0
C0
ENDCHAR
STARTCHAR 0459
ENCODING 1113
SWIDTH 810 0
DWIDTH 27 0
BBX 26 15 0 0
BITMAP
0FFFE000
0FFFC000
030F8000
030F8000
030F8000
030F8000
030FFF00
030FFF80
070F8FC0
060F87C0
060F87C0
7E0F87C0
FC1F8FC0
FC3FFF80
783FFE00
ENDCHAR
STARTCHAR 045A
ENCODING 1114
SWIDTH 840 0
DWIDTH 28 0
BBX 26 15 1 0
BITMAP
FFBFF000
FF3FF000
3E0F8000
3E0F8000
3E0F8000
3E0F8000
3FFFFC00
3FFFFF80
3E0F9FC0
3E0F87C0
3E0F87C0
3E0F87C0
3E0F8FC0
FF3FFF80
FFBFFE00
ENDCHAR
STARTCHAR 045B
ENCODING 1115
SWIDTH 630 0
DWIDTH 21 0
BBX 21 24 0 0
BITMAP
030000
7F0000
7F0000
1F0000
1F0000
1F0000
FFF800
FFF800
1F0000
1F1F00
1F7F80
1FFFC0
1FC7C0
1F83E0
1F83E0
1F03E0
1F03E0
1F03E0
1F03E0
1F03E0
1F03E0
1F87E0
7FCFF8
7FCFF8
ENDCHAR
STARTCHAR 045C
ENCODING 1116
SWIDTH 570 0
DWIDTH 19 0
BBX 19 24 1 0
BITMAP
001E00
001C00
003C00
003800
007000
007000
000000
000000
000000
FF9FC0
FF9FC0
3E0E00
3E1C00
3E1800
3E3000
3E7000
3EF000
3EF800
3E7C00
3E7E00
3E3E00
3E1F80
FF9FE0
FF8FE0
ENDCHAR
STARTCHAR 045D
ENCODING 1117
SWIDTH 630 0
DWIDTH 21 0
BBX 19 24 1 0
BITMAP
038000
07C000
03C000
01C000
00E000
006000
000000
000000
000000
FF87E0
FF0FE0
3E0FC0
3E1F80
3E3F80
3E3780
3E6780
3EE780
3EC780
3FC780
3F8780
3F0780
3F0FC0
FE1FE0
FC1FE0
ENDCHAR
STARTCHAR 045E
ENCODING 1118
SWIDTH 540 0
DWIDTH 18 0
BBX 18 31 0 -8
BITMAP
0E03C0
0F0380
0F0780
078F00
03FE00
002000
000000
000000
FFCFC0
7FCFC0
3F0780
1F0300
1F0700
0F8600
0F8E00
07CC00
07CC00
03F800
03F800
01F800
01F000
01F000
00E000
00E000
00C000
00C000
01C000
7F8000
7F8000
7F0000
3E0000
ENDCHAR
STARTCHAR 045F
ENCODING 1119
SWIDTH 630 0
DWIDTH 21 0
BBX 19 21 1 -6
BITMAP
FF9FE0
FF9FE0
3E0FC0
3E0F80
3E0780
3E0780
3E0780
3E0780
3E0780
3E0780
3E0780
3E0FC0
3E0FC0
FFFFE0
FFFFE0
01F000
00F000
00E000
00E000
00E000
00E000
ENDCHAR
STARTCHAR 0462
ENCODING 1122
SWIDTH 720 0
DWIDTH 24 0
BBX 22 24 1 0
BITMAP
1FF800
1FF800
07E000
07E000
03E000
FFFF80
FFFF80
E3E380
E3E380
C3E180
C3E100
03E000
03FF80
03FFF0
03E3F8
03E0FC
03E0FC
03E0FC
03E07C
03E07C
07E0FC
07E1F8
1FFFF0
1FFFC0
ENDCHAR
STARTCHAR 0463
ENCODING 1123
SWIDTH 630 0
DWIDTH 21 0
BBX 19 24 1 0
BITMAP
008000
1FC000
3FC000
0FC000
07C000
07C000
07C000
07C000
07C000
FFFF00
FFFF00
E7C700
C7C700
47C000
07C000
07FF80
07FFC0
07C7E0
07C3E0
07C3E0
07C3E0
0FC3E0
1FFFC0
1FFF00
ENDCHAR
STARTCHAR 046A
ENCODING 1130
SWIDTH 930 0
DWIDTH 31 0
BBX 30 23 1 0
BITMAP
1FFFFFE0
1FFFFFE0
0FFFFFC0
07E00380
03F00700
01F80E00
01F80C00
00FC1800
007E3800
003F7000
001F6000
007FF800
01FFFE00
03FFBF00
07CF9F80
07CF8F80
0F8F8FC0
0F8F87C0
1F8F87E0
1F0FC3E0
3F0FC3F0
FE3FF1FC
FC3FF1FC
ENDCHAR
STARTCHAR 046B
ENCODING 1131
SWIDTH 810 0
DWIDTH 27 0
BBX 25 15 1 0
BITMAP
3FFFFE00
3FFFFE00
0FC03800
07E07000
03F0E000
01F9C000
00FF8000
07FFF000
0FFFF800
1F3E7C00
1F3E7E00
3E3E3E00
7E3E3F00
FCFF9F80
F8FF8F80
ENDCHAR
STARTCHAR 0472
ENCODING 1138
SWIDTH 720 0
DWIDTH 24 0
BBX 23 23 1 0
BITMAP
007C00
03FF80
0F8FE0
1F03F0
3E01F8
3C00F8
7C00FC
7C007C
FC007C
F8E07E
FBF9FE
FFFFFE
FFFFFE
FC0F7E
FC007C
7C007C
7C007C
7E0078
3E00F8
1F01F0
0F83E0
07FFC0
01FF00
ENDCHAR
STARTCHAR 0473
ENCODING 1139
SWIDTH 570 0
DWIDTH 19 0
BBX 17 16 1 0
BITMAP
018000
0FF800
1FFE00
3C3E00
7C1F00
780F00
F80F80
FFFF80
FFFF80
FCEF80
F80F80
7C0F00
7C1F00
3E1E00
1FFC00
0FF800
ENDCHAR
STARTCHAR 0474
ENCODING 1140
SWIDTH 720 0
DWIDTH 24 0
BBX 23 23 1 0
BITMAP
FF801C
FF807E
FF007E
7E00FC
3E00E4
3F01C0
1F0180
1F8180
0F8300
0F8300
0FC300
07C200
07C600
03E600
03E400
03EC00
01FC00
01F800
01F800
00F800
00F000
007000
007000
ENDCHAR
STARTCHAR 0475
ENCODING 1141
SWIDTH 510 0
DWIDTH 17 0
BBX 17 16 0 0
BITMAP
000100
FF8780
7F0F80
3E0F80
3F0E00
1F1C00
1F1800
0F9800
0FB000
07B000
07F000
07E000
03E000
03E000
01C000
01C000
ENDCHAR
STARTCHAR 048A
ENCODING 1162
SWIDTH 810 0
DWIDTH 27 0
BBX 25 36 1 -6
BITMAP
01818000
0781E000
0781E000
03C3C000
01FF8000
003C0000
00000000
FFC07F00
FFC0FE00
7FC0FE00
1F01F800
1F01F800
1F03F800
1F03F800
1F06F800
1F0EF800
1F0CF800
1F1CF800
1F18F800
1F38F800
1F30F800
1F70F800
1F60F800
1FE0F800
1FC0F800
1FC0F800
1F80F800
3F81FC00
7F03FF80
FF03FF80
00000780
00000700
00000F00
00001E00
00001E00
00000C00
ENDCHAR
STARTCHAR 048B
ENCODING 1163
SWIDTH 660 0
DWIDTH 22 0
BBX 21 29 1 -6
BITMAP
1E0780
1E0700
1E0F00
0F1E00
07FC00
004000
000000
000000
FF87E0
FF0FE0
3E0FC0
3E1F80
3E3F80
3E3780
3E6780
3EE780
3EC780
3FC780
3F8780
3F0780
3F0FC0
FE1FF0
FC1FF8
0000F8
0000F0
0000F0
0001E0
0001C0
000080
ENDCHAR
STARTCHAR 048C
ENCODING 1164
SWIDTH 660 0
DWIDTH 22 0
BBX 21 23 0 0
BITMAP
7FF000
7FF000
3FF000
0F8000
0F8000
FFF800
FFF800
FFF800
0F8000
0F8000
0FFF00
0FFFC0
0F8FF0
0F83F0
0F81F8
0F81F8
0F81F8
0F81F8
0F81F8
0F81F0
1FC3E0
3FFFC0
7FFF00
ENDCHAR
STARTCHAR 048D
ENCODING 1165
SWIDTH 570 0
DWIDTH 19 0
BBX 18 24 0 0
BITMAP
020000
7F0000
7F0000
3F0000
1F0000
1F0000
1F0000
1F0000
1F0000
FFF800
FFF800
1F0000
1F0000
1F0000
1FFC00
1FFF00
1F1F80
1F0FC0
1F07C0
1F07C0
1F07C0
1F0F80
7FFF80
7FFE00
ENDCHAR
STARTCHAR 048E
ENCODING 1166
SWIDTH 630 0
DWIDTH 21 0
BBX 19 23 1 0
BITMAP
FFF800
FFFF00
7FBF80
1F07C0
1F03E0
1F03E0
1F01E0
1F01E0
1F01E0
1F19E0
1F3DE0
1F1FC0
1F0F80
1F7F80
1F7FC0
1F00E0
1F0040
1F0000
1F0000
1F0000
3F8000
FFE000
FFE000
ENDCHAR
STARTCHAR 048F
ENCODING 1167
SWIDTH 630 0
DWIDTH 21 0
BBX 19 24 1 -8
BITMAP
020800
7E7F00
FEFF80
7F8FC0
3E07C0
1E03E0
1E03E0
1E03E0
1E03E0
1E03E0
1E03C0
1E37C0
1E3F80
1F1F80
1FFF00
1FFF00
1E0380
1E0100
1E0000
1E0000
3F0000
3F0000
FFE000
FFE000
ENDCHAR
STARTCHAR 0490
ENCODING 1168
SWIDTH 540 0
DWIDTH 18 0
BBX 17 28 1 0
BITMAP
000700
000700
000700
000700
000780
FFFF80
FFFF80
7F0000
1F0000
1F0000
1F0000
1F0000
1F0000
1F0000
1F0000
1F0000
1F0000
1F0000
1F0000
1F0000
1F0000
1F0000
1F0000
1F0000
1F0000
3F8000
FFE000
FFE000
ENDCHAR
STARTCHAR 0491
ENCODING 1169
SWIDTH 450 0
DWIDTH 15 0
BBX 14 21 1 0
BITMAP
001C
003C
003C
003C
003C
003C
FFFC
FFF8
3E00
3E00
3E00
3E00
3E00
3E00
3E00
3E00
3E00
3E00
3E00
FFC0
FFC0
ENDCHAR
STARTCHAR 0492
ENCODING 1170
SWIDTH 570 0
DWIDTH 19 0
BBX 19 23 0 0
BITMAP
7FFFC0
7FFFC0
3F8FC0
0F81C0
0F80C0
0F80E0
0F8080
0F8000
0F8000
0F8000
0F8000
FFFC00
FFFC00
0F8000
0F8000
0F8000
0F8000
0F8000
0F8000
0F8000
1FC000
7FF000
7FF000
ENDCHAR
STARTCHAR 0493
ENCODING 1171
SWIDTH 480 0
DWIDTH 16 0
BBX 16 15 0 0
BITMAP
7FFE
7FFE
1F0E
1F06
1F07
1F00
1F00
FFF0
FFF0
1F00
1F00
1F00
1F80
7FE0
7FE0
ENDCHAR
STARTCHAR 0494
ENCODING 1172
SWIDTH 630 0
DWIDTH 21 0
BBX 19 31 1 -8
BITMAP
FFFF80
FFFF80
7F1F80
1F0380
1F0180
1F01C0
1F0100
1F0000
1F0000
1F0000
1F3800
1FFF00
1FFF80
1F0FC0
1F07E0
1F03E0
1F03E0
1F03E0
1F03E0
1F03E0
3F83E0
FFC3E0
FFC3E0
0003E0
0003C0
0007C0
000780
000F00
000E00
001C00
001800
ENDCHAR
STARTCHAR 0495
ENCODING 1173
SWIDTH 570 0
DWIDTH 19 0
BBX 17 23 1 -8
BITMAP
FFFE00
FFFE00
3E0E00
3E0700
3E0400
3E0000
3E4000
3FFC00
3F7E00
3E1F00
3E0F80
3E0F80
3F0F80
FF8F80
FF8F80
000F80
000F80
000F00
001F00
001E00
003C00
007800
007000
ENDCHAR
STARTCHAR 0496
ENCODING 1174
SWIDTH 1080 0
DWIDTH 36 0
BBX 36 29 0 -6
BITMAP
7F87FC7F80
7F87FC7F80
3F87FC3F80
0701F03C00
0381F03800
01C1F07000
00E1F0E000
0061F1C000
0071F18000
0039F38000
007DF7C000
00FDF7C000
00F9F7E000
01F9F3E000
01F1F3F000
03F1F1F800
03E1F0F800
07E1F0FC00
0FC1F07C00
1F81F07E00
3F83F03F80
FF07FC3FE0
FF07FC1FF0
00000000E0
00000000E0
00000000E0
00000000E0
00000000E0
00000000E0
ENDCHAR
STARTCHAR 0497
ENCODING 1175
SWIDTH 870 0
DWIDTH 29 0
BBX 29 21 1 -6
BITMAP
FF7FCFE0
7E3FCFE0
1C1F0700
0E1F0E00
071F1C00
039F3800
01DF3800
03FF7800
07DF7C00
0FDF3E00
0F9F3F00
1F1F1F00
7F1F0FC0
FE7FCFF0
FC7FC7F8
00000078
00000078
00000070
00000070
00000070
00000070
ENDCHAR
STARTCHAR 0498
ENCODING 1176
SWIDTH 570 0
DWIDTH 19 0
BBX 16 29 2 -6
BITMAP
0FE0
7FF8
FCFC
F07E
F03E
E03E
603E
003E
007C
00F8
07E0
0FF8
07FC
007E
003F
001F
E01F
E01F
E01F
F03E
F87E
FFFC
3FF0
0780
0780
0780
0780
0380
0780
ENDCHAR
STARTCHAR 0499
ENCODING 1177
SWIDTH 480 0
DWIDTH 16 0
BBX 14 21 1 -5
BITMAP
7FF0
7DF8
70FC
707C
6078
00F8
0FE0
0FF0
01FC
007C
E07C
E07C
F07C
FFF8
7FE0
0700
0700
0700
0700
0700
0700
ENDCHAR
STARTCHAR 049A
ENCODING 1178
SWIDTH 750 0
DWIDTH 25 0
BBX 24 29 1 -6
BITMAP
FFC3FC
FFC3FC
7FC1F8
1F01E0
1F01C0
1F0380
1F0700
1F0E00
1F0C00
1F1800
1F3C00
1F7C00
1F7E00
1F3F00
1F1F80
1F1F80
1F0FC0
1F07E0
1F07E0
1F03F0
3F01FC
7FC1FF
FFC0FF
00001F
00000F
000007
000007
000007
000007
ENDCHAR
STARTCHAR 049B
ENCODING 1179
SWIDTH 570 0
DWIDTH 19 0
BBX 20 21 1 -6
BITMAP
FF9FC0
FF9FC0
3E0E00
3E1C00
3E1800
3E3000
3E7000
3EF000
3EF800
3E7C00
3E7E00
3E3E00
3E1F80
FF9FE0
FF8FF0
0000F0
0000F0
0000E0
0000E0
0000E0
0000E0
ENDCHAR
STARTCHAR 049C
ENCODING 1180
SWIDTH 750 0
DWIDTH 25 0
BBX 24 23 1 0
BITMAP
FFC01C
FFC07C
7FC07C
1F00FC
1F00CC
1F618C
1F7380
1F7300
1F7700
1F7600
1FFC00
1FFF00
1F7F80
1F77C0
1F77C0
1F77C0
1F73E0
1F03E0
1F01F0
1F01F8
3F01FC
7FC0FF
FFC07F
ENDCHAR
STARTCHAR 049D
ENCODING 1181
SWIDTH 660 0
DWIDTH 22 0
BBX 21 15 1 0
BITMAP
FF80F0
FF81F0
3E03F0
3EE670
3EE600
3EEC00
3FFC00
3FFE00
3EFF00
3EEF80
3EEF80
3E07C0
3F07E0
FF83F8
FF81F8
ENDCHAR
STARTCHAR 049E
ENCODING 1182
SWIDTH 720 0
DWIDTH 24 0
BBX 24 23 0 0
BITMAP
7FE01E
7FE07E
3FE0FE
0F80FE
0F81CE
7FF38E
FFF300
0F8700
0F8E00
0F9C00
0FF800
0FFF00
0FBF80
0F8FC0
0F87C0
0F87E0
0F83E0
0F83F0
0F81F0
0F81F8
1F80FC
3FE0FF
7FE07F
ENDCHAR
STARTCHAR 049F
ENCODING 1183
SWIDTH 600 0
DWIDTH 20 0
BBX 19 24 1 0
BITMAP
060000
FE0000
FE0000
3E0000
3E0000
3E0000
FFF000
FFF000
3E0000
3E07C0
3E0FC0
3E0FC0
3E19C0
3E3000
3E6000
3FE000
3FF800
3EFC00
3E7E00
3E3E00
3E3F00
3F1F80
FF8FE0
FF8FE0
ENDCHAR
STARTCHAR 04A0
ENCODING 1184
SWIDTH 840 0
DWIDTH 28 0
BBX 27 23 1 0
BITMAP
FFFE03C0
FFFE0FC0
FCFC1FC0
F0F81FC0
E0F839C0
E0F831C0
00F87000
00F8E000
00F8C000
00F9C000
00FF8000
00FFE000
00FBF000
00F9F800
00F8F800
00F87C00
00F87C00
00F83E00
00F83E00
01F83F00
01F81F80
0FFE1FE0
0FFE0FE0
ENDCHAR
STARTCHAR 04A1
ENCODING 1185
SWIDTH 690 0
DWIDTH 23 0
BBX 21 15 1 0
BITMAP
FFF0F8
FFF1F8
E3E1F8
C3E338
C3E700
03EE00
03FC00
03FF00
03EF80
03E7C0
03E7C0
03E3E0
07E3F0
1FF1F8
1FF0F8
ENDCHAR
STARTCHAR 04A2
ENCODING 1186
SWIDTH 810 0
DWIDTH 27 0
BBX 25 29 1 -6
BITMAP
FFC3FF00
FFC3FE00
7FC3FE00
1F00F800
1F00F800
1F00F800
1F00F800
1F00F800
1F00F800
1F00F800
1FFFF800
1FFFF800
1FFCF800
1F00F800
1F00F800
1F00F800
1F00F800
1F00F800
1F00F800
1F00F800
3F01FC00
7FC3FF80
FFC3FF80
00000780
00000380
00000380
00000380
00000380
00000380
ENDCHAR
STARTCHAR 04A3
ENCODING 1187
SWIDTH 690 0
DWIDTH 23 0
BBX 21 21 1 -6
BITMAP
FF9FF0
FF9FE0
3E07C0
3E07C0
3E07C0
3E07C0
3FFFC0
3FFFC0
3E07C0
3E07C0
3E07C0
3E07C0
3E0FC0
FF9FF8
FF9FF8
000038
000038
000038
000038
000038
000038
ENDCHAR
STARTCHAR 04A4
ENCODING 1188
SWIDTH 900 0
DWIDTH 30 0
BBX 29 23 1 0
BITMAP
FFC7FFF0
FFC7FFF0
7FC7F3F0
1F01F070
1F01F030
1F01F038
1F01F020
1F01F000
1F01F000
1F01F000
1FFFF000
1FFFF000
1FE1F000
1F01F000
1F01F000
1F01F000
1F01F000
1F01F000
1F01F000
1F01F000
3F01F800
7FC7FF00
FFC7FF00
ENDCHAR
STARTCHAR 04A5
ENCODING 1189
SWIDTH 750 0
DWIDTH 25 0
BBX 24 15 1 0
BITMAP
FF9FFF
FF1FFF
3E0F87
3E0F87
3E0F80
3E0F80
3FFF80
3FFF80
3E0F80
3E0F80
3E0F80
3E0F80
3E0FC0
FF1FF0
FF9FF0
ENDCHAR
STARTCHAR 04A8
ENCODING 1192
SWIDTH 900 0
DWIDTH 30 0
BBX 29 23 1 0
BITMAP
00600000
03E02000
0FC3FE00
1F07FF00
3E0F0F80
3E1F07C0
7C1E07C0
7C3E07C0
FC3E07E0
F83E07E0
F83E07E0
F83E07E0
F83E07E0
FC3E07C0
FC3E07C0
7C1F07C0
7C1F0780
3E0F8F80
3F0F8F00
1F87DE30
0FC3FCF8
07FFFFE0
01FFBF80
ENDCHAR
STARTCHAR 04A9
ENCODING 1193
SWIDTH 780 0
DWIDTH 26 0
BBX 24 16 1 0
BITMAP
010000
0F0FC0
1F3FF0
3C7CF8
7C787C
78F87C
F8F87C
F8F87C
F8F87C
F8F87C
F8F878
7C7878
7E3CF0
3F1FE7
1FFFFF
07FFFC
ENDCHAR
STARTCHAR 04AA
ENCODING 1194
SWIDTH 630 0
DWIDTH 21 0
BBX 19 29 1 -6
BITMAP
007C00
03FFC0
0FC7E0
1F01E0
3E01E0
3C00C0
7C00C0
7C0000
FC0000
F80000
F80000
FC0000
F80000
FC0000
FC0000
7C0000
7E0000
7E0000
3F0000
1F8020
0FE3E0
07FFC0
01FF00
007800
003800
003800
003800
003800
003800
ENDCHAR
STARTCHAR 04AB
ENCODING 1195
SWIDTH 450 0
DWIDTH 15 0
BBX 14 22 1 -6
BITMAP
0100
0FF8
1FF8
3C38
7838
7838
F800
F800
F800
F800
F800
7C00
7C00
3F1C
1FF8
0FF0
01C0
01C0
01C0
01C0
01C0
01C0
ENDCHAR
STARTCHAR 04AC
ENCODING 1196
SWIDTH 630 0
DWIDTH 21 0
BBX 20 29 1 -6
BITMAP
7FFFE0
FFFFE0
FDF3F0
F1F0F0
E1F070
E1F070
C1F040
01F000
01F000
01F000
01F000
01F000
01F000
01F000
01F000
01F000
01F000
01F000
01F000
01F800
01F800
0FFF00
0FFF80
000780
000780
000700
000700
000700
000700
ENDCHAR
STARTCHAR 04AD
ENCODING 1197
SWIDTH 540 0
DWIDTH 18 0
BBX 17 21 1 -6
BITMAP
FFFF00
FFFF80
E3E380
C3E380
C3E300
03E000
03E000
03E000
03E000
03E000
03E000
03E000
07E000
1FFC00
1FFC00
001C00
001C00
001C00
001C00
001C00
001C00
ENDCHAR
STARTCHAR 04AE
ENCODING 1198
SWIDTH 630 0
DWIDTH 21 0
BBX 19 23 1 0
BITMAP
FF87E0
FF87E0
FF03E0
3F01C0
3F0180
1F0300
1F8300
0F8700
0FC600
07CE00
07EC00
03EC00
03F800
01F800
01F000
01F000
01F000
01F000
01F000
01F000
03F800
0FFE00
0FFE00
ENDCHAR
STARTCHAR 04AF
ENCODING 1199
SWIDTH 540 0
DWIDTH 18 0
BBX 18 23 0 -8
BITMAP
FFCFC0
7F8FC0
3F0380
1F0300
1F0700
0F8600
0F8E00
07CC00
07CC00
03F800
03F800
03F800
01F000
01F000
01F000
01F000
01F000
01F000
01F000
01F000
01F000
07FC00
07FC00
ENDCHAR
STARTCHAR 04B0
ENCODING 1200
SWIDTH 630 0
DWIDTH 21 0
BBX 19 23 1 0
BITMAP
FF87E0
FF87E0
FF03E0
3F01C0
3F0180
1F0300
1F8300
0F8700
0FC600
07CE00
07EC00
03EC00
03F800
01F800
1FFF00
1FFF00
1FFF00
01F000
01F000
01F000
03F800
0FFE00
0FFE00
ENDCHAR
STARTCHAR 04B1
ENCODING 1201
SWIDTH 540 0
DWIDTH 18 0
BBX 18 23 0 -8
BITMAP
FFCFC0
7F8FC0
3F0380
1F0300
1F0700
0F8600
0F8E00
07CC00
07CC00
03F800
03F800
01F800
01F000
1FFF00
1FFF00
01F000
01F000
01F000
01F000
01F000
01F000
07FC00
07FC00
ENDCHAR
STARTCHAR 04B2
ENCODING 1202
SWIDTH 720 0
DWIDTH 24 0
BBX 22 29 1 -6
BITMAP
FFC3F8
FFC3F8
7FC3F0
3F81E0
1F81C0
0FC380
07E300
07E700
03FE00
03FC00
01FC00
00FC00
00FC00
01FE00
01BF00
03BF00
071F80
061F80
0E0FC0
1C0FE0
7C07F0
FF1FFC
FF1FFC
00001C
00001C
00001C
00001C
00001C
00001C
ENDCHAR
STARTCHAR 04B3
ENCODING 1203
SWIDTH 540 0
DWIDTH 18 0
BBX 18 21 1 -6
BITMAP
FF9F80
FF9F00
3F0E00
1F9C00
0F9800
0FF800
07F000
07F000
07F800
0FF800
1CFC00
1C7E00
387F00
FCFFC0
FCFFC0
0003C0
0003C0
0001C0
0001C0
0001C0
0001C0
ENDCHAR
STARTCHAR 04B4
ENCODING 1204
SWIDTH 1020 0
DWIDTH 34 0
BBX 32 29 1 -6
BITMAP
7FFFCFFC
FFFFCFFC
FCFFC7F8
F0F9E3F0
E0F8E3F0
E0F8E1F0
C0F881F0
00F801F0
00F801F0
00F801F0
00F801F0
00F801F0
00F801F0
00F801F0
00F801F0
00F801F0
00F801F0
00F801F0
00F801F0
01F803F0
01F803F0
07FFFFFF
07FFFFFF
0000000F
0000000F
0000000F
00000007
00000007
00000007
ENDCHAR
STARTCHAR 04B5
ENCODING 1205
SWIDTH 840 0
DWIDTH 28 0
BBX 27 21 1 -6
BITMAP
FFFEFF80
FFFEFF00
E3EE3E00
C3E63E00
C3E63E00
03E03E00
03E03E00
03E03E00
03E03E00
03E03E00
03E03E00
03E03E00
07E07E00
0FFFFFC0
0FFFFFE0
000001C0
000001C0
000001C0
000001C0
000001C0
000001C0
ENDCHAR
STARTCHAR 04B6
ENCODING 1206
SWIDTH 780 0
DWIDTH 26 0
BBX 24 29 1 -6
BITMAP
FFC7FC
FFC7FC
7F87F8
3F03F0
3E01F0
3E01F0
3E01F0
1F01F0
1F01F0
1F01F0
1F01F0
0F81F0
0FFFF0
03FFF0
0001F0
0001F0
0001F0
0001F0
0001F0
0003F0
0003F0
001FFF
001FFF
00000F
00000F
00000F
00000F
00000F
00000F
ENDCHAR
STARTCHAR 04B7
ENCODING 1207
SWIDTH 630 0
DWIDTH 21 0
BBX 21 21 0 -6
BITMAP
FFBFE0
7F1FC0
3E0F80
3E0F80
3E0F80
3E0F80
1F0F80
1FFF80
0FFF80
018F80
000F80
000F80
001F80
007FF0
007FF8
000070
000070
000070
000070
000070
000070
ENDCHAR
STARTCHAR 04B8
ENCODING 1208
SWIDTH 750 0
DWIDTH 25 0
BBX 23 23 1 0
BITMAP
FFC3FE
FFC3FE
7F83FE
3F00F8
3F00F8
3F00F8
3E18F8
1F18F8
1F18F8
1F18F8
1F98F8
0FFFF8
07FFF8
0018F8
0018F8
0018F8
0018F8
0018F8
0000F8
0000F8
0001FC
0007FE
0007FE
ENDCHAR
STARTCHAR 04B9
ENCODING 1209
SWIDTH 630 0
DWIDTH 21 0
BBX 20 15 1 0
BITMAP
FF1FF0
FF1FE0
7C07C0
7C07C0
3C67C0
3E67C0
3F67C0
1FFFC0
07E7C0
0067C0
0067C0
0067C0
0007C0
003FF0
003FF0
ENDCHAR
STARTCHAR 04BA
ENCODING 1210
SWIDTH 720 0
DWIDTH 24 0
BBX 23 23 1 0
BITMAP
FFE000
FFE000
7FE000
1F0000
1F0000
1F0000
1F0000
1F0000
1F0000
1F7F00
1FFFC0
1FFFE0
1F03E0
1F01F0
1F01F0
1F01F0
1F01F0
1F01F0
1F01F0
1F01F0
3F01F8
7FC7FC
FFC7FE
ENDCHAR
STARTCHAR 04BB
ENCODING 1211
SWIDTH 630 0
DWIDTH 21 0
BBX 20 24 1 0
BITMAP
060000
FE0000
FE0000
3E0000
3E0000
3E0000
3E0000
3E0000
3E0000
3E7F00
3EFF80
3FFF80
3E0F80
3E07C0
3E07C0
3E07C0
3E07C0
3E07C0
3E07C0
3E07C0
3E07C0
3F0FC0
FF9FE0
FF9FF0
ENDCHAR
STARTCHAR 04BC
ENCODING 1212
SWIDTH 810 0
DWIDTH 27 0
BBX 25 23 1 0
BITMAP
0003C000
001FF800
007E7C00
00F83E00
01F01F00
71E00F00
F3E00F80
F3E00F80
F3E00F80
F3E00F80
7FFFFF80
3FFFFF80
07F00000
07E00000
03E00000
03E00000
03F00000
03F00000
01F80180
00FC0380
00FFBF00
003FFE00
000FF800
ENDCHAR
STARTCHAR 04BD
ENCODING 1213
SWIDTH 630 0
DWIDTH 21 0
BBX 20 16 1 0
BITMAP
000C00
007F80
21FFC0
73E3E0
73C1E0
F7C1E0
77C1F0
7FFFF0
3FFFE0
07C000
07C000
07E000
03E020
03F8F0
01FFE0
007F80
ENDCHAR
STARTCHAR 04BE
ENCODING 1214
SWIDTH 810 0
DWIDTH 27 0
BBX 25 29 1 -6
BITMAP
0003C000
001FF800
007E7C00
00F83E00
01F01F00
71E00F00
F3E00F80
F3E00F80
F3E00F80
F3E00F80
7FFFFF80
3FFFFF80
07F00000
07E00000
03E00000
03E00000
03F00000
03F00000
01F80180
00FC0380
007FBF00
003FFE00
000FF800
0001C000
0001C000
0001C000
0001C000
0001C000
0001C000
ENDCHAR
STARTCHAR 04BF
ENCODING 1215
SWIDTH 630 0
DWIDTH 21 0
BBX 20 22 1 -6
BITMAP
000C00
007F80
21FFC0
73E3E0
73C1E0
F7C1E0
77C1F0
7FFFF0
3FFFE0
07C000
07C000
07E000
03E020
01F8F0
01FFE0
007F80
001E00
000E00
000E00
000E00
000E00
000E00
ENDCHAR
STARTCHAR 04C0
ENCODING 1216
SWIDTH 360 0
DWIDTH 12 0
BBX 10 23 1 0
BITMAP
FFC0
FFC0
7FC0
1F00
1F00
1F00
1F00
1F00
1F00
1F00
1F00
1F00
1F00
1F00
1F00
1F00
1F00
1F00
1F00
1F00
3F00
7FC0
FFC0
ENDCHAR
STARTCHAR 04C1
ENCODING 1217
SWIDTH 1020 0
DWIDTH 34 0
BBX 35 30 0 0
BITMAP
0004040000
003C0F0000
001E0F0000
001F1E0000
000FFC0000
0001F00000
0000000000
7F87FC7F80
7F87FC7F80
3F87FC3F80
0701F03C00
0381F03800
01C1F07000
00E1F0E000
0061F1C000
0071F18000
0039F38000
007DF7C000
00FDF7C000
00F9F7E000
01F9F3E000
01F1F3F000
03F1F1F800
03E1F0F800
07E1F0FC00
0FC1F07C00
1F81F07E00
3F83F03F80
FF07FC3FE0
FF07FC1FC0
ENDCHAR
STARTCHAR 04C2
ENCODING 1218
SWIDTH 870 0
DWIDTH 29 0
BBX 28 23 1 0
BITMAP
01E07800
01E07000
01E0F000
00F1E000
007FC000
00040000
00000000
00000000
FF7FCFE0
7E3FCFE0
1C1F0700
0E1F0E00
071F1C00
039F3800
01DF3800
03FF7800
07DF7C00
0FDF3E00
0F9F3F00
1F1F1F00
7F1F0FC0
FE7FCFF0
FC7FC7E0
ENDCHAR
STARTCHAR 04C3
ENCODING 1219
SWIDTH 690 0
DWIDTH 23 0
BBX 21 31 1 -8
BITMAP
FFC070
FFC1F0
7FC3F0
1F03F0
1F0730
1F0638
1F0C00
1F1C00
1F1800
1F3800
1FF000
1FFF00
1F3FC0
1F07E0
1F03F0
1F01F0
1F01F8
1F00F8
1F00F8
1F00F8
3F00F8
7FC0F8
FFC0F8
0000F0
0001F0
0001E0
0003E0
0007C0
000F80
001F00
000C00
ENDCHAR
STARTCHAR 04C4
ENCODING 1220
SWIDTH 570 0
DWIDTH 19 0
BBX 17 23 1 -8
BITMAP
FF8F80
FF9F80
3E1F80
3E3380
3E7000
3E6000
3FC000
3FFC00
3E3E00
3E1F00
3E0F80
3E0F80
3E0F80
FF8780
FF8780
000F80
000F80
000F00
001F00
001E00
003C00
007800
006000
ENDCHAR
STARTCHAR 04C5
ENCODING 1221
SWIDTH 750 0
DWIDTH 25 0
BBX 24 29 0 -6
BITMAP
0FFFFC
0FFFFC
07C1F8
01C1F0
01C1F0
0181F0
0181F0
0181F0
0181F0
0181F0
0181F0
0181F0
0181F0
0181F0
0381F0
0301F0
0301F0
0701F0
4F01F0
7F01F0
FE03F0
7E0FFE
7C0FFF
00001E
00001E
00001E
00003C
000078
000010
ENDCHAR
STARTCHAR 04C6
ENCODING 1222
SWIDTH 600 0
DWIDTH 20 0
BBX 20 21 0 -6
BITMAP
1FFFC0
0FFFC0
030F80
030F80
030F00
030F00
030F00
060F00
060F00
060F00
0E0F00
7E0F80
FC1F80
FC3FE0
F83FF0
0001F0
0001E0
0001E0
0001C0
000380
000100
ENDCHAR
STARTCHAR 04C7
ENCODING 1223
SWIDTH 750 0
DWIDTH 25 0
BBX 24 31 1 -8
BITMAP
FFC3FF
FFC3FE
7FC3FE
1F00F8
1F00F8
1F00F8
1F00F8
1F00F8
1F00F8
1F00F8
1FFFF8
1FFFF8
1FF0F8
1F00F8
1F00F8
1F00F8
1F00F8
1F00F8
1F00F8
1F00F8
3F00F8
7FC0F8
FFC0F8
0000F8
0000F0
0000F0
0001F0
0001E0
0003C0
000780
000700
ENDCHAR
STARTCHAR 04C8
ENCODING 1224
SWIDTH 630 0
DWIDTH 21 0
BBX 19 23 1 -8
BITMAP
FF9FE0
FF9FE0
3E0FC0
3E0780
3E0780
3E0780
3FFF80
3FFF80
3E0780
3E0780
3E0780
3E0780
3E0780
FF8780
FF8780
000780
000F80
000F00
000F00
001E00
003C00
003800
003000
ENDCHAR
STARTCHAR 04C9
ENCODING 1225
SWIDTH 810 0
DWIDTH 27 0
BBX 25 29 1 -6
BITMAP
FFC3FF00
FFC3FE00
7FC3FE00
1F00F800
1F00F800
1F00F800
1F00F800
1F00F800
1F00F800
1F00F800
1FFFF800
1FFFF800
1FFCF800
1F00F800
1F00F800
1F00F800
1F00F800
1F00F800
1F00F800
1F00F800
3F01FC00
7FC3FF80
FFC3FF80
00000780
00000700
00000F00
00001E00
00001E00
00000C00
ENDCHAR
STARTCHAR 04CA
ENCODING 1226
SWIDTH 660 0
DWIDTH 22 0
BBX 21 21 1 -6
BITMAP
FF9FF0
FF9FE0
3E07C0
3E07C0
3E07C0
3E07C0
3FFFC0
3FFFC0
3E07C0
3E07C0
3E07C0
3E07C0
3E0FC0
FF9FF8
FF9FF8
000078
000070
0000F0
0000E0
0001C0
0000C0
ENDCHAR
STARTCHAR 04CB
ENCODING 1227
SWIDTH 720 0
DWIDTH 24 0
BBX 22 29 1 -6
BITMAP
FFC7FC
FFC7FC
7F87F8
3F03F0
3E01F0
3E01F0
3E01F0
1F01F0
1F01F0
1F01F0
1F01F0
0F81F0
0FFFF0
03FFF0
0001F0
0001F0
0001F0
0001F0
0001F0
0003F0
0003F0
003FFC
003FFC
003C00
003C00
003C00
003C00
003C00
003C00
ENDCHAR
STARTCHAR 04CC
ENCODING 1228
SWIDTH 570 0
DWIDTH 19 0
BBX 19 21 0 -6
BITMAP
FFBFE0
7F1FC0
3E0F80
3E0F80
3E0F80
3E0F80
1F0F80
1FFF80
0FFF80
018F80
000F80
000F80
001F80
00FFE0
00FFE0
00F000
00F000
00E000
00E000
00E000
00E000
ENDCHAR
STARTCHAR 04CD
ENCODING 1229
SWIDTH 990 0
DWIDTH 33 0
BBX 32 29 1 -6
BITMAP
7F8003F8
7F8007F8
3F8007F0
0FC007E0
0FC00FE0
0FE00FE0
0FE01FE0
1FF01BE0
1DF01BE0
1DF03BE0
19F833E0
18F833E0
18FC63E0
187C63E0
187EE3F0
183EC1F0
183FC1F0
181F81F0
381F81F0
381F81F0
780F03F8
FE0F07FF
FE0607FF
0000000F
0000001E
0000001E
0000003C
00000038
00000018
ENDCHAR
STARTCHAR 04CE
ENCODING 1230
SWIDTH 780 0
DWIDTH 26 0
BBX 25 21 1 -6
BITMAP
7F01FC00
7F01FC00
1F83F000
1F83F000
1FC7F000
17C6F800
33E6F800
33ECF800
33FCF800
31F8F800
31F8F800
30F07800
70F0FC00
F861FF00
FC41FF80
00000F80
00000F00
00000F00
00001E00
00001C00
00000800
ENDCHAR
STARTCHAR 04CF
ENCODING 1231
SWIDTH 330 0
DWIDTH 11 0
BBX 9 24 1 0
BITMAP
0600
FE00
FE00
3E00
3E00
3E00
3E00
3E00
3E00
3E00
3E00
3E00
3E00
3E00
3E00
3E00
3E00
3E00
3E00
3E00
3E00
3F00
FF80
FF80
ENDCHAR
STARTCHAR 04D0
ENCODING 1232
SWIDTH 690 0
DWIDTH 23 0
BBX 22 30 1 0
BITMAP
020200
0E0380
0F0780
0F8F80
07FE00
00F800
000000
007000
007000
007000
00F800
00F800
01FC00
01FC00
01FE00
033E00
033F00
071F00
061F00
061F80
0C0F80
0C0FC0
1FFFC0
1FFFE0
1803E0
3003F0
3003F0
7803F8
FC07FC
FC07FC
ENDCHAR
STARTCHAR 04D1
ENCODING 1233
SWIDTH 540 0
DWIDTH 18 0
BBX 16 23 2 0
BITMAP
7078
7070
78F0
7CF0
3FE0
0600
0000
0180
0FF0
1FF8
38F8
78F8
F8FC
787C
01F8
0F78
3C78
7878
F878
F87C
FC7F
7FFF
3E7E
ENDCHAR
STARTCHAR 04D2
ENCODING 1234
SWIDTH 690 0
DWIDTH 23 0
BBX 22 29 1 0
BITMAP
070700
0F8F80
0F8F80
0F8F80
070700
000000
007000
007000
007000
00F800
00F800
01FC00
01FC00
01FE00
033E00
033F00
071F00
061F00
061F80
0C0F80
0C0FC0
1FFFC0
1FFFE0
1803E0
3003F0
3003F0
7803F8
FC07FC
FC07FC
ENDCHAR
STARTCHAR 04D3
ENCODING 1235
SWIDTH 540 0
DWIDTH 18 0
BBX 16 22 2 0
BITMAP
7070
F8F8
F8F8
F8F8
3070
0000
0180
0FF0
1FF8
38F8
78F8
F8FC
787C
01F8
0F78
3C78
7878
F878
F87C
FC7F
7FFF
3E7E
ENDCHAR
STARTCHAR 04D4
ENCODING 1236
SWIDTH 930 0
DWIDTH 31 0
BBX 30 23 1 0
BITMAP
007FFFF0
007FFFF0
003FE3F0
001FE070
001BE030
001BE038
0033E020
0073E000
0063E000
00E3E180
00C3E180
01FFFF80
03FFFF80
03E3E380
0703E180
0603E180
0E03E000
0C03E01C
1C03E01C
3803F038
7C03F078
FE0FFFF8
FE0FFFF8
ENDCHAR
STARTCHAR 04D5
ENCODING 1237
SWIDTH 720 0
DWIDTH 24 0
BBX 22 16 1 0
BITMAP
010080
3FEFF0
7DFEF8
78FC78
707C3C
70783C
00783C
07FFFC
1FFFF8
7C7800
787C00
F0FC00
F8FE00
FDFF3C
7F9FF8
3F07F0
ENDCHAR
STARTCHAR 04D6
ENCODING 1238
SWIDTH 600 0
DWIDTH 20 0
BBX 19 30 1 0
BITMAP
040400
1C0700
1E0F00
1F1E00
0FFC00
01F000
000000
FFFF80
FFFF80
7F1F80
1F0380
1F0180
1F01C0
1F0100
1F0000
1F0C00
1F0C00
1F1C00
1FFC00
1FFC00
1F0C00
1F0C00
1F0000
1F0000
1F00E0
1F00E0
1F01C0
3F83C0
7FFFC0
FFFFC0
ENDCHAR
STARTCHAR 04D7
ENCODING 1239
SWIDTH 510 0
DWIDTH 17 0
BBX 15 23 1 0
BITMAP
3838
3838
3C78
3E78
1FF0
0300
0000
0180
0FF0
3FF8
3C3C
783C
783E
F83E
FFFE
FFFC
F800
F800
7C00
7C00
3F1E
1FFC
0FF0
ENDCHAR
STARTCHAR 04D8
ENCODING 1240
SWIDTH 660 0
DWIDTH 22 0
BBX 20 23 1 0
BITMAP
07F000
3FFE00
7C3F80
780FC0
7007C0
7003E0
7003E0
0003F0
0001F0
0001F0
0001F0
7FFFF0
FFFFF0
F801F0
F801F0
F801F0
7C01E0
7C03E0
7C03C0
3E07C0
1F0F80
0FFE00
07FC00
ENDCHAR
STARTCHAR 04D9
ENCODING 1241
SWIDTH 510 0
DWIDTH 17 0
BBX 15 16 1 0
BITMAP
0200
7FF0
7FF8
707C
707C
603E
003E
003E
FFFE
FBFE
F83E
F83C
787C
7C78
3FF0
1FE0
ENDCHAR
STARTCHAR 04DA
ENCODING 1242
SWIDTH 660 0
DWIDTH 22 0
BBX 20 29 1 0
BITMAP
070E00
0F9F00
0F9F00
0F8F00
070E00
000000
07F000
3FFE00
7C3F80
780FC0
7007C0
7003E0
7003E0
0003F0
0001F0
0001F0
0001F0
7FFFF0
FFFFF0
F801F0
F801F0
F801F0
7C01E0
7C03E0
7C03C0
3E07C0
1F0F80
0FFE00
07FC00
ENDCHAR
STARTCHAR 04DB
ENCODING 1243
SWIDTH 510 0
DWIDTH 17 0
BBX 15 22 1 0
BITMAP
3838
7C7C
7C7C
7C7C
1838
0000
0200
7FF0
7FF8
707C
707C
603E
003E
003E
FFFE
FBFE
F83E
F83C
787C
7C78
3FF0
1FE0
ENDCHAR
STARTCHAR 04DC
ENCODING 1244
SWIDTH 1020 0
DWIDTH 34 0
BBX 35 29 0 0
BITMAP
000E0E0000
001F1E0000
001F1F0000
001F1E0000
000E0E0000
0000000000
7F87FC7F80
7F87FC7F80
3F87FC3F80
0701F03C00
0381F03800
01C1F07000
00E1F0E000
0061F1C000
0071F18000
0039F38000
007DF7C000
00FDF7C000
00F9F7E000
01F9F3E000
01F1F3F000
03F1F1F800
03E1F0F800
07E1F0FC00
0FC1F07C00
1F81F07E00
3F83F03F80
FF07FC3FE0
FF07FC1FC0
ENDCHAR
STARTCHAR 04DD
ENCODING 1245
SWIDTH 870 0
DWIDTH 29 0
BBX 28 22 1 0
BITMAP
00F0E000
00F1F000
01F1F000
00F1F000
0060E000
00000000
00000000
FF7FCFE0
7E3FCFE0
1C1F0700
0E1F0E00
071F1C00
039F3800
01DF3800
03FF7800
07DF7C00
0FDF3E00
0F9F3F00
1F1F1F00
7F1F0FC0
FE7FCFF0
FC7FC7E0
ENDCHAR
STARTCHAR 04DE
ENCODING 1246
SWIDTH 570 0
DWIDTH 19 0
BBX 16 29 2 0
BITMAP
3838
7C7C
7C7C
7C7C
3838
0000
0FE0
7FF8
FCFC
F07E
F03E
E03E
603E
003E
007C
00F8
07E0
0FF8
07FC
007E
003F
001F
E01F
E01F
E01F
F03E
F87E
FFFC
3FF0
ENDCHAR
STARTCHAR 04DF
ENCODING 1247
SWIDTH 480 0
DWIDTH 16 0
BBX 14 22 1 0
BITMAP
3870
7CF8
7CFC
7C78
3830
0000
0000
7FF0
7DF8
70FC
707C
6078
00F8
0FE0
0FF0
01FC
007C
E07C
E07C
F07C
FFF8
7FE0
ENDCHAR
STARTCHAR 04E0
ENCODING 1248
SWIDTH 570 0
DWIDTH 19 0
BBX 16 23 2 0
BITMAP
7FFC
7FFC
FFFE
FFFC
FFF8
F030
E070
00E0
01C0
0380
07E0
0FFC
0FFE
01FE
007F
003F
403F
E03F
E03E
E03E
F07C
FFF8
3FE0
ENDCHAR
STARTCHAR 04E1
ENCODING 1249
SWIDTH 480 0
DWIDTH 16 0
BBX 14 23 1 -8
BITMAP
7FFC
7FFC
7FF8
7C38
7070
60E0
00E0
01C0
0380
0780
07F0
0FF8
07F8
00FC
007C
007C
003C
603C
607C
707C
70F8
FFF0
3FE0
ENDCHAR
STARTCHAR 04E2
ENCODING 1250
SWIDTH 750 0
DWIDTH 25 0
BBX 24 27 1 0
BITMAP
03FFC0
03FFC0
000000
000000
FFC07F
FFC0FE
7FC0FE
1F01F8
1F01F8
1F03F8
1F03F8
1F06F8
1F0EF8
1F0CF8
1F1CF8
1F18F8
1F38F8
1F30F8
1F70F8
1F60F8
1FE0F8
1FC0F8
1FC0F8
1F80F8
3F81FC
7F03FE
FF03FF
ENDCHAR
STARTCHAR 04E3
ENCODING 1251
SWIDTH 630 0
DWIDTH 21 0
BBX 19 21 1 0
BITMAP
0FFF00
1FFF00
000000
000000
000000
000000
FF87E0
FF0FE0
3E0FC0
3E1F80
3E3F80
3E3780
3E6780
3EE780
3EC780
3FC780
3F8780
3F0780
3F0FC0
FE1FE0
FC1FE0
ENDCHAR
STARTCHAR 04E4
ENCODING 1252
SWIDTH 750 0
DWIDTH 25 0
BBX 24 29 1 0
BITMAP
01C380
03E7C0
03E7C0
03E7C0
01C380
000000
FFC07F
FFC0FE
7FC0FE
1F01F8
1F01F8
1F03F8
1F03F8
1F06F8
1F0EF8
1F0CF8
1F1CF8
1F18F8
1F38F8
1F30F8
1F70F8
1F60F8
1FE0F8
1FC0F8
1FC0F8
1F80F8
3F81FC
7F03FE
FF03FF
ENDCHAR
STARTCHAR 04E5
ENCODING 1253
SWIDTH 630 0
DWIDTH 21 0
BBX 19 22 1 0
BITMAP
0F0E00
0F1F00
1F1F00
0F1F00
060E00
000000
000000
FF87E0
FF0FE0
3E0FC0
3E1F80
3E3F80
3E3780
3E6780
3EE780
3EC780
3FC780
3F8780
3F0780
3F0FC0
FE1FE0
FC1FE0
ENDCHAR
STARTCHAR 04E6
ENCODING 1254
SWIDTH 720 0
DWIDTH 24 0
BBX 23 29 1 0
BITMAP
038380
07C7C0
07C7C0
07C7C0
038380
000000
007C00
03FF80
0F8FE0
1F03F0
3E01F8
3C00F8
7C00FC
7C007C
FC007C
F8007E
F8007E
F8007E
F8007E
FC007E
FC007C
7C007C
7C007C
7E0078
3E00F8
1F01F0
0F83E0
07FFC0
01FF00
ENDCHAR
STARTCHAR 04E7
ENCODING 1255
SWIDTH 570 0
DWIDTH 19 0
BBX 17 22 1 0
BITMAP
1C3C00
3E3E00
3E3E00
3E3C00
1C1800
000000
018000
0FF800
1FFE00
3C3E00
7C1F00
781F00
F80F80
F80F80
F80F80
F80F80
F80F80
7C0F00
7C1F00
3E1E00
1FFC00
0FF800
ENDCHAR
STARTCHAR 04E8
ENCODING 1256
SWIDTH 720 0
DWIDTH 24 0
BBX 23 23 1 0
BITMAP
007C00
03FF80
0F8FE0
1F03F0
3E01F8
3C00F8
7C00FC
7C007C
F8007C
F8007E
FFFFFE
FFFFFE
FF007E
FC007E
FC007C
7C007C
7C007C
7E0078
3E00F8
1F01F0
0F83E0
07FFC0
01FF00
ENDCHAR
STARTCHAR 04E9
ENCODING 1257
SWIDTH 570 0
DWIDTH 19 0
BBX 17 16 1 0
BITMAP
018000
0FF800
1FFE00
3C3E00
7C1F00
780F00
F80F80
FFFF80
FFFF80
F80F80
F80F80
7C0F00
7C1F00
3E1E00
1FFC00
0FF800
ENDCHAR
STARTCHAR 04EA
ENCODING 1258
SWIDTH 720 0
DWIDTH 24 0
BBX 23 29 1 0
BITMAP
038380
07C7C0
07C7C0
07C7C0
038380
000000
007C00
03FF80
0F8FE0
1F03F0
3E01F8
3C00F8
7C00FC
7C007C
F8007C
F8007E
FFFFFE
FFFFFE
FF007E
FC007E
FC007C
7C007C
7C007C
7E0078
3E00F8
1F01F0
0F83E0
07FFC0
01FF00
ENDCHAR
STARTCHAR 04EB
ENCODING 1259
SWIDTH 570 0
DWIDTH 19 0
BBX 17 22 1 0
BITMAP
1C3C00
3E3E00
3E3E00
3E3C00
1C1800
000000
018000
0FF800
1FFE00
3C3E00
7C1F00
780F00
F80F80
FFFF80
FFFF80
F80F80
F80F80
7C0F00
7C1F00
3E1E00
1FFC00
0FF800
ENDCHAR
STARTCHAR 04EC
ENCODING 1260
SWIDTH 630 0
DWIDTH 21 0
BBX 18 29 2 0
BITMAP
383800
7C7C00
7C7C00
7C7C00
383800
000000
0FE000
7FF800
F87E00
F03F00
E01F00
E00F80
E00F80
000FC0
0007C0
0007C0
0FFFC0
0FFFC0
0FFFC0
0007C0
0007C0
0007C0
C00F80
C00F80
E00F00
E01F00
F03E00
FFFC00
3FF000
ENDCHAR
STARTCHAR 04ED
ENCODING 1261
SWIDTH 450 0
DWIDTH 15 0
BBX 15 22 0 0
BITMAP
7070
F8F8
F8F8
78F8
3070
0000
0000
7FE0
7FF8
70F8
707C
707C
007C
0FFE
0FFE
083C
003C
607C
707C
70F8
7FF0
3FC0
ENDCHAR
STARTCHAR 04EE
ENCODING 1262
SWIDTH 660 0
DWIDTH 22 0
BBX 21 27 1 0
BITMAP
07FFC0
07FFC0
000000
000000
FF83F8
FF81F8
FF81F8
7E00E0
3F00E0
1F00C0
0F81C0
0FC180
07C380
07E300
03E700
01F600
01FE00
00FC00
00FC00
007800
007800
007000
007000
3FE000
3FE000
3FC000
1F8000
ENDCHAR
STARTCHAR 04EF
ENCODING 1263
SWIDTH 540 0
DWIDTH 18 0
BBX 18 29 0 -8
BITMAP
07FF80
0FFF80
000000
000000
000000
000000
FFCFC0
7FCFC0
3F0780
1F0300
1F0700
0F8600
0F8E00
07CC00
07CC00
03F800
03F800
01F800
01F000
01F000
00E000
00E000
00C000
00C000
01C000
7F8000
7F8000
7F0000
3E0000
ENDCHAR
STARTCHAR 04F0
ENCODING 1264
SWIDTH 660 0
DWIDTH 22 0
BBX 21 29 1 0
BITMAP
038380
07C7C0
07C7C0
07C7C0
038380
000000
FF83F8
FF81F8
FF81F8
7E00E0
3F00E0
1F00C0
0F81C0
0FC180
07C380
07E300
03E700
01F600
01FE00
00FC00
00FC00
007800
007800
007000
007000
3FE000
3FE000
3FC000
1F8000
ENDCHAR
STARTCHAR 04F1
ENCODING 1265
SWIDTH 540 0
DWIDTH 18 0
BBX 18 30 0 -8
BITMAP
070700
078F80
0F8F80
078F80
030700
000000
000000
FFCFC0
7FCFC0
3F0780
1F0300
1F0700
0F8600
0F8E00
07CC00
07CC00
03F800
03F800
01F800
01F000
01F000
00E000
00E000
00C000
00C000
01C000
7F8000
7F8000
7F0000
3E0000
ENDCHAR
STARTCHAR 04F2
ENCODING 1266
SWIDTH 660 0
DWIDTH 22 0
BBX 21 29 1 0
BITMAP
00F3E0
00F3C0
00E380
01C700
000000
000000
FF83F8
FF81F8
FF81F8
7E00E0
3F00E0
1F00C0
0F81C0
0FC180
07C380
07E300
03E700
01F600
01FE00
00FC00
00FC00
007800
007800
007000
007000
3FE000
3FE000
3FC000
1F8000
ENDCHAR
STARTCHAR 04F3
ENCODING 1267
SWIDTH 540 0
DWIDTH 18 0
BBX 18 32 0 -8
BITMAP
00F3C0
00F3C0
01E780
01C700
018600
038E00
000000
000000
000000
FFCFC0
7FCFC0
3F0780
1F0300
1F0700
0F8600
0F8E00
07CC00
07CC00
03F800
03F800
01F800
01F000
01F000
00E000
00E000
00C000
00C000
01C000
7F8000
7F8000
7F0000
3E0000
ENDCHAR
STARTCHAR 04F4
ENCODING 1268
SWIDTH 720 0
DWIDTH 24 0
BBX 22 29 1 0
BITMAP
038700
07CF80
07CF80
07C780
038700
000000
FFC7FC
FFC7FC
7F87F8
3F03F0
3E01F0
3E01F0
3E01F0
1F01F0
1F01F0
1F01F0
1F01F0
0F81F0
0FFFF0
03FFF0
0001F0
0001F0
0001F0
0001F0
0001F0
0003F0
0003F0
001FFC
001FFC
ENDCHAR
STARTCHAR 04F5
ENCODING 1269
SWIDTH 570 0
DWIDTH 19 0
BBX 19 22 0 0
BITMAP
0E0E00
1F1F00
1F1F00
1F1F00
060E00
000000
000000
FFBFE0
7F1FC0
3E0F80
3E0F80
3E0F80
3E0F80
1F0F80
1FFF80
0FFF80
018F80
000F80
000F80
001F80
007FE0
007FE0
ENDCHAR
STARTCHAR 04F6
ENCODING 1270
SWIDTH 570 0
DWIDTH 19 0
BBX 18 29 1 -6
BITMAP
FFFF80
FFFF80
7F1F80
1F0380
1F0180
1F01C0
1F0100
1F0000
1F0000
1F0000
1F0000
1F0000
1F0000
1F0000
1F0000
1F0000
1F0000
1F0000
1F0000
1F0000
3F8000
FFF000
FFF800
007000
007000
007000
007000
007000
007000
ENDCHAR
STARTCHAR 04F7
ENCODING 1271
SWIDTH 480 0
DWIDTH 16 0
BBX 15 21 1 -6
BITMAP
FFFC
FFFC
3E1C
3E0C
3E0E
3E00
3E00
3E00
3E00
3E00
3E00
3E00
3F00
FFE0
FFE0
01E0
01E0
01E0
00E0
00E0
00E0
ENDCHAR
STARTCHAR 04F8
ENCODING 1272
SWIDTH 930 0
DWIDTH 31 0
BBX 29 29 1 0
BITMAP
00383800
007C7800
007C7C00
007C7800
00383800
00000000
FFE01FF8
FFE01FF8
7FE00FF0
1F0007E0
1F0003E0
1F0003E0
1F0003E0
1F0003E0
1F0003E0
1F0003E0
1FFC03E0
1FFF03E0
1F1FC3E0
1F0FC3E0
1F07C3E0
1F07E3E0
1F07E3E0
1F07E3E0
1F07C3E0
1F07C7E0
3F8F87E0
7FFF1FF8
FFFC1FF8
ENDCHAR
STARTCHAR 04F9
ENCODING 1273
SWIDTH 810 0
DWIDTH 27 0
BBX 26 22 1 0
BITMAP
00E1C000
01F3E000
01F3E000
01E3E000
00C0C000
00000000
00000000
FFC07FC0
FFC07F80
3E001F00
3E001F00
3E001F00
3F801F00
3FFC1F00
3E7E1F00
3E3F1F00
3E1F1F00
3E1F1F00
3E1F1F00
3E3F1F00
FFFE7FC0
FFF87FC0
ENDCHAR
STARTCHAR 04FA
ENCODING 1274
SWIDTH 570 0
DWIDTH 19 0
BBX 19 31 0 -8
BITMAP
7FFFC0
7FFFC0
3F8FC0
0F81C0
0F80C0
0F80E0
0F8080
0F8000
0F8000
0F8000
0F8000
FFFC00
FFFC00
0F8000
0F8000
0F8000
0F8000
0F8000
0F8000
0F8000
1FC000
7FFC00
7FFC00
003C00
003C00
003C00
007C00
00F800
01F000
03E000
038000
ENDCHAR
STARTCHAR 04FB
ENCODING 1275
SWIDTH 480 0
DWIDTH 16 0
BBX 16 23 0 -8
BITMAP
7FFE
7FFE
1F0E
1F06
1F07
1F00
1F00
FFF0
FFF0
1F00
1F00
1F00
1F80
7FF0
7FF8
00F8
00F8
00F8
00F0
01F0
03E0
0F80
0700
ENDCHAR
STARTCHAR 04FC
ENCODING 1276
SWIDTH 690 0
DWIDTH 23 0
BBX 21 31 1 -8
BITMAP
FFC7F8
FFC7F8
7FC3F0
3F81C0
1F8180
0FC380
07E700
07E600
03FE00
01FC00
00FC00
00FC00
00FE00
01FF00
019F80
039FC0
070FC0
0607E0
0E03F0
1C03F0
7C01F8
FF00F8
FF00F8
0000F8
0000F8
0000F8
0000F0
0001F0
0003E0
0007C0
000300
ENDCHAR
STARTCHAR 04FD
ENCODING 1277
SWIDTH 540 0
DWIDTH 18 0
BBX 17 23 1 -8
BITMAP
FF9F80
FF9F80
3F0E00
1F1C00
0F9800
07F000
07E000
03F000
03F800
06FC00
0C7C00
187E00
383F00
FE1F00
FE0F80
000F80
000780
000780
000780
000F00
000F00
001E00
001800
ENDCHAR
STARTCHAR 04FE
ENCODING 1278
SWIDTH 690 0
DWIDTH 23 0
BBX 21 23 1 0
BITMAP
FFC3F8
FFC3F8
7FC3F0
3F81E0
1F81C0
0FC380
07E300
07E700
03FE00
03FC00
01FC00
7FFFF0
7FFFF0
01FE00
01BF00
03BF00
071F80
061F80
0E0FC0
1C0FE0
7C07F0
FF1FF8
FF1FF8
ENDCHAR
STARTCHAR 04FF
ENCODING 1279
SWIDTH 540 0
DWIDTH 18 0
BBX 17 15 1 0
BITMAP
FF9F80
FF9F00
3F0E00
1F9C00
0F9800
0FF800
7FFF00
7FFF00
07F800
0FF800
1CFC00
1C7E00
387F00
FCFF80
FCFF80
ENDCHAR
STARTCHAR 0510
ENCODING 1296
SWIDTH 570 0
DWIDTH 19 0
BBX 17 23 1 0
BITMAP
03F000
0FFF00
1FBF00
3E0F00
3E0700
7E0700
7E0600
3E0000
3F0000
1F8000
0FF000
07F000
1FF000
3E0000
7C0000
7C0000
FC0380
FC0380
7C0380
7C0780
7E0F80
1FFF80
0FFE00
ENDCHAR
STARTCHAR 0511
ENCODING 1297
SWIDTH 450 0
DWIDTH 15 0
BBX 14 16 1 0
BITMAP
0380
1FFC
7FFC
7C3C
781C
7C00
7E00
1FC0
0FC0
7F00
7C00
F818
F81C
FC1C
7FFC
1FF8
ENDCHAR
STARTCHAR 0512
ENCODING 1298
SWIDTH 690 0
DWIDTH 23 0
BBX 22 31 0 -8
BITMAP
0FFFFC
0FFFFC
07E7F8
01C3F0
01C1F0
0181F0
0181F0
0181F0
0181F0
0181F0
0181F0
0181F0
0181F0
0181F0
0381F0
0301F0
0301F0
0701F0
4F01F0
7F01F0
FE01F0
7E01F0
7C01F0
0001E0
0003E0
0003E0
0003C0
000780
000F80
000E00
000C00
ENDCHAR
STARTCHAR 0513
ENCODING 1299
SWIDTH 570 0
DWIDTH 19 0
BBX 19 23 0 -8
BITMAP
0FFFE0
0FFFE0
030F80
030F80
030F80
030F80
030F80
030F80
030F80
060F80
060F80
7E0F80
FC0F80
FC0F80
780F80
000F80
000F00
000F00
001E00
001E00
003C00
007800
007000
ENDCHAR
STARTCHAR 051A
ENCODING 1306
SWIDTH 720 0
DWIDTH 24 0
BBX 25 30 1 -7
BITMAP
007C0000
03FF8000
0F8FE000
1F03F000
3E01F800
3C00F800
7C00FC00
7C007C00
FC007C00
F8007E00
F8007E00
F8007E00
F8007E00
FC007E00
FC007C00
7C007C00
7C007C00
7E007800
3E00F800
1F01F000
0F83E000
07FFC000
01FF0000
000FC000
0003F000
0001F800
0000FF80
00007F80
00007E00
00001000
ENDCHAR
STARTCHAR 051B
ENCODING 1307
SWIDTH 570 0
DWIDTH 19 0
BBX 19 24 1 -8
BITMAP
00C000
07FE00
1FBF80
3E0F80
7C0F80
780F00
F80F00
F80F00
F80F00
F80F00
F80F00
F80F00
7C0F00
7F7F00
3FEF00
0F8F00
000F00
000F00
000F00
000F00
001F80
001F80
00FFE0
00FFE0
ENDCHAR
STARTCHAR 051C
ENCODING 1308
SWIDTH 990 0
DWIDTH 33 0
BBX 32 23 1 0
BITMAP
FF80C0FF
FF81C07E
FF81E07E
7E01E01C
3E03F018
3E03F018
3F03F018
1F07F830
1F06F830
1F86F830
0F8CFC60
0F8C7C60
0FCC7E60
07D87EE0
07D83EC0
07F83FC0
03F01FC0
03F01F80
03F01F80
03E00F80
01E00F00
01E00F00
01C00700
ENDCHAR
STARTCHAR 051D
ENCODING 1309
SWIDTH 780 0
DWIDTH 26 0
BBX 26 15 0 0
BITMAP
FF870FC0
7F870FC0
3F0F8700
1F0F8700
1F0FC600
1F1FC600
0F9BC600
0FBBEC00
0FB3EC00
07F1FC00
07E1F800
07E0F800
03E0F800
03C0F000
03C07000
ENDCHAR
STARTCHAR 0524
ENCODING 1316
SWIDTH 810 0
DWIDTH 27 0
BBX 25 29 1 -6
BITMAP
FFFFFE00
FFFFFE00
7F00FC00
1F00F800
1F00F800
1F00F800
1F00F800
1F00F800
1F00F800
1F00F800
1F00F800
1F00F800
1F00F800
1F00F800
1F00F800
1F00F800
1F00F800
1F00F800
1F00F800
1F00F800
3F01F800
7FC7FF80
FFC7FF80
00000780
00000780
00000780
00000780
00000780
00000380
ENDCHAR
STARTCHAR 0525
ENCODING 1317
SWIDTH 660 0
DWIDTH 22 0
BBX 21 21 1 -6
BITMAP
FFFFE0
FFFFE0
3E07C0
3E0780
3E0780
3E0780
3E0780
3E0780
3E0780
3E0780
3E0780
3E0F80
3E0FC0
FF9FF8
FF9FF8
000078
000078
000038
000038
000038
000038
ENDCHAR
STARTCHAR 0526
ENCODING 1318
SWIDTH 780 0
DWIDTH 26 0
BBX 24 29 1 -6
BITMAP
FFE000
FFE000
7FE000
1F0000
1F0000
1F0000
1F0000
1F0000
1F0000
1F7F00
1FFFC0
1FFFE0
1F03E0
1F01F0
1F01F0
1F01F0
1F01F0
1F01F0
1F01F0
1F01F0
3F01F8
7FC7FF
FFC7FF
00000F
000007
000007
000007
000007
000007
ENDCHAR
STARTCHAR 0527
ENCODING 1319
SWIDTH 690 0
DWIDTH 23 0
BBX 22 30 1 -6
BITMAP
060000
FE0000
FE0000
3E0000
3E0000
3E0000
3E0000
3E0000
3E0000
3E7F00
3EFF80
3FFF80
3E0F80
3E07C0
3E07C0
3E07C0
3E07C0
3E07C0
3E07C0
3E07C0
3E07C0
3F0FC0
FF9FF8
FF9FFC
000038
000038
000038
000038
000038
000038
ENDCHAR
STARTCHAR 0528
ENCODING 1320
SWIDTH 750 0
DWIDTH 25 0
BBX 24 31 1 -8
BITMAP
FFC3FF
FFC3FE
7FC3FE
1F00F8
1F00F8
1F00F8
1F00F8
1F00F8
1F00F8
1F00F8
1FFFF8
1FFFF8
1FF0F8
1F00F8
1F00F8
1F00F8
1F00F8
1F00F8
1F00F8
1F00F8
1F01FC
1F03FE
1F03FF
1F0000
1E0000
3E0000
3C0000
7C0000
780000
F00000
C00000
ENDCHAR
STARTCHAR 0529
ENCODING 1321
SWIDTH 630 0
DWIDTH 21 0
BBX 20 23 1 -8
BITMAP
FF9FF0
7F9FF0
3F07C0
3E07C0
1E07C0
1E07C0
1FFFC0
1FFFC0
1E07C0
1E07C0
1E07C0
1E07C0
1E07C0
1E1FF0
1E1FF0
3E0000
3E0000
3C0000
3C0000
780000
F00000
E00000
C00000
ENDCHAR
STARTCHAR 052E
ENCODING 1326
SWIDTH 750 0
DWIDTH 25 0
BBX 24 29 0 -6
BITMAP
0FFFFC
0FFFFC
07C1F8
01C1F0
01C1F0
0181F0
0181F0
0181F0
0181F0
0181F0
0181F0
0181F0
0181F0
0181F0
0381F0
0301F0
0301F0
0701F0
4F01F0
7F01F0
FE03F0
7E0FFF
7C0FFF
00000F
00000F
00000F
00000F
00000F
00000F
ENDCHAR
STARTCHAR 052F
ENCODING 1327
SWIDTH 600 0
DWIDTH 20 0
BBX 20 21 0 -6
BITMAP
1FFFC0
0FFFC0
030F80
030F80
030F00
030F00
030F00
060F00
060F00
060F00
0E0F00
7E0F80
FC1F80
FC3FF0
F83FF0
000070
000070
000070
000070
000070
000070
ENDCHAR
STARTCHAR 058F
ENCODING 1423
SWIDTH 600 0
DWIDTH 20 0
BBX 19 23 1 0
BITMAP
078000
1FF000
3EF800
787C00
F83E00
F83E00
F03E00
F03E00
003E00
003E00
07FFE0
0FFFC0
003E00
003E00
07FFE0
0FFFC0
0FFFC0
003E00
003E00
003E00
007F00
01FF80
01FF80
ENDCHAR
STARTCHAR 1E08
ENCODING 7688
SWIDTH 630 0
DWIDTH 21 0
BBX 19 37 1 -8
BITMAP
001F00
001E00
001C00
003800
000000
000000
007C00
03FFC0
0FC7E0
1F01E0
3E01E0
3C00C0
7C00C0
7C0000
FC0000
F80000
F80000
FC0000
F80000
FC0000
FC0000
7C0000
7E0000
7E0000
3F0000
1F8020
0FE3E0
07FFC0
01FF00
003000
006000
007800
007C00
001C00
001C00
007800
007000
ENDCHAR
STARTCHAR 1E09
ENCODING 7689
SWIDTH 450 0
DWIDTH 15 0
BBX 14 32 1 -8
BITMAP
00F8
00F0
00E0
01C0
01C0
0380
0000
0000
0100
0FF8
1FF8
3C38
7838
7838
F800
F800
F800
F800
F800
7C00
7C00
3F1C
1FF8
0FF0
0180
0300
03C0
03E0
00E0
00E0
03C0
0380
ENDCHAR
STARTCHAR 1E0C
ENCODING 7692
SWIDTH 720 0
DWIDTH 24 0
BBX 22 30 1 -7
BITMAP
FFE000
FFFF80
7F9FE0
1F03F0
1F01F8
1F00F8
1F00FC
1F007C
1F007C
1F007C
1F007C
1F007C
1F007C
1F007C
1F007C
1F007C
1F0078
1F00F8
1F00F0
1F01F0
3F87C0
7FFF80
FFFC00
000000
000000
000000
00F000
01F800
01F800
00F000
ENDCHAR
STARTCHAR 1E0D
ENCODING 7693
SWIDTH 600 0
DWIDTH 20 0
BBX 18 31 1 -7
BITMAP
000300
007F00
007F00
001F00
000F00
000F00
000F00
000F00
00CF00
07FF00
1FBF00
3E0F00
7C0F00
780F00
780F00
F80F00
F80F00
F80F00
F80F00
FC0F00
7E0F80
7F1FC0
3FFFC0
1FCE00
000000
000000
000000
01E000
03F000
03F000
01E000
ENDCHAR
STARTCHAR 1E0E
ENCODING 7694
SWIDTH 720 0
DWIDTH 24 0
BBX 22 28 1 -5
BITMAP
FFE000
FFFF80
7F9FE0
1F03F0
1F01F8
1F00F8
1F00FC
1F007C
1F007C
1F007C
1F007C
1F007C
1F007C
1F007C
1F007C
1F007C
1F0078
1F00F8
1F00F0
1F01F0
3F87C0
7FFF80
FFFC00
000000
000000
000000
0FFF00
0FFF00
ENDCHAR
STARTCHAR 1E0F
ENCODING 7695
SWIDTH 600 0
DWIDTH 20 0
BBX 18 29 1 -5
BITMAP
000300
007F00
007F00
001F00
000F00
000F00
000F00
000F00
00CF00
07FF00
1FBF00
3E0F00
7C0F00
780F00
780F00
F80F00
F80F00
F80F00
F80F00
FC0F00
7E0F80
7F1FC0
3FFFC0
1FCE00
000000
000000
000000
1FFE00
1FFE00
ENDCHAR
STARTCHAR 1E10
ENCODING 7696
SWIDTH 720 0
DWIDTH 24 0
BBX 22 33 1 -10
BITMAP
FFE000
FFFF80
7F9FE0
1F03F0
1F01F8
1F00F8
1F00FC
1F007C
1F007C
1F007C
1F007C
1F007C
1F007C
1F007C
1F007C
1F007C
1F0078
1F00F8
1F00F0
1F01F0
3F87C0
7FFF80
FFFC00
000000
001000
00F000
01F800
01F800
007000
007000
006000
00E000
00C000
ENDCHAR
STARTCHAR 1E11
ENCODING 7697
SWIDTH 600 0
DWIDTH 20 0
BBX 18 34 1 -10
BITMAP
000300
007F00
007F00
001F00
000F00
000F00
000F00
000F00
00CF00
07FF00
1FBF00
3E0F00
7C0F00
780F00
780F00
F80F00
F80F00
F80F00
F80F00
FC0F00
7E0F80
7F1FC0
3FFFC0
1FCE00
000000
002000
01E000
03F000
03F000
00E000
00E000
00C000
01C000
018000
ENDCHAR
STARTCHAR 1E14
ENCODING 7700
SWIDTH 600 0
DWIDTH 20 0
BBX 19 34 1 0
BITMAP
078000
078000
03C000
01C000
00E000
000000
000000
1FFE00
1FFE00
000000
000000
FFFF80
FFFF80
7F1F80
1F0380
1F0180
1F01C0
1F0100
1F0000
1F0C00
1F0C00
1F1C00
1FFC00
1FFC00
1F0C00
1F0C00
1F0000
1F0000
1F00E0
1F00E0
1F01C0
3F83C0
7FFFC0
FFFFC0
ENDCHAR
STARTCHAR 1E15
ENCODING 7701
SWIDTH 510 0
DWIDTH 17 0
BBX 15 27 1 0
BITMAP
0700
0F00
0700
0380
0180
0000
0000
3FFC
3FFC
0000
0000
0180
0FF0
3FF8
3C3C
783C
783E
F83E
FFFE
FFFC
F800
F800
7C00
7C00
3F1E
1FFC
0FF0
ENDCHAR
STARTCHAR 1E16
ENCODING 7702
SWIDTH 600 0
DWIDTH 20 0
BBX 19 34 1 0
BITMAP
007800
007000
00F000
00E000
01C000
000000
000000
1FFE00
1FFE00
000000
000000
FFFF80
FFFF80
7F1F80
1F0380
1F0180
1F01C0
1F0100
1F0000
1F0C00
1F0C00
1F1C00
1FFC00
1FFC00
1F0C00
1F0C00
1F0000
1F0000
1F00E0
1F00E0
1F01C0
3F83C0
7FFFC0
FFFFC0
ENDCHAR
STARTCHAR 1E17
ENCODING 7703
SWIDTH 510 0
DWIDTH 17 0
BBX 15 27 1 0
BITMAP
00F0
00E0
01E0
01C0
0380
0000
0000
3FFC
3FFC
0000
0000
0180
0FF0
3FF8
3C3C
783C
783E
F83E
FFFE
FFFC
F800
F800
7C00
7C00
3F1E
1FFC
0FF0
ENDCHAR
STARTCHAR 1E1C
ENCODING 7708
SWIDTH 600 0
DWIDTH 20 0
BBX 19 37 1 -8
BITMAP
1C0E00
0E1C00
0FFC00
07F800
03F000
000000
FFFF80
FFFF80
7F1F80
1F0380
1F0180
1F01C0
1F0100
1F0000
1F0C00
1F0C00
1F1C00
1FFC00
1FFC00
1F0C00
1F0C00
1F0000
1F0000
1F00E0
1F00E0
1F01C0
3F83C0
7FFFC0
FFFFC0
00C000
00C000
01F000
00F000
003800
003000
00F000
01C000
ENDCHAR
STARTCHAR 1E1D
ENCODING 7709
SWIDTH 510 0
DWIDTH 17 0
BBX 15 32 1 -8
BITMAP
100C
300C
381C
3FFC
1FF8
0FF0
0180
0000
0180
0FF0
3FF8
3C3C
783C
783E
F83E
FFFE
FFFC
F800
F800
7C00
7C00
3F1E
3FFC
0FF0
0180
0300
03C0
03E0
00E0
00E0
03C0
0380
ENDCHAR
STARTCHAR 1E20
ENCODING 7712
SWIDTH 690 0
DWIDTH 23 0
BBX 21 27 1 0
BITMAP
03FFC0
07FFC0
000000
000000
007E00
03FFE0
0FC3F0
1F00F0
3E00F0
3E0060
7C0060
7C0000
FC0000
F80000
F80000
F80000
F807F8
FC07F8
FC01F0
7C01F0
7C01F0
7E01F0
3E01F0
1F01F0
0F81F0
07FFE0
01FF80
ENDCHAR
STARTCHAR 1E21
ENCODING 7713
SWIDTH 540 0
DWIDTH 18 0
BBX 16 29 1 -8
BITMAP
7FFC
7FF8
0000
0000
0000
0100
1FFF
3CFF
7C7C
783C
F83E
F83E
7C3C
7C7C
3FF8
1FF0
3800
7800
7FF0
7FFE
7FFF
3FFF
7FFF
F00F
F00F
F01E
F83C
7FF8
3FE0
ENDCHAR
STARTCHAR 1E24
ENCODING 7716
SWIDTH 750 0
DWIDTH 25 0
BBX 24 30 1 -7
BITMAP
FFC3FF
FFC3FE
7FC3FE
1F00F8
1F00F8
1F00F8
1F00F8
1F00F8
1F00F8
1F00F8
1FFFF8
1FFFF8
1FFCF8
1F00F8
1F00F8
1F00F8
1F00F8
1F00F8
1F00F8
1F00F8
3F01FC
7FC3FE
FFC3FF
000000
000000
000000
003C00
007E00
007E00
003C00
ENDCHAR
STARTCHAR 1E25
ENCODING 7717
SWIDTH 630 0
DWIDTH 21 0
BBX 20 31 1 -7
BITMAP
060000
FE0000
FE0000
3E0000
3E0000
3E0000
3E0000
3E0000
3E0000
3E7F00
3EFF80
3FFF80
3E0F80
3E07C0
3E07C0
3E07C0
3E07C0
3E07C0
3E07C0
3E07C0
3E07C0
3F0FC0
FF9FE0
FF9FF0
000000
000000
000000
00F000
01F800
01F800
00F000
ENDCHAR
STARTCHAR 1E2A
ENCODING 7722
SWIDTH 750 0
DWIDTH 25 0
BBX 24 30 1 -7
BITMAP
FFC3FF
FFC3FE
7FC3FE
1F00F8
1F00F8
1F00F8
1F00F8
1F00F8
1F00F8
1F00F8
1FFFF8
1FFFF8
1FFCF8
1F00F8
1F00F8
1F00F8
1F00F8
1F00F8
1F00F8
1F00F8
3F01FC
7FC3FE
FFC3FF
000000
000000
038180
01C380
01FF80
00FF00
003C00
ENDCHAR
STARTCHAR 1E2B
ENCODING 7723
SWIDTH 630 0
DWIDTH 21 0
BBX 20 31 1 -7
BITMAP
060000
FE0000
FE0000
3E0000
3E0000
3E0000
3E0000
3E0000
3E0000
3E7F00
3EFF80
3FFF80
3E0F80
3E07C0
3E07C0
3E07C0
3E07C0
3E07C0
3E07C0
3E07C0
3E07C0
3F0FC0
FF9FE0
FF9FF0
000000
000000
0E0700
078E00
07FE00
03FC00
00F000
ENDCHAR
STARTCHAR 1E2E
ENCODING 7726
SWIDTH 360 0
DWIDTH 12 0
BBX 11 34 1 0
BITMAP
0780
0700
0F00
0E00
0000
2080
F3E0
FBE0
FBE0
71C0
0000
FFC0
FFC0
7FC0
1F00
1F00
1F00
1F00
1F00
1F00
1F00
1F00
1F00
1F00
1F00
1F00
1F00
1F00
1F00
1F00
1F00
3F00
7FC0
FFC0
ENDCHAR
STARTCHAR 1E2F
ENCODING 7727
SWIDTH 330 0
DWIDTH 11 0
BBX 11 27 0 0
BITMAP
03C0
0780
0700
0E00
0400
0000
79E0
FBE0
FBE0
71E0
0000
0100
3F00
7F00
3F00
1F00
0F00
0F00
0F00
0F00
0F00
0F00
0F00
1F00
1F80
7FE0
7FE0
ENDCHAR
STARTCHAR 1E36
ENCODING 7734
SWIDTH 600 0
DWIDTH 20 0
BBX 19 30 1 -7
BITMAP
FFC000
FFC000
7FC000
1F0000
1F0000
1F0000
1F0000
1F0000
1F0000
1F0000
1F0000
1F0000
1F0000
1F0000
1F0000
1F0000
1F0000
1F00E0
1F01C0
1F01C0
3F87C0
7FFFC0
FFFFC0
000000
000000
000000
01F000
03F000
03F000
01F000
ENDCHAR
STARTCHAR 1E37
ENCODING 7735
SWIDTH 330 0
DWIDTH 11 0
BBX 9 31 1 -7
BITMAP
0600
FE00
FE00
3E00
3E00
3E00
3E00
3E00
3E00
3E00
3E00
3E00
3E00
3E00
3E00
3E00
3E00
3E00
3E00
3E00
3E00
3F00
FF80
FF80
0000
0000
0000
3E00
3E00
3E00
3E00
ENDCHAR
STARTCHAR 1E3A
ENCODING 7738
SWIDTH 600 0
DWIDTH 20 0
BBX 19 28 1 -5
BITMAP
FFC000
FFC000
7FC000
1F0000
1F0000
1F0000
1F0000
1F0000
1F0000
1F0000
1F0000
1F0000
1F0000
1F0000
1F0000
1F0000
1F0000
1F00E0
1F01C0
1F01C0
3F87C0
7FFFC0
FFFFC0
000000
000000
000000
1FFE00
1FFE00
ENDCHAR
STARTCHAR 1E3B
ENCODING 7739
SWIDTH 330 0
DWIDTH 11 0
BBX 11 29 0 -5
BITMAP
0300
7F00
7F00
1F00
1F00
1F00
1F00
1F00
1F00
1F00
1F00
1F00
1F00
1F00
1F00
1F00
1F00
1F00
1F00
1F00
1F00
1F80
7FC0
7FC0
0000
0000
0000
7FE0
FFE0
ENDCHAR
STARTCHAR 1E42
ENCODING 7746
SWIDTH 960 0
DWIDTH 32 0
BBX 30 30 1 -7
BITMAP
7F8003F8
7F8007F8
3F8007F0
0FC007E0
0FC00FE0
0FE00FE0
0FE01FE0
1FF01BE0
1DF01BE0
1DF03BE0
19F833E0
18F833E0
18FC63E0
187C63E0
187EE3F0
183EC1F0
183FC1F0
181F81F0
381F81F0
381F81F0
780F03F8
FE0F07FC
FE0607FC
00000000
00000000
00000000
000F0000
001F8000
001F8000
000F0000
ENDCHAR
STARTCHAR 1E43
ENCODING 7747
SWIDTH 960 0
DWIDTH 32 0
BBX 30 23 1 -7
BITMAP
00080000
7E7F0FC0
FEFF9FE0
7FFFFFF0
3E07C1F0
1E07C1F0
1E07C1F0
1E07C1F0
1E07C1F0
1E07C1F0
1E07C1F0
1E07C1F0
3E07C1F0
3F0FC1F8
FF9FF7FC
FFDFF7FC
00000000
00000000
00000000
00078000
000FC000
000FC000
00078000
ENDCHAR
STARTCHAR 1E44
ENCODING 7748
SWIDTH 720 0
DWIDTH 24 0
BBX 22 29 1 0
BITMAP
003800
007C00
00FC00
007C00
007800
000000
FE01FC
FF01FC
7F00F8
1F8070
1FC070
1FC030
1FE030
1BF030
1BF830
19F830
18FC30
187E30
187F30
183F30
181FB0
180FF0
180FF0
1807F0
1803F0
3801F0
3C01F0
FF00F0
FF0070
ENDCHAR
STARTCHAR 1E45
ENCODING 7749
SWIDTH 630 0
DWIDTH 21 0
BBX 20 22 1 0
BITMAP
00F000
01F800
01F800
00F000
006000
000000
020000
7E7F00
FEFF80
7FFF80
3E07C0
1E07C0
1E07C0
1E07C0
1E07C0
1E07C0
1E07C0
1E07C0
3E07C0
3F07C0
FF9FF0
FFDFF0
ENDCHAR
STARTCHAR 1E46
ENCODING 7750
SWIDTH 720 0
DWIDTH 24 0
BBX 22 30 1 -7
BITMAP
FE01FC
FF01FC
7F00F8
1F8070
1FC070
1FC030
1FE030
1BF030
1BF830
19F830
18FC30
187E30
187F30
183F30
181FB0
180FF0
180FF0
1807F0
1803F0
3801F0
3C01F0
FF00F0
FF0070
000000
000000
000000
003C00
007E00
007E00
003C00
ENDCHAR
STARTCHAR 1E47
ENCODING 7751
SWIDTH 630 0
DWIDTH 21 0
BBX 20 23 1 -7
BITMAP
020000
7E7F00
FEFF80
7FFF80
3E07C0
1E07C0
1E07C0
1E07C0
1E07C0
1E07C0
1E07C0
1E07C0
3E07C0
3F07C0
FF9FF0
FFDFF0
000000
000000
000000
00F000
01F800
01F800
00F000
ENDCHAR
STARTCHAR 1E48
ENCODING 7752
SWIDTH 720 0
DWIDTH 24 0
BBX 22 28 1 -5
BITMAP
FE01FC
FF01FC
7F00F8
1F8070
1FC070
1FC030
1FE030
1BF030
1BF830
19F830
18FC30
187E30
187F30
183F30
181FB0
180FF0
180FF0
1807F0
1803F0
3801F0
3C01F0
FF00F0
FF0070
000000
000000
000000
03FFC0
03FFC0
ENDCHAR
STARTCHAR 1E49
ENCODING 7753
SWIDTH 630 0
DWIDTH 21 0
BBX 20 21 1 -5
BITMAP
020000
7E7F00
FEFF80
7FFF80
3E07C0
1E07C0
1E07C0
1E07C0
1E07C0
1E07C0
1E07C0
1E07C0
3E07C0
3F07C0
FF9FF0
FFDFF0
000000
000000
000000
0FFF00
0FFF00
ENDCHAR
STARTCHAR 1E4C
ENCODING 7756
SWIDTH 720 0
DWIDTH 24 0
BBX 23 35 1 0
BITMAP
001E00
001E00
003C00
003800
000000
000000
00E080
03FF80
07FF80
021F00
000000
000000
007C00
03FF80
0F8FE0
1F03F0
3E01F8
3C00F8
7C00FC
7C007C
FC007C
F8007E
F8007E
F8007E
F8007E
FC007E
FC007C
7C007C
7C007C
7E0078
3E00F8
1F01F0
0F83E0
07FFC0
01FF00
ENDCHAR
STARTCHAR 1E4D
ENCODING 7757
SWIDTH 570 0
DWIDTH 19 0
BBX 17 28 1 0
BITMAP
00F800
00F000
00E000
01C000
018000
000000
060000
1FCE00
3FFC00
31F800
002000
000000
018000
0FF800
1FFE00
3C3E00
7C1F00
781F00
F80F80
F80F80
F80F80
F80F80
F80F80
7C0F00
7C1F00
3E1E00
1FFC00
0FF800
ENDCHAR
STARTCHAR 1E4E
ENCODING 7758
SWIDTH 720 0
DWIDTH 24 0
BBX 23 35 1 0
BITMAP
038380
07C7C0
07C7C0
07C7C0
038380
000000
00E080
03FF80
07FF80
021F00
000000
000000
007C00
03FF80
0F8FE0
1F03F0
3E01F8
3C00F8
7C00FC
7C007C
FC007C
F8007E
F8007E
F8007E
F8007E
FC007E
FC007C
7C007C
7C007C
7E0078
3E00F8
1F01F0
0F83E0
07FFC0
01FF00
ENDCHAR
STARTCHAR 1E4F
ENCODING 7759
SWIDTH 570 0
DWIDTH 19 0
BBX 17 28 1 0
BITMAP
0C1800
3E3C00
3E3E00
3E3E00
1C3C00
000000
060000
1FCE00
3FFC00
31F800
002000
000000
018000
0FF800
1FFE00
3C3E00
7C1F00
781F00
F80F80
F80F80
F80F80
F80F80
F80F80
7C0F00
7C1F00
3E1E00
1FFC00
0FF800
ENDCHAR
STARTCHAR 1E50
ENCODING 7760
SWIDTH 720 0
DWIDTH 24 0
BBX 23 34 1 0
BITMAP
00E000
00F000
007000
003800
003800
000000
000000
07FFC0
07FF80
000000
000000
007C00
03FF80
0F8FE0
1F03F0
3E01F8
3C00F8
7C00FC
7C007C
FC007C
F8007E
F8007E
F8007E
F8007E
FC007E
FC007C
7C007C
7C007C
7E0078
3E00F8
1F01F0
0F83E0
07FFC0
01FF00
ENDCHAR
STARTCHAR 1E51
ENCODING 7761
SWIDTH 570 0
DWIDTH 19 0
BBX 17 27 1 0
BITMAP
030000
078000
038000
03C000
01C000
000000
000000
3FFE00
3FFC00
000000
000000
018000
0FF800
1FFE00
3C3E00
7C1F00
781F00
F80F80
F80F80
F80F80
F80F80
F80F80
7C0F00
7C1F00
3E1E00
1FFC00
0FF800
ENDCHAR
STARTCHAR 1E52
ENCODING 7762
SWIDTH 720 0
DWIDTH 24 0
BBX 23 34 1 0
BITMAP
000F00
001E00
001C00
003800
003000
000000
000000
07FFC0
07FF80
000000
000000
007C00
03FF80
0F8FE0
1F03F0
3E01F8
3C00F8
7C00FC
7C007C
FC007C
F8007E
F8007E
F8007E
F8007E
FC007E
FC007C
7C007C
7C007C
7E0078
3E00F8
1F01F0
0F83E0
07FFC0
01FF00
ENDCHAR
STARTCHAR 1E53
ENCODING 7763
SWIDTH 570 0
DWIDTH 19 0
BBX 17 27 1 0
BITMAP
007800
00F000
00E000
01C000
018000
000000
000000
3FFE00
3FFC00
000000
000000
018000
0FF800
1FFE00
3C3E00
7C1F00
781F00
F80F80
F80F80
F80F80
F80F80
F80F80
7C0F00
7C1F00
3E1E00
1FFC00
0FF800
ENDCHAR
STARTCHAR 1E5A
ENCODING 7770
SWIDTH 690 0
DWIDTH 23 0
BBX 22 30 1 -7
BITMAP
FFF800
FFFF80
7F9FC0
1F07E0
1F03E0
1F03E0
1F03E0
1F03E0
1F03E0
1F07E0
1F0FC0
1FFF80
1FFE00
1FFE00
1F3F00
1F1F80
1F0F80
1F0FC0
1F07C0
1F07E0
3F03F0
7FC3FC
FFC1FC
000000
000000
000000
007C00
007C00
007C00
007C00
ENDCHAR
STARTCHAR 1E5B
ENCODING 7771
SWIDTH 450 0
DWIDTH 15 0
BBX 14 23 1 -7
BITMAP
0200
7E7C
FEFC
7EFC
3FBC
1E1C
1E18
1E00
1E00
1E00
1E00
1E00
3F00
3F80
FFE0
FFE0
0000
0000
0000
1F00
1F00
1F00
1F00
ENDCHAR
STARTCHAR 1E5E
ENCODING 7774
SWIDTH 690 0
DWIDTH 23 0
BBX 22 28 1 -5
BITMAP
FFF800
FFFF80
7F9FC0
1F07E0
1F03E0
1F03E0
1F03E0
1F03E0
1F03E0
1F07E0
1F0FC0
1FFF80
1FFE00
1FFE00
1F3F00
1F1F80
1F0F80
1F0FC0
1F07C0
1F07E0
3F03F0
7FC3FC
FFC1FC
000000
000000
000000
07FFC0
07FFC0
ENDCHAR
STARTCHAR 1E5F
ENCODING 7775
SWIDTH 450 0
DWIDTH 15 0
BBX 15 21 0 -5
BITMAP
0100
3F3E
7F7E
3F7E
1FDE
0F0E
0F0C
0F00
0F00
0F00
0F00
0F00
1F80
1FC0
7FF0
7FF0
0000
0000
0000
7FF8
FFF8
ENDCHAR
STARTCHAR 1E60
ENCODING 7776
SWIDTH 540 0
DWIDTH 18 0
BBX 15 29 2 0
BITMAP
0380
07C0
07C0
07C0
0780
0000
07E0
3FFC
7C7C
703C
F03C
F01C
F81C
FC00
FE00
7F80
7FE0
3FF8
1FFC
07FE
01FE
007E
E03E
E01E
E01E
F01E
F83C
FFF8
3FF0
ENDCHAR
STARTCHAR 1E61
ENCODING 7777
SWIDTH 450 0
DWIDTH 15 0
BBX 13 22 1 0
BITMAP
0F80
0F80
0F80
0F80
0200
0000
0600
3FF0
7DF0
7870
F870
FC20
7F00
7FC0
3FF0
0FF8
21F8
E0F8
E0F8
F0F8
FFF0
7FE0
ENDCHAR
STARTCHAR 1E62
ENCODING 7778
SWIDTH 540 0
DWIDTH 18 0
BBX 15 30 2 -7
BITMAP
07E0
3FFC
7C7C
703C
F03C
F01C
F81C
FC00
FE00
7F80
7FE0
3FF8
1FFC
07FE
01FE
007E
E03E
E01E
E01E
F01E
F83C
FFF8
3FF0
0000
0000
0000
07C0
07C0
07C0
07C0
ENDCHAR
STARTCHAR 1E63
ENCODING 7779
SWIDTH 450 0
DWIDTH 15 0
BBX 13 23 1 -7
BITMAP
0600
3FF0
7DF0
7870
F870
FC20
7F00
7FC0
3FF0
0FF8
21F8
E0F8
E0F8
F0F8
FFF0
7FE0
0000
0000
0000
0F80
0F80
0F80
0F80
ENDCHAR
STARTCHAR 1E64
ENCODING 7780
SWIDTH 540 0
DWIDTH 18 0
BBX 15 36 2 0
BITMAP
0180
03C0
07E0
07E0
03C0
0000
0000
01E0
01E0
03C0
0380
0000
0000
07E0
3FFC
7C7C
703C
F03C
F01C
F81C
FC00
FE00
7F80
7FE0
3FF8
1FFC
07FE
01FE
007E
E03E
E01E
E01E
F01E
F83C
FFF8
3FF0
ENDCHAR
STARTCHAR 1E65
ENCODING 7781
SWIDTH 450 0
DWIDTH 15 0
BBX 13 28 1 0
BITMAP
0780
0FC0
0FC0
0780
0200
0000
01E0
03C0
0380
0700
0600
0000
0600
3FF0
7DF0
7870
F870
FC20
7F00
7FC0
3FF0
0FF8
21F8
E0F8
E0F8
F0F8
FFF0
7FE0
ENDCHAR
STARTCHAR 1E66
ENCODING 7782
SWIDTH 540 0
DWIDTH 18 0
BBX 15 36 2 0
BITMAP
0380
07C0
07C0
07C0
0380
0000
1010
3838
3FF0
0FE0
0780
0300
0000
07E0
3FFC
7C7C
703C
F03C
F01C
F81C
FC00
FE00
7F80
7FE0
3FF8
1FFC
07FE
01FE
007E
E03E
E01E
E01E
F01E
F83C
FFF8
3FF0
ENDCHAR
STARTCHAR 1E67
ENCODING 7783
SWIDTH 450 0
DWIDTH 15 0
BBX 13 29 1 0
BITMAP
0200
0F80
0F80
0F80
0F80
0000
0000
7070
7DF0
3FC0
1F80
0600
0000
0600
3FF0
7DF0
7870
F870
FC20
7F00
7FC0
3FF0
0FF8
21F8
E0F8
E0F8
F0F8
FFF0
7FE0
ENDCHAR
ENDFONT
